<svg width="128" height="131" viewBox="0 0 128 131" fill="none" xmlns="http://www.w3.org/2000/svg">
<path d="M38.5555 20.8919C37.9227 19.4944 37.6262 18.1683 37.6661 16.9136C37.706 15.6589 38.0376 14.5491 38.6608 13.5842C39.284 12.6193 40.1564 11.8718 41.278 11.3416C42.3995 10.8114 43.5219 10.6159 44.6451 10.7552C45.7684 10.8945 46.8109 11.3547 47.7727 12.1359C48.7345 12.9171 49.5318 14.0064 50.1646 15.4039C50.7974 16.8014 51.0939 18.1274 51.054 19.3821C51.0141 20.6368 50.6825 21.7466 50.0593 22.7115C49.436 23.6764 48.5636 24.424 47.4421 24.9541C46.3206 25.4843 45.1982 25.6798 44.0749 25.5405C42.9517 25.4012 41.9092 24.941 40.9474 24.1598C39.9856 23.3787 39.1883 22.2893 38.5555 20.8919ZM40.0965 20.1634C40.6161 21.3107 41.245 22.189 41.9834 22.7982C42.7176 23.4094 43.4996 23.765 44.3296 23.8649C45.1553 23.9668 45.9662 23.8295 46.7624 23.4531C47.5586 23.0768 48.1881 22.5331 48.6509 21.822C49.1094 21.1131 49.3504 20.2739 49.374 19.3044C49.3932 18.337 49.1431 17.2797 48.6235 16.1324C48.104 14.985 47.4772 14.1058 46.7431 13.4945C46.0047 12.8853 45.2226 12.5297 44.3969 12.4278C43.5669 12.3279 42.7539 12.4662 41.9577 12.8426C41.1615 13.219 40.5341 13.7617 40.0756 14.4706C39.6128 15.1816 39.3718 16.0209 39.3525 16.9882C39.329 17.9577 39.577 19.016 40.0965 20.1634Z" fill="#03041D"/>
<path d="M23.2654 24.5301L34.0512 34.289L32.8977 35.6201L23.2705 26.9095L18.8422 32.0189L17.6835 30.9706L23.2654 24.5301Z" fill="#03041D"/>
<path d="M22.3986 52.2724L8.70854 47.3579L9.2813 45.6922L22.9714 50.6068L22.3986 52.2724Z" fill="#03041D"/>
<path d="M12.8852 75.2426C11.3542 75.3396 10.0143 75.1469 8.86554 74.6646C7.7168 74.1822 6.81076 73.4782 6.14741 72.5524C5.48406 71.6265 5.11483 70.5445 5.0397 69.3062C4.96457 68.068 5.20018 66.9476 5.74653 65.9452C6.29288 64.9427 7.10687 64.1297 8.18851 63.5061C9.27015 62.8825 10.5765 62.5222 12.1075 62.4253C13.6385 62.3283 14.9784 62.5209 16.1271 63.0033C17.2759 63.4856 18.1819 64.1897 18.8453 65.1155C19.5086 66.0413 19.8779 67.1234 19.953 68.3616C20.0281 69.5999 19.7925 70.7202 19.2462 71.7227C18.6998 72.7251 17.8858 73.5381 16.8042 74.1617C15.7225 74.7853 14.4162 75.1456 12.8852 75.2426ZM12.782 73.5412C14.0389 73.4616 15.087 73.184 15.9262 72.7086C16.7657 72.238 17.3859 71.6317 17.7868 70.89C18.188 70.1529 18.3619 69.3448 18.3086 68.4658C18.2552 67.5867 17.9848 66.8044 17.4973 66.1189C17.0101 65.4381 16.3214 64.9148 15.4311 64.5489C14.5411 64.1878 13.4677 64.0471 12.2107 64.1267C10.9538 64.2063 9.90555 64.4814 9.06604 64.9521C8.22682 65.4275 7.60662 66.0337 7.20545 66.7708C6.80456 67.5126 6.63079 68.323 6.68413 69.2021C6.73746 70.0811 7.00773 70.8611 7.49493 71.5419C7.98242 72.2274 8.67115 72.7507 9.56113 73.1118C10.4514 73.4777 11.525 73.6208 12.782 73.5412Z" fill="#03041D"/>
<ellipse cx="14.9344" cy="85.3055" rx="2.18003" ry="2.22743" fill="#03041D"/>
<ellipse cx="105.229" cy="96.5243" rx="2.18003" ry="2.22743" fill="#03041D"/>
<path d="M19.0333 105.371L16.0243 102.041L26.6058 92.0606L29.7482 95.5388C30.6941 96.5858 31.2916 97.6815 31.5409 98.8259C31.7936 99.9671 31.7049 101.108 31.2747 102.249C30.8481 103.387 30.087 104.472 28.9917 105.505C27.8895 106.545 26.7596 107.24 25.602 107.59C24.4479 107.936 23.3114 107.928 22.1923 107.565C21.0766 107.199 20.0237 106.467 19.0333 105.371ZM18.3417 102.276L20.0938 104.215C20.9001 105.107 21.737 105.688 22.6046 105.956C23.4723 106.224 24.348 106.209 25.2317 105.909C26.1154 105.609 26.9879 105.053 27.849 104.241C28.7032 103.435 29.3101 102.599 29.6696 101.733C30.0325 100.864 30.1237 99.9901 29.9434 99.1125C29.7665 98.2318 29.2971 97.3698 28.5353 96.5266L26.6499 94.4396L18.3417 102.276Z" fill="#03041D"/>
<path d="M33.6514 118.168L31.9657 117.414L42.5701 106.225L44.2298 106.968L43.3761 122.518L41.6905 121.764L42.5455 108.735L42.4417 108.689L33.6514 118.168ZM36.5117 113.224L43.306 116.263L42.6906 117.7L35.8962 114.66L36.5117 113.224Z" fill="#03041D"/>
<path d="M58.0461 125.913L57.6789 111.372L59.4397 111.326L59.7674 124.305L66.5264 124.126L66.5658 125.688L58.0461 125.913Z" fill="#03041D"/>
<path d="M78.3156 108.247L83.3585 121.891L81.7152 122.525L76.6724 108.881L78.3156 108.247Z" fill="#03041D"/>
<path d="M97.692 104.336C98.6482 105.535 99.2617 106.749 99.5324 107.977C99.8031 109.206 99.7562 110.365 99.3915 111.457C99.0268 112.549 98.3677 113.492 97.4142 114.285C96.4606 115.079 95.4238 115.547 94.3035 115.691C93.1833 115.835 92.062 115.648 90.9397 115.128C89.8173 114.609 88.778 113.749 87.8218 112.55C86.8655 111.35 86.252 110.136 85.9813 108.908C85.7106 107.68 85.7576 106.52 86.1222 105.428C86.4869 104.336 87.146 103.394 88.0995 102.6C89.0531 101.807 90.09 101.338 91.2102 101.194C92.3304 101.05 93.4517 101.238 94.5741 101.757C95.6964 102.277 96.7357 103.136 97.692 104.336ZM96.3818 105.426C95.5967 104.441 94.7721 103.745 93.9081 103.337C93.0477 102.926 92.2041 102.775 91.3771 102.884C90.5537 102.991 89.8036 103.325 89.1266 103.889C88.4497 104.452 87.9752 105.136 87.703 105.942C87.4346 106.744 87.4084 107.619 87.6246 108.566C87.8444 109.51 88.3469 110.475 89.132 111.459C89.917 112.444 90.7398 113.142 91.6001 113.553C92.4642 113.961 93.3079 114.112 94.1312 114.006C94.9582 113.896 95.7102 113.56 96.3871 112.997C97.064 112.433 97.5367 111.751 97.8052 110.948C98.0774 110.143 98.1035 109.268 97.8837 108.324C97.6675 107.377 97.1668 106.411 96.3818 105.426Z" fill="#03041D"/>
<path d="M118.211 86.8498L103.906 84.2204L104.758 79.3801C104.956 78.2562 105.32 77.3748 105.851 76.7359C106.378 76.0913 107.014 75.6595 107.759 75.4402C108.504 75.2209 109.299 75.1888 110.141 75.3437C110.984 75.4986 111.72 75.812 112.348 76.2837C112.978 76.7508 113.434 77.3787 113.719 78.1675C113.998 78.9554 114.04 79.9066 113.844 81.0211L113.233 84.4905L111.696 84.208L112.297 80.7946C112.432 80.0252 112.409 79.3829 112.225 78.8678C112.042 78.3527 111.743 77.9488 111.328 77.6559C110.909 77.3575 110.414 77.1557 109.841 77.0504C109.268 76.9451 108.737 76.9582 108.248 77.0897C107.759 77.2165 107.345 77.4919 107.006 77.9158C106.662 78.3388 106.422 78.9397 106.285 79.7185L105.748 82.7682L118.517 85.1151L118.211 86.8498Z" fill="#03041D"/>
<path d="M112.819 55.5278C114.333 55.2824 115.684 55.344 116.872 55.7126C118.06 56.0813 119.028 56.6943 119.774 57.5518C120.521 58.4093 120.989 59.451 121.179 60.6769C121.37 61.9027 121.24 63.0413 120.79 64.0928C120.34 65.1442 119.606 66.033 118.588 66.7592C117.57 67.4854 116.303 67.9713 114.789 68.2167C113.275 68.4622 111.923 68.4006 110.735 68.032C109.547 67.6633 108.58 67.0502 107.834 66.1927C107.087 65.3352 106.619 64.2936 106.429 63.0677C106.238 61.8419 106.368 60.7032 106.818 59.6518C107.268 58.6003 108.002 57.7115 109.02 56.9853C110.038 56.2591 111.305 55.7733 112.819 55.5278ZM113.08 57.2122C111.837 57.4137 110.82 57.792 110.03 58.347C109.238 58.8974 108.678 59.5615 108.348 60.3392C108.018 61.1122 107.92 61.9338 108.055 62.8041C108.19 63.6743 108.532 64.4271 109.081 65.0624C109.63 65.693 110.364 66.1472 111.284 66.425C112.203 66.6981 113.284 66.7339 114.527 66.5324C115.771 66.3309 116.788 65.9549 117.579 65.4045C118.37 64.8495 118.931 64.1855 119.261 63.4124C119.591 62.6347 119.688 61.8107 119.553 60.9405C119.418 60.0702 119.076 59.3198 118.528 58.6892C117.979 58.0539 117.244 57.5997 116.325 57.3266C115.405 57.0488 114.324 57.0107 113.08 57.2122Z" fill="#03041D"/>
<path d="M114.595 39.7729L101.664 46.4321L99.4894 42.0244C98.9867 41.0052 98.7466 40.0798 98.7692 39.2481C98.7876 38.4186 99.0182 37.6928 99.461 37.0708C99.9037 36.4487 100.506 35.9416 101.268 35.5492C102.03 35.1568 102.783 34.966 103.527 34.9768C104.272 34.9875 104.972 35.2311 105.63 35.7073C106.283 36.1858 106.858 36.9303 107.357 37.9409L109.116 41.5079L107.702 42.2362L105.968 38.7202C105.624 38.0238 105.247 37.5154 104.835 37.1948C104.422 36.8699 103.982 36.7074 103.518 36.707C103.047 36.7046 102.552 36.8367 102.035 37.1034C101.517 37.37 101.112 37.7007 100.822 38.0954C100.531 38.4902 100.386 38.9562 100.387 39.4935C100.384 40.0329 100.556 40.6551 100.904 41.36L102.274 44.1371L113.816 38.1933L114.595 39.7729ZM105.757 36.6241L109.983 30.4224L110.888 32.2569L106.637 38.4076L105.757 36.6241Z" fill="#03041D"/>
<path d="M93.0338 29.8664L92.0043 31.0418L83.9531 23.6806L84.9826 22.5052L88.3582 25.5915L96.912 15.8247L98.2119 17.0133L89.6581 26.78L93.0338 29.8664Z" fill="#03041D"/>
<path d="M77.8112 8.28688L72.492 21.8248L64.4228 18.515L64.9942 17.0608L71.4338 19.7021L73.2311 15.1278L67.396 12.7344L67.9674 11.2801L73.8025 13.6735L76.1815 7.61845L77.8112 8.28688Z" fill="#03041D"/>
</svg>
