<svg width="80" height="54" viewBox="0 0 80 54" fill="none" xmlns="http://www.w3.org/2000/svg">
<path d="M45.7808 36.3343C48.1604 36.3343 50.2554 36.1029 52.066 35.64C53.8765 35.1771 55.4025 34.3286 56.644 33.0943C57.9373 31.86 58.9201 30.1886 59.5926 28.08C60.2651 25.9714 60.6531 23.2971 60.7565 20.0571H46.0912V0H71.3094V17.2029C71.3094 26.9229 69.085 34.0971 64.6363 38.7257C60.1875 43.3543 53.9024 45.6686 45.7808 45.6686V36.3343ZM0 36.3343C2.37957 36.3343 4.47462 36.1029 6.28516 35.64C8.0957 35.1771 9.62173 34.3286 10.8632 33.0943C12.1565 31.86 13.1393 30.1886 13.8118 28.08C14.4843 25.9714 14.8723 23.2971 14.9758 20.0571H0.310378V0H25.5286V17.2029C25.5286 26.9229 23.3042 34.0971 18.8555 38.7257C14.4067 43.3543 8.12156 45.6686 0 45.6686V36.3343ZM45.7808 51.0686C50.333 51.0686 54.4973 50.4257 58.2735 49.14C62.1015 47.8029 65.3864 45.7714 68.128 43.0457C70.9214 40.2686 73.0682 36.7457 74.5684 32.4771C76.1203 28.2086 76.8962 23.1171 76.8962 17.2029V4.32H80V17.2029C80 23.22 79.1723 28.5429 77.517 33.1714C75.9134 37.7486 73.6114 41.58 70.6111 44.6657C67.6625 47.7514 64.0672 50.0914 59.8254 51.6857C55.6353 53.2286 50.9538 54 45.7808 54V51.0686ZM0 51.0686C4.55222 51.0686 8.71646 50.4257 12.4927 49.14C16.3207 47.8029 19.6056 45.7714 22.3472 43.0457C25.1406 40.2686 27.2874 36.7457 28.7876 32.4771C30.3395 28.2086 31.1154 23.1171 31.1154 17.2029V4.32H34.2192V17.2029C34.2192 23.22 33.3915 28.5429 31.7362 33.1714C30.1326 37.7486 27.8306 41.58 24.8303 44.6657C21.8817 47.7514 18.2865 50.0914 14.0446 51.6857C9.85451 53.2286 5.17297 54 0 54V51.0686ZM50.7468 25.4571H56.8768C56.7734 25.8686 56.644 26.3829 56.4888 27C56.3337 27.5657 56.1785 28.0286 56.0233 28.3886H50.7468V25.4571ZM4.96605 25.4571H11.096C10.9926 25.8686 10.8632 26.3829 10.7081 27C10.5529 27.5657 10.3977 28.0286 10.2425 28.3886H4.96605V25.4571Z" fill="#EB044F" fill-opacity="0.04"/>
</svg>
