<svg width="20" height="22" viewBox="0 0 20 22" fill="none" xmlns="http://www.w3.org/2000/svg">
<path fill-rule="evenodd" clip-rule="evenodd" d="M4 1.76001C2.74764 1.76001 1.75 2.76074 1.75 3.97998V14.89C1.75 16.1093 2.74764 17.11 4 17.11H4.75C5.73266 17.11 6.69436 17.4946 7.39871 18.198C7.39925 18.1986 7.39979 18.1991 7.40033 18.1996L9.1069 19.8863C9.10694 19.8863 9.10686 19.8863 9.1069 19.8863C9.59472 20.3677 10.3949 20.3679 10.8828 19.8866M10.8828 19.8866L12.5897 18.1996C12.5902 18.1991 12.5908 18.1985 12.5914 18.1979C13.2948 17.4954 14.2461 17.11 15.24 17.11H16C17.2507 17.11 18.25 16.1009 18.25 14.89V3.97998C18.25 2.76074 17.2524 1.76001 16 1.76001H4M0.25 3.97998C0.25 1.91923 1.93236 0.26001 4 0.26001H16C18.0676 0.26001 19.75 1.91923 19.75 3.97998V14.89C19.75 16.9391 18.0693 18.61 16 18.61H15.24C14.6347 18.61 14.0667 18.8439 13.6503 19.2603L13.6472 19.2634L11.9372 20.9535C10.8651 22.0118 9.12519 22.0121 8.0531 20.9538L6.34278 19.2634L6.33966 19.2603C5.92416 18.8448 5.34659 18.61 4.75 18.61H4C1.93236 18.61 0.25 16.9508 0.25 14.89V3.97998Z" fill="#292D32"/>
<path fill-rule="evenodd" clip-rule="evenodd" d="M6.69 7.21997C6.17425 7.21997 5.75 7.64421 5.75 8.16003C5.75 8.57425 5.41421 8.91003 5 8.91003C4.58579 8.91003 4.25 8.57425 4.25 8.16003C4.25 6.81586 5.34575 5.71997 6.69 5.71997C8.03425 5.71997 9.13 6.81586 9.13 8.16003C9.13 9.53607 8.10678 10.2591 7.39566 10.7471C7.36158 10.7705 7.32799 10.7936 7.29488 10.8162C6.64348 11.2626 6.17974 11.5804 5.93869 12.02H8.38C8.79422 12.02 9.13 12.3558 9.13 12.77C9.13 13.1842 8.79422 13.52 8.38 13.52H5.7C4.88237 13.52 4.10508 12.7283 4.40658 11.7987L4.40768 11.7952L4.40769 11.7952C4.76508 10.711 5.70133 10.0805 6.36399 9.63429C6.42772 9.59138 6.48893 9.55016 6.54684 9.51041C7.31823 8.98098 7.63 8.664 7.63 8.16003C7.63 7.64421 7.20575 7.21997 6.69 7.21997Z" fill="#292D32"/>
<path fill-rule="evenodd" clip-rule="evenodd" d="M12.3273 6.33731C12.6485 5.83258 13.2606 5.61049 13.8222 5.76775C14.4051 5.93095 14.79 6.46315 14.79 7.05003V10.5699H15C15.4142 10.5699 15.75 10.9057 15.75 11.3199C15.75 11.7341 15.4142 12.0699 15 12.0699H14.79V12.76C14.79 13.1742 14.4542 13.51 14.04 13.51C13.6258 13.51 13.29 13.1742 13.29 12.76V12.0699H11.33C10.842 12.0699 10.3798 11.8156 10.1309 11.3858C9.88637 10.9633 9.88637 10.4267 10.1309 10.0042L10.133 10.0007L10.133 10.0007C10.8133 8.84018 11.5974 7.51313 12.3228 6.34445L12.3272 6.33729L12.3273 6.33731ZM13.29 10.5699V7.63411C12.7039 8.59171 12.0927 9.62493 11.5381 10.5699H13.29Z" fill="#292D32"/>
</svg>
