<svg width="16" height="16" viewBox="0 0 16 16" fill="none" xmlns="http://www.w3.org/2000/svg">
<path d="M14.9423 7.61112C14.9449 8.63769 14.7061 9.65036 14.2452 10.5667C13.6986 11.6647 12.8585 12.5882 11.8188 13.2339C10.7791 13.8795 9.58088 14.2217 8.35842 14.2222C7.33609 14.2249 6.32758 13.9851 5.41505 13.5222L1 15L2.47168 10.5667C2.01076 9.65036 1.7719 8.63769 1.77457 7.61112C1.77504 6.3836 2.11586 5.18046 2.75883 4.13644C3.40181 3.09243 4.32156 2.24879 5.41505 1.70002C6.32758 1.23719 7.33609 0.997346 8.35842 1.00002H8.7457C10.3602 1.08946 11.8851 1.77372 13.0284 2.9218C14.1718 4.06987 14.8532 5.60108 14.9423 7.22223V7.61112Z" stroke="#525257" stroke-width="1.5" stroke-linecap="round" stroke-linejoin="round"/>
</svg>
