<svg width="50" height="50" viewBox="0 0 50 50" fill="none" xmlns="http://www.w3.org/2000/svg">
<path d="M25.0001 16.4375L22.771 20.3125C22.271 21.1667 22.6876 21.875 23.6668 21.875H26.3126C27.3126 21.875 27.7085 22.5833 27.2085 23.4375L25.0001 27.3125" stroke="#EB044F" stroke-width="2" stroke-linecap="round" stroke-linejoin="round"/>
<path d="M17.2926 37.5835V35.1668C12.501 32.271 8.56348 26.6252 8.56348 20.6252C8.56348 10.3127 18.0426 2.22933 28.751 4.56266C33.4593 5.60433 37.5843 8.72933 39.7301 13.0418C44.0843 21.7918 39.501 31.0835 32.7718 35.146V37.5627C32.7718 38.1668 33.001 39.5627 30.7718 39.5627H19.2926C17.001 39.5835 17.2926 38.6877 17.2926 37.5835Z" stroke="#EB044F" stroke-width="2" stroke-linecap="round" stroke-linejoin="round"/>
<path d="M17.709 45.8333C22.4798 44.4791 27.5215 44.4791 32.2923 45.8333" stroke="#EB044F" stroke-width="2" stroke-linecap="round" stroke-linejoin="round"/>
</svg>
