<svg width="54" height="64" viewBox="0 0 54 64" fill="none" xmlns="http://www.w3.org/2000/svg">
<path d="M52 26.5455C52 45.6364 27 62 27 62C27 62 2 45.6364 2 26.5455C2 20.0356 4.63392 13.7924 9.32233 9.1892C14.0107 4.58603 20.3696 2 27 2C33.6304 2 39.9893 4.58603 44.6777 9.1892C49.3661 13.7924 52 20.0356 52 26.5455Z" stroke="#EB044F" stroke-width="3" stroke-linecap="round" stroke-linejoin="round"/>
<path d="M26.9993 34.7272C31.6017 34.7272 35.3327 31.064 35.3327 26.5453C35.3327 22.0267 31.6017 18.3635 26.9993 18.3635C22.397 18.3635 18.666 22.0267 18.666 26.5453C18.666 31.064 22.397 34.7272 26.9993 34.7272Z" stroke="#EB044F" stroke-width="3" stroke-linecap="round" stroke-linejoin="round"/>
</svg>
