<svg width="36" height="36" viewBox="0 0 36 36" fill="none" xmlns="http://www.w3.org/2000/svg">
<path d="M16.4551 3H13.4551C5.95508 3 2.95508 6 2.95508 13.5V22.5C2.95508 30 5.95508 33 13.4551 33H22.4551C29.9551 33 32.9551 30 32.9551 22.5V19.5" stroke="#EB044F" stroke-width="2" stroke-linecap="round" stroke-linejoin="round"/>
<path d="M32.8202 5.33984C30.9752 9.94484 26.3402 16.2148 22.4702 19.3198L20.1002 21.2098C19.8002 21.4348 19.5002 21.6148 19.1552 21.7498C19.1552 21.5248 19.1402 21.2998 19.1102 21.0598C18.9752 20.0548 18.5252 19.1098 17.7152 18.3148C16.8902 17.4898 15.9002 17.0248 14.8802 16.8898C14.6402 16.8748 14.4002 16.8598 14.1602 16.8748C14.2952 16.4998 14.4902 16.1548 14.7452 15.8698L16.6352 13.4998C19.7402 9.62984 26.0252 4.96484 30.6152 3.11984C31.3202 2.84984 32.0102 3.05984 32.4452 3.49484C32.8952 3.94484 33.1052 4.63484 32.8202 5.33984Z" stroke="#EB044F" stroke-width="2" stroke-linecap="round" stroke-linejoin="round"/>
<path d="M19.1701 21.735C19.1701 23.055 18.6601 24.315 17.7151 25.275C16.9801 26.01 15.9901 26.52 14.8051 26.67L11.8501 26.985C10.2451 27.165 8.86514 25.8 9.04514 24.165L9.36014 21.21C9.64514 18.585 11.8351 16.905 14.1751 16.86C14.4151 16.845 14.6551 16.86 14.8951 16.875C15.9151 17.01 16.9051 17.475 17.7301 18.3C18.5401 19.11 18.9901 20.04 19.1251 21.045C19.1551 21.285 19.1701 21.525 19.1701 21.735Z" stroke="#EB044F" stroke-width="2" stroke-linecap="round" stroke-linejoin="round"/>
<path d="M23.7299 17.9699C23.7299 14.8349 21.1949 12.2849 18.0449 12.2849" stroke="#EB044F" stroke-width="2" stroke-linecap="round" stroke-linejoin="round"/>
</svg>
