<svg width="36" height="36" viewBox="0 0 36 36" fill="none" xmlns="http://www.w3.org/2000/svg">
<path d="M16.455 3H13.455C5.95502 3 2.95502 6 2.95502 13.5V22.5C2.95502 30 5.95502 33 13.455 33H22.455C29.955 33 32.955 30 32.955 22.5V19.5" stroke="white" stroke-width="2" stroke-linecap="round" stroke-linejoin="round"/>
<path d="M32.82 5.33996C30.975 9.94496 26.34 16.215 22.47 19.32L20.1 21.21C19.8 21.435 19.5 21.615 19.155 21.75C19.155 21.525 19.14 21.3 19.11 21.06C18.975 20.055 18.525 19.11 17.715 18.315C16.89 17.49 15.9 17.025 14.88 16.89C14.64 16.875 14.4 16.86 14.16 16.875C14.295 16.5 14.49 16.155 14.745 15.87L16.635 13.5C19.74 9.62996 26.025 4.96496 30.615 3.11996C31.32 2.84996 32.01 3.05996 32.445 3.49496C32.895 3.94496 33.105 4.63496 32.82 5.33996Z" stroke="white" stroke-width="2" stroke-linecap="round" stroke-linejoin="round"/>
<path d="M19.17 21.735C19.17 23.055 18.66 24.315 17.715 25.275C16.98 26.01 15.99 26.52 14.805 26.67L11.85 26.985C10.245 27.165 8.86502 25.8 9.04502 24.165L9.36002 21.21C9.64502 18.585 11.835 16.905 14.175 16.86C14.415 16.845 14.655 16.86 14.895 16.875C15.915 17.01 16.905 17.475 17.73 18.3C18.54 19.11 18.99 20.04 19.125 21.045C19.155 21.285 19.17 21.525 19.17 21.735Z" stroke="white" stroke-width="2" stroke-linecap="round" stroke-linejoin="round"/>
<path d="M23.73 17.9699C23.73 14.8349 21.195 12.2849 18.045 12.2849" stroke="white" stroke-width="2" stroke-linecap="round" stroke-linejoin="round"/>
</svg>
