<svg width="64" height="64" viewBox="0 0 64 64" fill="none" xmlns="http://www.w3.org/2000/svg">
<path d="M39.1641 13.4678C41.9697 14.0142 44.5481 15.3837 46.5694 17.4011C48.5907 19.4185 49.9628 21.992 50.5102 24.7923M39.1641 2C44.993 2.64632 50.4286 5.25163 54.5783 9.38817C58.728 13.5247 61.3451 18.9466 62 24.7636M59.1276 47.6419V56.2428C59.1308 57.0413 58.9669 57.8316 58.6464 58.5632C58.326 59.2948 57.8559 59.9515 57.2664 60.4913C56.6769 61.031 55.981 61.442 55.2232 61.6978C54.4654 61.9536 53.6624 62.0486 52.8656 61.9767C44.0266 61.0181 35.5361 58.0035 28.0764 53.1752C21.1361 48.7734 15.2519 42.9005 10.8417 35.9734C5.98723 28.4941 2.96618 19.9787 2.02331 11.1169C1.95153 10.3241 2.04594 9.52507 2.30051 8.77067C2.55508 8.01628 2.96424 7.32305 3.50195 6.73513C4.03966 6.1472 4.69413 5.67747 5.42369 5.35584C6.15325 5.0342 6.94192 4.86771 7.73948 4.86696H16.3568C17.7508 4.85326 19.1023 5.34596 20.1593 6.25322C21.2162 7.16048 21.9066 8.4204 22.1017 9.79812C22.4654 12.5506 23.14 15.2532 24.1124 17.8543C24.4989 18.8804 24.5825 19.9956 24.3534 21.0678C24.1244 22.1399 23.5921 23.1241 22.8198 23.9035L19.1718 27.5446C23.2609 34.7221 29.2152 40.665 36.4065 44.7463L40.0545 41.1053C40.8355 40.3345 41.8215 39.8033 42.8957 39.5746C43.9699 39.3459 45.0873 39.4294 46.1154 39.8152C48.7215 40.7858 51.4292 41.459 54.1869 41.822C55.5823 42.0185 56.8566 42.72 57.7675 43.793C58.6785 44.8661 59.1625 46.2359 59.1276 47.6419Z" stroke="#EB044F" stroke-width="3" stroke-linecap="round" stroke-linejoin="round"/>
</svg>
