<svg width="18" height="18" viewBox="0 0 18 18" fill="none" xmlns="http://www.w3.org/2000/svg">
<path d="M9.00757 0C4.03279 0 0 4.02609 0 8.99262C0 12.8043 2.37242 16.0608 5.7231 17.3707C5.64105 16.6605 5.57519 15.5647 5.75232 14.7878C5.91537 14.0843 6.80489 10.317 6.80489 10.317C6.80489 10.317 6.53832 9.77695 6.53832 8.98488C6.53832 7.73402 7.2648 6.80168 8.16911 6.80168C8.93996 6.80168 9.31112 7.3793 9.31112 8.06766C9.31112 8.83723 8.82199 9.99211 8.56211 11.0654C8.3473 11.9609 9.01426 12.6935 9.89639 12.6935C11.498 12.6935 12.7287 11.006 12.7287 8.57812C12.7287 6.4241 11.1796 4.92188 8.96285 4.92188C6.39816 4.92188 4.89273 6.83895 4.89273 8.82246C4.89273 9.59203 5.18959 10.4214 5.5597 10.8731C5.63471 10.961 5.64245 11.0426 5.61992 11.1312C5.55301 11.4124 5.39771 12.0266 5.36743 12.1528C5.33045 12.3156 5.23361 12.3521 5.06317 12.2713C3.9363 11.7457 3.23165 10.1099 3.23165 8.7852C3.23165 5.9502 5.29242 3.34547 9.1847 3.34547C12.3061 3.34547 14.737 5.56629 14.737 8.54156C14.737 11.5168 12.7801 14.1374 10.0665 14.1374C9.15442 14.1374 8.29412 13.6635 8.00571 13.101C8.00571 13.101 7.55356 14.8177 7.44228 15.2399C7.24261 16.0242 6.69326 17.0016 6.3228 17.601C7.16866 17.859 8.05889 18 8.99278 18C13.9676 18 18.0004 13.9739 18.0004 9.00738C18.0148 4.02609 13.9824 0 9.00757 0Z" fill="white"/>
</svg>
