<svg width="17" height="13" viewBox="0 0 17 13" fill="none" xmlns="http://www.w3.org/2000/svg">
<path d="M0.414773 13V9.80398C0.414773 8.83333 0.586411 7.8035 0.929688 6.71449C1.2848 5.61364 1.7938 4.55421 2.45668 3.53622C3.13139 2.50639 3.94223 1.61269 4.8892 0.855113L7.16193 2.7017C6.41619 3.76704 5.76515 4.87973 5.20881 6.03977C4.6643 7.18797 4.39205 8.41903 4.39205 9.73295V13H0.414773ZM9.50568 13V9.80398C9.50568 8.83333 9.67732 7.8035 10.0206 6.71449C10.3757 5.61364 10.8847 4.55421 11.5476 3.53622C12.2223 2.50639 13.0331 1.61269 13.9801 0.855113L16.2528 2.7017C15.5071 3.76704 14.8561 4.87973 14.2997 6.03977C13.7552 7.18797 13.483 8.41903 13.483 9.73295V13H9.50568Z" fill="#EB044F"/>
</svg>
