<svg width="416" height="458" viewBox="0 0 416 458" fill="none" xmlns="http://www.w3.org/2000/svg">
<path opacity="0.1" d="M7.66719 65.1148C16.4048 85.0918 16.467 106.123 14.8242 127.471C13.2428 148.016 10.9849 168.969 16.6021 189.134C28.1811 230.709 65.1296 259.511 101.951 278.354C143.108 299.407 189.286 312.737 225.249 342.833C242.887 357.596 257.32 377.192 260.575 400.438C263.268 419.699 256.433 437.254 244.66 452.234C237.969 460.744 230.257 468.311 222.433 475.778L225.657 479.534C227.875 477.42 230.092 475.305 232.256 473.158C244.871 460.711 257.242 446.918 262.931 429.793C269.386 410.337 265.67 388.871 255.848 371.208C243.869 349.65 223.967 333.708 203.121 321.197C183.036 309.14 161.419 299.953 140.009 290.576C99.1364 272.679 55.212 251.656 31.6214 211.639C26.1022 202.276 21.999 192.106 19.8837 181.441C17.7869 170.906 17.6781 160.154 18.2245 149.459C19.2807 128.549 22.7772 107.441 19.2562 86.5717C15.6133 64.9764 4.67897 44.6049 -11.2467 29.611C-11.2663 29.5882 -11.2858 29.5654 -11.3194 29.5416L-15.1668 32.8435C-5.48812 41.8791 2.30992 52.8844 7.66719 65.1148Z" fill="#EB044F"/>
<path opacity="0.1" d="M-32.3217 134.448C-14.7254 182.389 32.393 211.372 68.8246 227.242C87.5758 235.41 107.267 242.138 126.315 248.64C150.976 257.06 176.473 265.764 200.094 277.671C223.149 289.287 277.525 322.319 284.466 377.851C288.454 409.798 275.716 445.32 246.606 483.429C243.871 487.015 241.026 490.563 238.168 494.097L238.833 494.871C241.737 491.284 244.622 487.675 247.403 484.036C276.679 445.72 289.484 409.955 285.46 377.736C278.458 321.717 223.743 288.474 200.545 276.784C176.861 264.85 151.331 256.123 126.635 247.693C107.601 241.192 87.931 234.472 69.221 226.322C32.9608 210.529 -13.9221 181.713 -31.387 134.094C-37.6095 117.124 -39.7429 98.6082 -41.8021 80.7008C-42.6648 73.2314 -43.5427 65.6828 -44.7156 58.1897L-45.6111 58.9582C-44.486 66.242 -43.6407 73.5683 -42.8042 80.823C-40.7352 98.7878 -38.5997 117.368 -32.3293 134.455L-32.3217 134.448Z" fill="#EB044F"/>
</svg>
