<svg width="221" height="162" viewBox="0 0 221 162" fill="none" xmlns="http://www.w3.org/2000/svg">
<path opacity="0.1" d="M80.29 153.5C58.76 149.61 37.46 141.21 22.33 124.87C15.5 117.49 10.12 108.67 7.34001 98.97C4.81001 90.15 4.50001 80.92 5.51001 71.84C7.61001 53.05 14.97 35.24 20.63 17.35C23.74 7.52 26.53 -2.69 27.67 -13H22.68C22.54 -11.8 22.38 -10.61 22.19 -9.42C19.18 9.73 11.47 27.75 6.00001 46.25C0.780006 63.93 -2.69999 83.02 2.76001 101.09C8.78001 121.02 24.38 136.84 42.55 146.32C63.5 157.26 87.57 160.78 110.94 161.51C136.72 162.32 162.42 159.52 188.12 157.9C199.06 157.21 210.25 156.78 221.45 156.95V151.83C174.4 151.16 127.1 161.96 80.29 153.49V153.5Z" fill="#FF3E56"/>
</svg>
