<svg width="69" height="69" viewBox="0 0 69 69" fill="none" xmlns="http://www.w3.org/2000/svg">
<path fill-rule="evenodd" clip-rule="evenodd" d="M49.433 13.5507C49.2547 13.3892 49.0904 13.2225 48.9427 13.0594C48.5018 12.5659 48.9366 12.1323 48.971 12.0991C49.0432 12.0298 49.3777 11.7337 49.8182 12.0214C49.8447 12.0383 50.0136 12.1839 50.0776 12.2412C50.2136 12.3637 50.3441 12.4873 50.4543 12.6322C50.6871 12.8319 50.9455 13.0186 51.2227 13.1598C51.6304 13.3699 52.0752 13.4949 52.5147 13.3581C53.3022 13.1151 53.9666 12.4255 54.601 11.9274C54.8659 11.7194 55.2432 11.7356 55.4898 11.965C55.7349 12.1962 55.7762 12.5711 55.5853 12.8496C55.0105 13.6894 54.8435 15.1469 54.8461 16.1829C54.8468 16.5013 55.0488 17.0586 55.0932 17.5007C55.1278 17.8561 55.0804 18.1651 54.9638 18.386C54.9181 18.4722 54.6274 18.9112 54.085 18.6985C53.9337 18.6378 53.2178 18.2428 53.1398 18.1941C52.6893 17.9188 52.2406 17.7192 51.7089 17.6744C51.2477 17.6358 50.7734 17.6738 50.3454 17.8607C50.1728 17.936 50.0072 18.0279 49.8405 18.1186C49.7901 18.1583 49.6472 18.2696 49.587 18.2995C49.4649 18.3609 49.3495 18.3808 49.2535 18.3815C49.0714 18.3832 48.9167 18.3222 48.7856 18.2077C48.6979 18.1333 48.6128 18.026 48.5637 17.8616C48.5311 17.7425 48.5147 17.5305 48.617 17.2794C48.724 17.0168 49.0467 16.5454 49.0981 16.4554C49.4563 15.8299 49.7357 15.1454 49.7627 14.4181C49.7754 14.0552 49.63 13.8238 49.433 13.5507ZM51.1182 14.5993C51.7018 14.8016 52.316 14.8483 52.9182 14.6616C53.1671 14.5853 53.4096 14.4736 53.6437 14.3409C53.5304 14.9822 53.4803 15.632 53.4806 16.1874C53.4812 16.3677 53.5297 16.6117 53.5861 16.8765C53.0351 16.5718 52.47 16.3687 51.8221 16.3142C51.4393 16.2829 51.0519 16.2919 50.6736 16.355C50.9133 15.7977 51.0786 15.2081 51.1182 14.5993Z" fill="#35312B"/>
<path fill-rule="evenodd" clip-rule="evenodd" d="M53.0985 37.2601C56.8391 33.6799 60.3925 29.7528 65.138 27.4939C65.4786 27.3323 65.6224 26.9235 65.4624 26.5846C65.3008 26.244 64.892 26.1002 64.5515 26.2618C59.6726 28.5837 55.9988 32.593 52.1555 36.2731C51.8827 36.5343 51.874 36.9653 52.1335 37.2365C52.3947 37.5093 52.8257 37.518 53.0985 37.2601Z" fill="#35312B"/>
<path fill-rule="evenodd" clip-rule="evenodd" d="M47.4681 32.1974C47.5541 30.0205 48.0042 28.0008 49.1084 26.1154C49.2982 25.791 49.1882 25.3734 48.8641 25.1823C48.5383 24.9928 48.1214 25.1008 47.93 25.4269C46.7094 27.5108 46.1997 29.7376 46.1047 32.143C46.0897 32.5196 46.3829 32.8371 46.7591 32.8522C47.1353 32.8673 47.453 32.5739 47.4681 32.1974Z" fill="#35312B"/>
<path fill-rule="evenodd" clip-rule="evenodd" d="M32.7682 23.8662C31.5046 21.5718 31.1295 19.1605 31.6842 16.5902C31.7632 16.2227 31.5295 15.8585 31.1605 15.78C30.7931 15.6998 30.4293 15.9346 30.3505 16.3023C29.7229 19.2076 30.1451 21.932 31.573 24.5249C31.7553 24.854 32.17 24.9748 32.4999 24.793C32.8298 24.6111 32.9505 24.1953 32.7682 23.8662Z" fill="#35312B"/>
<path fill-rule="evenodd" clip-rule="evenodd" d="M12.0914 39.6801C12.1498 40.3415 12.2671 40.9974 12.447 41.6387C12.5493 42.0101 12.864 42.7984 13.304 43.1562C13.6341 43.4238 14.019 43.5246 14.4452 43.3841C15.1263 43.1603 15.4591 42.7695 15.5976 42.3522C15.7308 41.9521 15.6831 41.4811 15.4641 40.9999C15.0725 40.1415 14.0992 39.227 13.4105 38.7789C13.4028 38.1294 13.4554 37.4789 13.5626 36.838C14.3906 31.9114 19.374 28.4356 25.6814 28.2227C27.8915 28.1476 30.687 29.849 33.4011 31.983C37.6619 35.3294 41.6655 39.8254 42.8779 41.1029C43.1982 41.4378 43.4282 41.5962 43.4831 41.6188C43.7875 41.7421 44.0043 41.6371 44.136 41.5467C44.3206 41.4192 44.4136 41.2647 44.4615 41.1102C44.5253 40.9042 44.5132 40.6675 44.3708 40.423C44.2976 40.2987 44.1681 40.1538 44.018 40.0109C43.928 39.9276 43.8123 39.8542 43.7678 39.7745C43.4557 39.2135 43.1792 38.6366 42.8952 38.0618C41.9396 36.1285 41.2211 34.1392 40.5715 32.0837C38.5113 25.543 36.1273 18.8372 36.5266 11.8761C36.5484 11.4999 36.2619 11.1762 35.8857 11.1547C35.5097 11.1333 35.1866 11.4214 35.1648 11.7976C34.7552 18.925 37.1595 25.7986 39.2711 32.4931C39.7609 34.0494 40.2922 35.5668 40.9297 37.0518C38.5691 34.6247 35.2602 31.4462 32.0458 29.3084C29.7552 27.7822 27.4961 26.7944 25.6359 26.8584C18.5991 27.0961 13.1402 31.1159 12.2169 36.6118C12.1255 37.153 12.0707 37.6987 12.0514 38.2474C7.35812 36.9833 2.60521 39.3856 0.895901 43.9964C0.766105 44.3486 0.945654 44.7423 1.2991 44.8728C1.65255 45.0032 2.04534 44.823 2.17513 44.4709C3.68223 40.4065 7.95846 38.3608 12.0914 39.6801ZM13.6228 40.7104C13.6632 40.8983 13.7093 41.0854 13.761 41.2716C13.7964 41.4031 13.8696 41.6204 13.9752 41.825C14.0131 41.8949 14.0852 41.9923 14.1307 42.0504C14.2185 42.019 14.2814 41.9855 14.3033 41.9206C14.3383 41.8142 14.28 41.6952 14.2213 41.5662C14.0905 41.2788 13.8701 40.979 13.6228 40.7104Z" fill="#35312B"/>
</svg>
