<svg width="105" height="56" viewBox="0 0 105 56" fill="none" xmlns="http://www.w3.org/2000/svg">
<path fill-rule="evenodd" clip-rule="evenodd" d="M44.9486 33.5498C45.3492 33.3683 45.7295 33.106 46.1091 32.8439C48.1928 31.5745 50.6326 30.134 52.2279 28.2116C54.3121 25.6587 54.7741 23.238 54.2287 21.0586C53.4586 17.9919 50.4345 15.3801 46.8612 14.183C43.3163 12.9791 39.266 13.0939 36.4506 15.052C34.5157 16.3713 33.1258 18.5867 32.8723 21.8987C32.5636 25.6518 34.2932 28.7453 37.0052 31.1755C38.0324 32.1272 39.1745 32.88 40.4089 33.6109C39.149 34.1695 37.8763 34.7315 36.5848 35.2977C32.3213 37.004 27.7157 38.279 23.2033 39.1037C17.253 40.2731 11.3256 40.4097 5.3372 39.4491C4.79514 39.4079 4.27725 39.7889 4.18647 40.324C4.09648 40.8589 4.47167 41.3676 5.03312 41.4897C11.2553 42.4798 17.4238 42.3711 23.6055 41.1464C28.228 40.2097 32.9872 38.9829 37.36 37.1649C39.1661 36.3898 40.9374 35.6232 42.6683 34.7806C45.5125 36.0669 48.526 36.8849 51.0049 37.232C67.5181 39.2638 86.1623 27.01 98.1504 16.4366C98.5729 16.0787 98.6199 15.468 98.2495 15.0434C97.8783 14.619 97.2432 14.6001 96.8207 14.958C85.2153 25.183 67.2421 37.1911 51.2548 35.2044C49.3746 34.9705 47.1425 34.393 44.9486 33.5498ZM42.6188 32.4822C43.4458 32.1129 44.2478 31.6645 45.028 31.1353C46.9232 29.9111 49.2003 28.681 50.671 26.9596C52.2469 25.0419 52.6818 23.2258 52.2778 21.6114C51.6306 19.0286 49.0989 17.0688 46.2165 16.1339C43.2872 15.1248 39.9263 15.0744 37.6143 16.7408C36.1188 17.7837 35.0867 19.4859 34.8812 22.0164C34.6383 25.1548 36.1325 27.7052 38.3543 29.654C39.6072 30.8083 41.0746 31.74 42.6188 32.4822Z" fill="black"/>
<path fill-rule="evenodd" clip-rule="evenodd" d="M98.0683 15.4308C97.8796 15.9038 97.5493 16.4107 97.2183 16.9179C96.5893 17.9242 95.8916 18.8616 95.5872 19.6191C93.6876 24.1812 91.4665 29.6758 91.0878 34.6435C91.0367 35.1691 91.4564 35.6674 92.0131 35.7052C92.5689 35.7431 93.0666 35.3673 93.0984 34.7607C93.4753 30.0502 95.6493 24.8229 97.4541 20.369C97.7958 19.6026 98.6345 18.461 99.2837 17.4498C99.8244 16.5502 100.22 15.6851 100.253 14.9072C100.302 14.4677 99.9653 13.7783 98.9379 13.5112C97.4914 13.1734 93.7694 13.4659 93.4029 13.4682C89.6925 13.5018 86.4046 13.4343 83.4474 10.8917C83.0309 10.5638 82.3941 10.631 82.013 10.979C81.6512 11.4079 81.7092 12.0787 82.1266 12.4064C85.4914 15.2791 89.2283 15.5812 93.4501 15.5107C93.7058 15.4494 95.9267 15.2594 97.5327 15.3879C97.7131 15.4302 97.8903 15.3879 98.0683 15.4308Z" fill="black"/>
</svg>
