<svg width="93" height="97" viewBox="0 0 93 97" fill="none" xmlns="http://www.w3.org/2000/svg">
<path d="M25.8382 66.5575C30.9363 81.2427 50.8691 87.6622 65.5542 82.5641C80.2394 77.466 88.0113 61.4285 82.9132 46.7433C77.8151 32.0582 67.9625 20.6573 53.2774 25.7554C38.5922 30.8535 20.7401 51.8723 25.8382 66.5575Z" fill="#C9F31D"/>
<mask id="mask0_264_530" style="mask-type:alpha" maskUnits="userSpaceOnUse" x="1" y="20" width="84" height="65">
<path d="M29.7332 65.2052C34.8313 79.8904 50.8688 87.6622 65.554 82.5641C80.2392 77.466 88.011 61.4285 82.9129 46.7433C77.8148 32.0582 20.0643 16.5697 5.37908 21.6678C-9.30609 26.7659 24.6351 50.52 29.7332 65.2052Z" fill="#FFCB3C"/>
</mask>
<g mask="url(#mask0_264_530)">
<path fill-rule="evenodd" clip-rule="evenodd" d="M58.2546 51.3151C59.6589 50.0548 61.4682 49.2728 63.7231 49.1613C71.4228 48.7802 76.1758 53.2333 78.8112 59.5889C82.5134 68.5225 81.8611 81.3285 79.7228 88.3214C79.4727 89.1383 78.6073 89.5976 77.7909 89.3489C76.9754 89.0984 76.5147 88.2335 76.7648 87.4165C78.7475 80.9328 79.3873 69.0577 75.9533 60.7742C73.8307 55.6502 70.0817 51.9437 63.8753 52.25C62.5331 52.3166 61.4414 52.7512 60.5653 53.4483C61.1153 53.9858 61.6513 54.5299 62.1712 55.0796C64.2503 57.2817 68.5187 63.9183 69.7135 69.4725C70.6581 73.8676 69.7162 77.5818 65.5692 78.897C63.1951 79.6508 60.9659 78.8319 59.1151 76.8631C56.8332 74.4351 55.1317 70.0997 54.5713 65.5712C54.104 61.806 54.4238 57.9263 55.725 54.9403C55.9071 54.5219 56.108 54.1198 56.3268 53.7361C45.262 43.9712 28.9886 36.9953 14.6304 36.6019C13.7776 36.5787 13.1051 35.8676 13.1278 35.0133C13.1509 34.1605 13.8635 33.4875 14.7163 33.5107C29.6924 33.9203 46.6636 41.1566 58.2546 51.3151ZM58.6757 55.928C59.1001 56.3487 59.5163 56.774 59.9207 57.2033C61.7872 59.1796 65.6168 65.1369 66.6896 70.1228C67.2568 72.7613 67.1217 75.1591 64.6327 75.9496C63.4118 76.3374 62.3198 75.7572 61.3691 74.7447C60.1077 73.4031 59.1073 71.3373 58.424 69.0059C57.3662 65.3884 57.0889 61.1234 58.0239 57.7145C58.1965 57.0848 58.4121 56.4844 58.6757 55.928Z" fill="#35312B"/>
<path fill-rule="evenodd" clip-rule="evenodd" d="M30.7576 51.4799C27.3107 45.2293 20.4975 39.6709 14.1137 36.3962C13.3546 36.0065 13.054 35.0746 13.4432 34.3141C13.8329 33.555 14.7663 33.2539 15.5254 33.6436C22.4236 37.1834 29.7427 43.2324 33.4658 49.9863C33.8776 50.734 33.6051 51.675 32.8574 52.0868C32.1098 52.4986 31.1694 52.2275 30.7576 51.4799Z" fill="#35312B"/>
<path fill-rule="evenodd" clip-rule="evenodd" d="M15.3027 33.4082C21.0708 34.4851 28.5797 32.2811 33.4783 29.0187C34.1899 28.5457 35.151 28.7392 35.6234 29.4494C36.0959 30.1596 35.9038 31.1202 35.1927 31.5946C29.6843 35.2603 21.2203 37.66 14.7344 36.4492C13.8961 36.2932 13.3416 35.4838 13.499 34.645C13.6564 33.8062 14.4644 33.2523 15.3027 33.4082Z" fill="#35312B"/>
</g>
</svg>
