<svg width="78" height="78" viewBox="0 0 78 78" fill="none" xmlns="http://www.w3.org/2000/svg">
<path d="M42.4725 52.0255C42.4548 52.0851 42.4364 52.1442 42.4174 52.203C42.393 52.1085 42.3686 52.0123 42.3439 51.9149C42.2292 51.4631 42.1079 50.9856 41.951 50.5321L41.9509 50.5319C41.8633 50.2792 41.6566 50.1281 41.56 50.0596C41.5171 50.0292 41.4689 49.9975 41.4307 49.9724C41.419 49.9648 41.4083 49.9577 41.399 49.9515C41.3514 49.92 41.3218 49.8989 41.3012 49.8817L40.8791 49.5312L40.5692 49.984C40.5375 50.0303 40.4996 50.0831 40.4585 50.1405C40.3538 50.2865 40.228 50.462 40.1301 50.6332L40.1289 50.6352C40.0267 50.8159 40.046 51.0048 40.0519 51.0629L40.052 51.0634C40.0579 51.1207 40.0746 51.2138 40.0787 51.2371C40.0791 51.239 40.0793 51.2405 40.0795 51.2414C40.1452 51.6932 40.2088 52.1475 40.2726 52.6031C40.4374 53.7797 40.6035 54.9656 40.8097 56.1434L40.8098 56.1437C40.9118 56.7247 41.1988 57.2399 41.6813 57.4849C42.1938 57.7452 42.7676 57.6231 43.2427 57.2395C44.5337 56.1996 45.717 55.0203 46.8626 53.8486L46.863 53.8482C47.381 53.3171 47.6326 52.5188 47.2795 51.5724L47.0339 50.9139L46.4924 51.3619C46.0672 51.7136 45.661 52.0504 45.2646 52.379C45.0656 52.544 44.869 52.707 44.6738 52.8687C44.6772 52.8516 44.6804 52.8344 44.6836 52.8174C44.7782 52.3152 44.8863 51.8045 44.9957 51.2875C45.2613 50.0322 45.5349 48.7395 45.6429 47.4404C46.4464 37.8095 41.5581 28.2594 33.4784 23.5926L33.4779 23.5923C32.6649 23.1241 31.8033 22.7609 30.9734 22.4256C30.7223 22.3226 30.4703 22.3494 30.3145 22.3727C30.2541 22.3817 30.1889 22.3938 30.135 22.4038C30.1172 22.4071 30.1006 22.4102 30.0859 22.4128C30.0177 22.4251 29.968 22.4326 29.9263 22.4356L29.5614 22.462L29.4762 22.8178C29.4631 22.8722 29.4509 22.9259 29.4392 22.9768L29.439 22.978C29.4271 23.0299 29.4159 23.079 29.4041 23.128L29.3251 23.4581L29.6026 23.6534C29.7256 23.7399 29.8523 23.831 29.9814 23.9238C30.2228 24.0973 30.4722 24.2766 30.7195 24.4422L30.7205 24.4429C31.1013 24.6966 31.4775 24.9363 31.8486 25.1727C32.5606 25.6262 33.2538 26.0678 33.9248 26.5744L33.925 26.5745C41.8522 32.5543 45.2595 42.751 42.4729 52.0242L42.4725 52.0255Z" fill="#21D496" stroke="#21D496"/>
<path d="M38.0637 76.9906L38.0614 77.0911L38.1619 77.0929C38.4476 77.0979 38.7319 77.1013 39.0196 77.1013C39.1853 77.1013 39.351 77.0997 39.5177 77.098L39.5228 77.0979L39.6232 77.0969L39.6218 76.9966L39.6168 76.6255L39.6155 76.5249L39.5148 76.5269C39.3491 76.5303 39.185 76.5303 39.0196 76.5303C38.7363 76.5303 38.4552 76.5286 38.1744 76.5218L38.0743 76.5195L38.072 76.6196L38.0637 76.9906ZM40.7784 76.959L40.8785 76.9566L40.8832 77.0523C41.3334 77.0303 41.7902 76.9981 42.2417 76.9593L42.3413 76.9507L42.3328 76.8511L42.3011 76.4817L42.2925 76.382L42.1928 76.3906C41.7483 76.4293 41.2974 76.4613 40.855 76.4832L40.7551 76.4881L40.7601 76.588L40.7784 76.959ZM36.8765 77.0077L37.0323 76.8506L36.9096 76.8433L36.9254 76.5737L36.9312 76.474L36.8316 76.468C36.3856 76.4411 35.9363 76.4058 35.4952 76.3637L35.3956 76.3542L35.3862 76.4538L35.3511 76.8232L35.3417 76.9228L35.4413 76.9322C35.8562 76.9713 36.2783 77.0047 36.6983 77.0309L36.6886 77.1971L36.8748 77.0093L36.8765 77.0077ZM43.4837 76.7284L43.5839 76.7223L43.5953 76.8138C44.0436 76.758 44.497 76.6938 44.9438 76.621L45.0422 76.605L45.0265 76.5066L44.9681 76.1406L44.9523 76.0417L44.8535 76.0576C44.4142 76.1282 43.9665 76.1922 43.5254 76.2477L43.4266 76.2601L43.4386 76.359L43.4837 76.7284ZM46.1661 76.3004L46.2665 76.2907L46.2838 76.3775C46.7257 76.2895 47.1741 76.1897 47.6139 76.0849L47.7109 76.0618L47.688 75.9647L47.6029 75.6038L47.5799 75.5059L47.4822 75.5295C47.0496 75.6338 46.6087 75.7313 46.1728 75.8188L46.0751 75.8384L46.0944 75.9361L46.1661 76.3004ZM48.8107 75.6735L48.8374 75.7702L48.934 75.7433C49.3707 75.6215 49.8107 75.4896 50.239 75.3526L50.3335 75.3224L50.3041 75.2277L50.1939 74.8735L50.1641 74.7773L50.0681 74.8079C49.6454 74.9424 49.2127 75.072 48.7816 75.1931L48.6859 75.22L48.7123 75.3159L48.8107 75.6735ZM51.4024 74.8522L51.4555 75.0025L51.5536 74.9035C51.9715 74.7518 52.3941 74.5904 52.8055 74.4241L52.8977 74.3868L52.861 74.2944L52.7242 73.9504L52.6869 73.8566L52.5935 73.8947C52.1811 74.0628 51.7585 74.2243 51.3392 74.3756L51.2458 74.4094L51.2789 74.503L51.4024 74.8522ZM53.7777 73.4995L53.9178 73.8194V73.9545L54.0586 73.8914C54.4702 73.707 54.8869 73.5108 55.2935 73.3095L55.3824 73.2655L55.3391 73.1763L55.1773 72.8423L55.1334 72.7519L55.0432 72.7962C54.6419 72.9931 54.2342 73.1866 53.8284 73.3681L53.7379 73.4086L53.7777 73.4995ZM56.4571 72.6942H56.6233L56.5915 72.6341C56.9588 72.4339 57.3285 72.2253 57.6925 72.0107L57.7779 71.9604L57.7283 71.8745L57.5431 71.5541L57.4927 71.4668L57.4058 71.5179C57.0196 71.7451 56.6253 71.9688 56.2361 72.179L56.1487 72.2261L56.1952 72.3138L56.3688 72.641L56.4333 72.6068L56.4554 72.6942H56.4571ZM58.5214 70.9506L58.703 71.2399V71.3957L58.857 71.297C59.2369 71.0534 59.6182 70.7981 59.9928 70.5395L60.0741 70.4833L60.0189 70.4013L59.812 70.0944L59.7555 70.0107L59.6724 70.0679C59.3026 70.3221 58.9265 70.5744 58.5524 70.8131L58.4687 70.8665L58.5214 70.9506ZM60.9615 69.7168L61.1421 69.9636V69.706C61.4918 69.4431 61.8411 69.171 62.181 68.8974L62.2581 68.8354L62.1969 68.7576L61.9683 68.4675L61.9057 68.388L61.8269 68.4516C61.4792 68.7325 61.1214 69.01 60.7635 69.2793L60.6846 69.3387L60.7429 69.4183L60.9615 69.7168ZM63.0867 68.0091L63.1522 68.0858L63.2283 68.0197C63.5698 67.7236 63.9111 67.4141 64.2439 67.1031L64.3162 67.0355L64.2493 66.9625L63.9991 66.6892L63.9307 66.6146L63.8569 66.6839C63.5292 66.9916 63.1931 67.2943 62.8569 67.5871L62.7822 67.6521L62.8465 67.7274L63.0867 68.0091Z" fill="#EB044F" stroke="#EB044F" stroke-width="0.2"/>
<path d="M57.6404 7.69591L57.6642 7.71019H57.6919H57.6936H57.7509L57.7799 7.66077L57.9668 7.34199L58.0168 7.2566L57.9319 7.20567C57.5655 6.98578 57.189 6.7693 56.816 6.563L56.7278 6.51424L56.6797 6.60276L56.5029 6.92828L56.4555 7.01547L56.5423 7.06352C56.9102 7.2671 57.2795 7.47902 57.6404 7.69591ZM55.3525 6.4344L55.3863 6.36772L55.4873 6.39143L55.6525 6.05917L55.6967 5.97021L55.608 5.9254C55.2032 5.72078 54.79 5.52122 54.3784 5.3318L54.2868 5.28964L54.2454 5.3816L54.0936 5.71892L54.0528 5.80955L54.1431 5.8509C54.5473 6.03586 54.9549 6.2326 55.3525 6.4344ZM52.9501 5.31856L52.9684 5.22671L53.041 5.25629L53.1812 4.91222L53.2186 4.82033L53.127 4.78218C52.7088 4.60802 52.2821 4.43887 51.8587 4.28152L51.7642 4.24643L51.7298 4.34112L51.603 4.69025L51.5692 4.7833L51.6619 4.81803C52.0483 4.96275 52.436 5.11463 52.8185 5.27233L52.7997 5.31856H52.9484H52.9501ZM50.3959 4.37238L50.5273 4.41578V4.29166L50.6375 3.95428L50.6684 3.85966L50.5739 3.82832C50.1454 3.68621 49.7071 3.55092 49.2723 3.42413L49.1757 3.39596L49.1481 3.49276L49.0464 3.85032L49.0192 3.94593L49.1146 3.97372C49.5422 4.09816 49.9732 4.23274 50.3959 4.37238ZM47.8186 3.62392L47.8395 3.54024L47.9399 3.55237L48.0283 3.19143L48.052 3.09474L47.9555 3.07061C47.5155 2.9607 47.0688 2.85753 46.627 2.7645L46.5288 2.74382L46.5085 2.84208L46.4334 3.2047L46.4132 3.3025L46.5109 3.32288C46.9465 3.41363 47.3857 3.51621 47.8186 3.62392ZM45.1929 3.07053L45.2918 3.08757L45.3085 2.98862L45.3702 2.62262L45.3868 2.52418L45.2884 2.50741C44.8421 2.43137 44.3887 2.36032 43.9416 2.30109L43.8424 2.28794L43.8293 2.38717L43.7809 2.75486L43.7679 2.85382L43.8669 2.86702C44.3076 2.92587 44.7535 2.99483 45.1929 3.07053ZM42.5342 2.71397L42.6337 2.72343L42.6432 2.62386L42.6782 2.25449L42.6876 2.15526L42.5884 2.14553C42.1399 2.10154 41.6815 2.06603 41.2298 2.03897L41.1299 2.03298L41.124 2.13296L41.1023 2.50401L41.0965 2.60366L41.1961 2.60967C41.6421 2.63658 42.0914 2.67191 42.5342 2.71397Z" fill="#EB044F" stroke="#EB044F" stroke-width="0.2"/>
<path d="M6.22845 22.8314L6.28892 22.7491L6.36181 22.786C6.56493 22.3855 6.77631 21.9834 6.99262 21.5898L7.04028 21.503L6.95407 21.4545L6.63372 21.274L6.54548 21.2243L6.49689 21.3132C6.2779 21.7136 6.06208 22.1212 5.85785 22.529L5.8136 22.6174L5.90143 22.6627L6.22845 22.8314ZM7.52847 20.4513L7.61451 20.504L7.66646 20.4175C7.89792 20.032 8.13752 19.6452 8.38195 19.2704L8.43609 19.1873L8.35354 19.1325L8.04654 18.9284L7.96227 18.8724L7.90725 18.9573C7.65966 19.3395 7.41545 19.7318 7.18128 20.1223L7.13036 20.2073L7.21479 20.259L7.52847 20.4513ZM8.69874 17.9612L8.99054 18.1705L9.07054 18.2514L9.13927 18.1532C9.39712 17.7849 9.66503 17.4182 9.93467 17.0615L9.99429 16.9827L9.9161 16.9221L9.62412 16.6961L9.54424 16.6343L9.48322 16.7148C9.20885 17.0767 8.93615 17.4504 8.67515 17.8225L8.61833 17.9035L8.69874 17.9612ZM10.6908 16.037H10.9672L10.8297 15.9224L10.8528 15.8947L10.8531 15.8943C11.1111 15.5814 11.374 15.2718 11.6386 14.9708L11.7038 14.8965L11.6303 14.8304L11.3567 14.5842L11.2815 14.5165L11.2147 14.5925C10.9469 14.897 10.6793 15.2132 10.4185 15.5292L10.4182 15.5295L10.3298 15.6375L10.2669 15.7142L10.3432 15.7777L10.548 15.9482L10.4742 16.037H10.6875H10.6908ZM12.4083 13.9765L12.4374 14.0046H12.4778H12.4794H12.5226L12.5522 13.9732C12.8583 13.6486 13.1761 13.324 13.4955 13.0113L13.5663 12.9419L13.4975 12.8704L13.2405 12.6039L13.1704 12.5312L13.0984 12.6021C12.7755 12.92 12.4527 13.2497 12.1399 13.5794L12.0717 13.6513L12.143 13.7201L12.4083 13.9765ZM14.3305 12.0756L14.3979 12.1507L14.4724 12.0826C14.8017 11.7816 15.1428 11.4822 15.484 11.1929L15.5595 11.1288L15.4962 11.0527L15.2593 10.7676L15.1949 10.6901L15.1178 10.7552C14.7697 11.0496 14.425 11.3541 14.0905 11.6601L14.0173 11.727L14.0836 11.8007L14.3305 12.0756ZM16.3845 10.3224L16.5638 10.556V10.3084C16.9045 10.0411 17.2525 9.77715 17.599 9.52423L17.679 9.46578L17.6213 9.3852L17.406 9.08498L17.3472 9.00287L17.2657 9.06258C16.9011 9.32969 16.5347 9.60701 16.1766 9.88949L16.0992 9.95061L16.1593 10.0289L16.3845 10.3224Z" fill="#EB044F" stroke="#EB044F" stroke-width="0.2"/>
<path d="M64.4331 68.0385H64.329C64.0691 68.0385 63.8118 67.933 63.6215 67.7271L63.6207 67.7262C63.2618 67.334 63.2834 66.7202 63.6726 66.3562C66.9905 63.2503 69.6751 59.6001 71.6539 55.5074C74.1729 50.2974 75.4059 44.6942 75.3181 38.8532C75.1987 30.8327 72.5737 23.2545 67.7279 16.9339C64.9138 13.2632 61.4869 10.1995 57.5445 7.8275L57.5444 7.82742C57.0878 7.55231 56.9381 6.95805 57.2094 6.49795C57.4809 6.03752 58.0721 5.88266 58.5315 6.15949M64.4331 68.0385L64.5081 67.963L64.5064 67.9647L64.4412 68.0304M64.4331 68.0385L64.4412 68.0304M64.4331 68.0385L64.4412 68.0304M58.5315 6.15949L58.4025 6.37362M58.5315 6.15949C58.5315 6.15946 58.5314 6.15943 58.5314 6.15939L58.4025 6.37362M58.5315 6.15949C62.683 8.65671 66.2904 11.8807 69.2526 15.7459C74.3561 22.402 77.1203 30.3829 77.2463 38.8239C77.3386 44.9713 76.0405 50.8709 73.3872 56.3575C71.3048 60.6659 68.4767 64.5077 64.9855 67.7771M58.4025 6.37362C58.0638 6.16954 57.6267 6.28254 57.4248 6.62493C57.2229 6.96731 57.3347 7.40921 57.6734 7.61329L58.4025 6.37362ZM64.9855 67.7771L64.8146 67.5946L64.9855 67.777C64.9855 67.777 64.9855 67.7771 64.9855 67.7771ZM64.9855 67.7771C64.83 67.9227 64.6375 68.0073 64.4412 68.0304" fill="#EB044F" stroke="#EB044F" stroke-width="0.5"/>
<path d="M38.4214 0.750091L38.4221 0.750079C38.9559 0.743222 39.3905 1.17251 39.3994 1.70594C39.4084 2.24058 38.9845 2.68295 38.4513 2.69208L38.4508 2.69209C37.1252 2.71219 35.7912 2.806 34.4838 2.97015L34.4837 2.97016C28.5174 3.71714 22.7774 5.98505 17.8825 9.52774L17.7359 9.32522M38.4214 0.750091L17.3205 9.45847C17.0986 9.45847 16.8783 9.35389 16.7398 9.15656C16.5113 8.83273 16.5847 8.3824 16.905 8.15133C22.0257 4.44583 28.0339 2.07275 34.2758 1.29016M38.4214 0.750091C37.0261 0.772156 35.6222 0.868899 34.2447 1.0421M38.4214 0.750091L34.2758 1.29016M17.7359 9.32522L17.8831 9.52735C17.7138 9.65057 17.5167 9.71015 17.3222 9.71015H17.2178L17.2098 9.70204C16.949 9.67169 16.6997 9.53435 16.5354 9.30049C16.2289 8.86595 16.3261 8.26078 16.7586 7.94869M17.7359 9.32522C22.6647 5.75802 28.4444 3.47433 34.4527 2.7221L17.7359 9.32522ZM16.7586 7.94869C16.7587 7.94865 16.7587 7.94861 16.7588 7.94857L16.905 8.15133L16.7585 7.9488C16.7585 7.94876 16.7586 7.94873 16.7586 7.94869ZM16.7586 7.94869C21.9131 4.21873 27.961 1.82994 34.2447 1.0421M34.2447 1.0421C34.2447 1.0421 34.2446 1.04211 34.2446 1.04211L34.2758 1.29016M34.2447 1.0421L34.2758 1.29016" fill="#EB044F" stroke="#EB044F" stroke-width="0.5"/>
<path d="M16.0544 69.128L16.2491 69.2848C16.5836 68.8694 16.521 68.2597 16.1098 67.9213L16.1096 67.9211C10.3373 63.1784 6.1928 56.8799 4.12453 49.7031L3.88431 49.7723L4.12453 49.7031C3.2164 46.552 2.73074 43.2751 2.68102 39.9626M16.0544 69.128L16.2497 69.284C16.06 69.5214 15.7799 69.6444 15.5004 69.6444C15.2865 69.6444 15.071 69.5736 14.8923 69.4252C8.81522 64.4328 4.45224 57.8002 2.27425 50.2446C1.31699 46.9274 0.806557 43.4782 0.754506 39.9919C0.673912 34.5946 1.67473 29.3556 3.73198 24.4206C3.93648 23.9283 4.5019 23.6919 4.99519 23.9023C5.48643 24.1119 5.71403 24.6799 5.50828 25.1729C3.5561 29.8585 2.60477 34.8354 2.68102 39.9626M16.0544 69.128C15.9142 69.3034 15.7073 69.3944 15.5004 69.3944C15.3419 69.3944 15.1834 69.3422 15.0516 69.2325L15.9509 68.1143C16.2562 68.3656 16.303 68.8193 16.0544 69.128ZM2.68102 39.9626L2.43105 39.9663M2.68102 39.9626L2.43105 39.9663M2.43105 39.9663C2.3543 34.8052 3.31201 29.7943 5.27751 25.0768M2.43105 39.9663L5.27751 25.0768M5.27751 25.0768C5.43101 24.7091 5.26082 24.2875 4.89709 24.1323C4.53336 23.9771 4.11456 24.1508 3.96273 24.5168C1.91882 29.4198 0.92439 34.6248 1.00448 39.9882C1.0562 43.4525 1.56343 46.8797 2.51447 50.1754L5.27751 25.0768Z" fill="#EB044F" stroke="#EB044F" stroke-width="0.5"/>
</svg>
