<svg width="44" height="43" viewBox="0 0 44 43" fill="none" xmlns="http://www.w3.org/2000/svg">
<path d="M44 21.5204C44 21.6078 44 21.6951 43.9105 21.7824L22.2573 42.9127C22.1678 43 22.0783 43 21.9888 43C21.8993 43 21.8099 43 21.7204 42.9127L0.0671063 21.7824C-0.02237 21.6951 -0.02237 21.4331 0.0671063 21.3458L21.7204 0.215526C21.8099 0.128207 21.8993 0.128203 21.9888 0.128203C22.0783 0.128203 22.1678 0.128207 22.2573 0.215526L40.242 17.7659C40.3315 17.8532 40.3315 18.1151 40.242 18.2025L22.2573 35.7528C22.1678 35.8401 21.8994 35.8401 21.8099 35.7528L7.49368 21.7824C7.40421 21.6951 7.40421 21.4331 7.49368 21.3458L21.8099 7.37537C21.8994 7.28806 22.1678 7.28806 22.2573 7.37537L32.9944 17.8532C33.0839 17.9405 33.0839 18.2025 32.9944 18.2898L29.4154 21.7824L22.3467 28.6803C22.2572 28.7676 21.9888 28.7676 21.8993 28.6803L14.8307 21.7824C14.7412 21.6951 14.7412 21.4331 14.8307 21.3458L21.8993 14.4479C21.9888 14.3606 22.2572 14.3606 22.3467 14.4479L29.2364 21.1712L32.3681 18.1152L22.1678 8.16121L8.38844 21.6078L22.1678 35.0543L39.7051 17.9405L22.1678 0.826728L0.961869 21.5204L22.1678 42.2142L43.5526 21.3458C43.6421 21.2585 43.9105 21.2585 44 21.3458C43.9105 21.3458 44 21.4331 44 21.5204ZM21.9888 27.9818L28.6101 21.5204L21.9888 15.0591L15.3676 21.5204L21.9888 27.9818Z" fill="black"/>
</svg>
