<svg width="149" height="177" viewBox="0 0 149 177" fill="none" xmlns="http://www.w3.org/2000/svg">
<path fill-rule="evenodd" clip-rule="evenodd" d="M112.834 57.9881C100.595 40.7204 83.0061 33.0161 62.5226 26.7052C59.0638 25.6403 50.5271 23.3456 43.4643 23.4882C38.47 23.5877 34.2246 24.963 32.6743 28.5196C31.3171 31.6268 32.4791 34.8582 35.0549 37.8808C40.6473 44.4449 52.9417 50.1005 56.8355 51.5111C74.377 57.8595 93.416 60.517 112.059 59.5772C112.797 60.6484 113.518 61.7591 114.218 62.9084C116.321 66.3739 118.472 70.7155 119.455 75.1414C120.411 79.4426 120.267 83.8299 117.796 87.5214C112.64 95.2253 101.117 98.3618 88.0543 99.0602C85.2076 99.2146 82.2901 99.2478 79.3422 99.1845C78.2033 97.5926 76.8253 96.009 75.2526 94.4467C63.0527 82.3238 39.4119 71.3448 31.9037 69.0264C28.5609 67.9939 22.4357 66.0111 17.3452 66.3026C13.7052 66.5103 10.5867 67.8615 9.14164 71.2821C7.85246 74.3286 9.03584 77.42 11.6142 80.2824C17.1823 86.4627 29.3318 91.6247 33.3751 93.0569C42.5672 96.317 60.9391 100.222 78.5513 100.709C80.7597 103.966 81.8254 107.218 81.1145 110.334C80.1274 114.668 75.7353 117.374 69.8907 119.098C68.1277 119.617 66.2336 120.046 64.2562 120.389C64.1186 120.289 63.9828 120.194 63.8452 120.094C52.7549 112.193 37.1874 106.35 30.1062 104.381C26.9115 103.491 21.0131 102.282 16.2386 103.02C12.8323 103.55 9.99782 105.067 8.87419 108.19C7.71992 111.397 9.499 114.041 12.4511 116.066C16.4804 118.825 22.6785 120.437 24.9847 121.019C31.4783 122.666 49.6737 124.326 63.8631 122.018C67.0744 124.394 69.8526 126.951 71.8262 129.646C73.9138 132.487 75.1039 135.479 74.9018 138.566C74.3965 146.18 67.1657 150.099 58.0112 151.908C55.2234 152.459 52.2561 152.809 49.2281 152.993C48.0394 150.196 45.8651 147.457 43.0738 144.919C36.4947 138.939 26.5117 134.023 18.5864 131.905C15.8524 131.173 11.054 130.166 7.21324 130.854C4.43584 131.349 2.15162 132.714 1.26831 135.511C0.192542 138.908 1.69275 141.795 4.30705 144.145C7.94573 147.409 13.7681 149.621 16.8313 150.818C22.8468 153.165 35.8847 155.174 48.1972 154.591C48.5802 155.773 48.7544 156.961 48.6818 158.152C48.4151 162.632 44.6441 166.966 35.6896 170.774C31.3531 172.616 26.8354 174.001 22.1476 174.501C15.3912 175.226 8.89588 174.539 2.25112 173.344C1.83195 173.27 1.42928 173.548 1.35502 173.968C1.27786 174.387 1.55701 174.792 1.97618 174.865C8.76549 176.087 15.4069 176.777 22.3101 176.037C27.1485 175.519 31.8145 174.096 36.2901 172.197C46.0361 168.051 49.9303 163.118 50.2229 158.242C50.296 156.996 50.1343 155.747 49.7706 154.503C52.713 154.311 55.5916 153.961 58.3059 153.423C68.2517 151.458 75.8924 146.935 76.4395 138.665C76.8429 132.557 72.4081 126.714 65.9262 121.648C67.4569 121.343 68.9294 120.991 70.3218 120.58C76.8015 118.67 81.5242 115.479 82.6191 110.678C83.347 107.48 82.4434 104.115 80.3805 100.746C83.0006 100.782 85.5965 100.741 88.1356 100.603C101.754 99.873 113.7 96.4134 119.077 88.3792C121.254 85.1265 121.824 81.3906 121.424 77.5977C120.835 72.0719 118.16 66.4284 115.533 62.1046C114.988 61.2057 114.429 60.328 113.857 59.4753C115.935 59.3436 118.008 59.1707 120.073 58.9487C125.18 58.4035 131.296 57.5381 136.549 55.3226C140.137 53.8068 143.324 51.6647 145.556 48.5933C148.76 44.1979 148.715 39.4459 147.074 34.9449C145.489 30.589 142.39 26.4716 139.401 23.1869C126.32 8.8094 108.118 -0.479684 88.3266 0.325167C87.9039 0.342332 87.573 0.702027 87.5882 1.12855C87.6046 1.55217 87.9618 1.88612 88.3884 1.86711C107.717 1.08129 125.485 10.1858 138.261 24.2289C141.124 27.3725 144.106 31.3059 145.628 35.4774C147.092 39.4997 147.177 43.7534 144.313 47.6838C141.717 51.2508 137.714 53.4377 133.359 54.8619C128.899 56.3204 124.065 56.9716 119.91 57.4129C117.56 57.6625 115.198 57.8551 112.834 57.9881ZM47.5933 153.079C46.4468 150.652 44.4814 148.286 42.0371 146.064C35.6311 140.24 25.9066 135.46 18.1874 133.397C15.6111 132.71 11.0968 131.724 7.48334 132.373C5.29097 132.765 3.43337 133.77 2.7354 135.976C1.85843 138.754 3.1992 141.071 5.33894 142.994C8.83688 146.132 14.449 148.227 17.3945 149.378C23.2008 151.643 35.69 153.574 47.5933 153.079ZM62.0652 120.732C51.2027 113.26 36.4846 107.758 29.6898 105.867C26.647 105.019 21.0227 103.841 16.4695 104.548C13.6588 104.982 11.2501 106.131 10.3241 108.711C9.41849 111.226 11.0077 113.203 13.3227 114.788C17.1913 117.44 23.153 118.962 25.3653 119.523C31.5171 121.082 48.3711 122.661 62.0652 120.732ZM77.3897 99.1251C76.4484 97.9274 75.3618 96.7327 74.1676 95.5449C62.146 83.5987 38.8447 72.786 31.4486 70.5019C28.2267 69.5067 22.3352 67.5663 17.4294 67.8461C14.4067 68.0154 11.7606 69.042 10.5591 71.8836C9.87161 73.5112 10.116 75.1459 10.9565 76.7377C11.8654 78.4663 13.4555 80.1336 15.38 81.7023C21.3432 86.5629 30.5197 90.4061 33.892 91.6007C42.7761 94.752 60.336 98.509 77.3897 99.1251ZM110.997 58.0822C98.9907 41.669 81.8879 34.2864 62.0676 28.1807C58.6966 27.1445 50.3762 24.8955 43.493 25.0312C41.2695 25.0769 39.1999 25.3662 37.5141 26.0517C35.9506 26.6896 34.7266 27.6649 34.0865 29.1355C33.3525 30.8186 33.5812 32.533 34.42 34.2196C35.3282 36.04 36.9269 37.819 38.8667 39.4985C44.8664 44.6914 54.116 48.8835 57.3612 50.058C74.4017 56.2241 92.8745 58.8696 110.997 58.0822Z" fill="#03041D" fill-opacity="0.2"/>
</svg>
