<svg width="364" height="733" viewBox="0 0 364 733" fill="none" xmlns="http://www.w3.org/2000/svg">
<g opacity="0.06">
<path d="M129.193 115.005L130.294 114.369" stroke="#080821" stroke-width="1.5" stroke-linecap="round" stroke-linejoin="round"/>
<path d="M132.498 113.098L179.865 85.8203" stroke="#080821" stroke-width="1.5" stroke-linecap="round" stroke-linejoin="round" stroke-dasharray="12 12"/>
<path d="M180.967 85.1861L182.069 84.5519V83.2834" stroke="#080821" stroke-width="1.5" stroke-linecap="round" stroke-linejoin="round"/>
<path d="M182.068 80.7443L182.065 26.1924" stroke="#080821" stroke-width="1.5" stroke-linecap="round" stroke-linejoin="round" stroke-dasharray="12 12"/>
<path d="M182.065 24.9237V23.6553" stroke="#080821" stroke-width="1.5" stroke-linecap="round" stroke-linejoin="round"/>
<path d="M182.508 23.6556L220.02 2.05176" stroke="#080821" stroke-width="1.5" stroke-linecap="round" stroke-linejoin="round"/>
<path d="M83.1853 240.891L127.411 215.423L127.407 164.49L83.1789 139.028L38.9556 164.496" stroke="#080821" stroke-width="1.5" stroke-linecap="round" stroke-linejoin="round"/>
<path d="M90.4985 236.961L129.298 259.298L168.095 236.954L168.09 192.273" stroke="#080821" stroke-width="1.5" stroke-linecap="round" stroke-linejoin="round"/>
<path d="M244.115 273.611L300.012 305.794L355.906 273.607L355.902 209.235L300.005 177.052" stroke="#080821" stroke-width="1.5" stroke-linecap="round" stroke-linejoin="round"/>
<path d="M288.922 120.606V121.874" stroke="#080821" stroke-width="1.5" stroke-linecap="round" stroke-linejoin="round"/>
<path d="M288.922 124.424L288.924 209.793" stroke="#080821" stroke-width="1.5" stroke-linecap="round" stroke-linejoin="round" stroke-dasharray="12.05 12.05"/>
<path d="M288.924 211.067V212.336L290.026 212.97" stroke="#080821" stroke-width="1.5" stroke-linecap="round" stroke-linejoin="round"/>
<path d="M292.137 214.186L329.088 235.46" stroke="#080821" stroke-width="1.5" stroke-linecap="round" stroke-linejoin="round" stroke-dasharray="11.5 11.5"/>
<path d="M330.144 236.067L331.246 236.703" stroke="#080821" stroke-width="1.5" stroke-linecap="round" stroke-linejoin="round"/>
<path d="M51.5893 365.751L20.3555 383.738L20.3576 419.709L51.5935 437.693L82.8274 419.705" stroke="#080821" stroke-width="1.5" stroke-linecap="round" stroke-linejoin="round"/>
<path d="M129.297 273.126L128.197 273.762" stroke="#080821" stroke-width="1.5" stroke-linecap="round" stroke-linejoin="round"/>
<path d="M126.105 274.966L89.4912 296.05" stroke="#080821" stroke-width="1.5" stroke-linecap="round" stroke-linejoin="round" stroke-dasharray="11.4 11.4"/>
<path d="M88.4466 296.652L87.3442 297.286V298.555" stroke="#080821" stroke-width="1.5" stroke-linecap="round" stroke-linejoin="round"/>
<path d="M87.3442 300.965L87.3464 343.13" stroke="#080821" stroke-width="1.5" stroke-linecap="round" stroke-linejoin="round" stroke-dasharray="11.4 11.4"/>
<path d="M87.3481 344.336V345.604L88.4484 346.239" stroke="#080821" stroke-width="1.5" stroke-linecap="round" stroke-linejoin="round"/>
<path d="M90.5405 347.443L127.156 368.523" stroke="#080821" stroke-width="1.5" stroke-linecap="round" stroke-linejoin="round" stroke-dasharray="11.4 11.4"/>
<path d="M128.201 369.125L129.303 369.761L130.406 369.125" stroke="#080821" stroke-width="1.5" stroke-linecap="round" stroke-linejoin="round"/>
<path d="M132.498 367.92L169.11 346.836" stroke="#080821" stroke-width="1.5" stroke-linecap="round" stroke-linejoin="round" stroke-dasharray="11.4 11.4"/>
<path d="M170.154 346.236L171.257 345.6" stroke="#080821" stroke-width="1.5" stroke-linecap="round" stroke-linejoin="round"/>
<path d="M138.67 333.801L113.562 319.344L88.4565 333.803L88.4587 362.717L113.567 377.171L138.672 362.713L138.67 333.801Z" stroke="#080821" stroke-width="1.5" stroke-linecap="round" stroke-linejoin="round"/>
<path d="M149.006 381.363L113.66 361.013L78.3164 381.368L78.3206 422.072L113.665 442.423L149.009 422.068L149.006 381.363Z" stroke="#080821" stroke-width="1.5" stroke-linecap="round" stroke-linejoin="round"/>
<path d="M164.149 461.697L129.212 441.582L94.2773 461.702L94.2795 501.935L129.216 522.048L164.151 501.931L164.149 461.697Z" stroke="#080821" stroke-width="1.5" stroke-linecap="round" stroke-linejoin="round"/>
<path d="M175.963 451.951L219.582 426.829L219.58 376.594L175.956 351.479L132.337 376.599" stroke="#080821" stroke-width="1.5" stroke-linecap="round" stroke-linejoin="round"/>
<path d="M83.1787 490.586L51.5951 472.401L20.0137 490.588L20.0158 526.961L51.5994 545.145L83.1808 526.957L83.1787 490.586Z" stroke="#080821" stroke-width="1.5" stroke-linecap="round" stroke-linejoin="round"/>
<path d="M72.3448 550.226L51.5038 538.229L30.665 550.231L30.6672 574.23L51.506 586.229L72.3448 574.228V550.226Z" stroke="#080821" stroke-width="1.5" stroke-linecap="round" stroke-linejoin="round"/>
<path d="M71.213 622.114L36.1065 601.901L1 622.118L1.00212 662.548L36.1108 682.761L71.2152 662.544L71.213 622.114Z" stroke="#080821" stroke-width="1.5" stroke-linecap="round" stroke-linejoin="round"/>
<path d="M78.2057 600.369L51.6013 585.051L24.999 600.371L25.0011 631.011L51.6055 646.327L78.2078 631.007L78.2057 600.369Z" stroke="#080821" stroke-width="1.5" stroke-linecap="round" stroke-linejoin="round"/>
<path d="M153.035 521.747L129.312 508.088L105.588 521.749L105.59 549.072L129.314 562.731L153.037 549.07L153.035 521.747Z" stroke="#080821" stroke-width="1.5" stroke-linecap="round" stroke-linejoin="round"/>
<path d="M182.5 540.463L144.716 518.709L106.932 540.47L106.934 583.982L144.72 605.736L182.502 583.978L182.5 540.463Z" stroke="#080821" stroke-width="1.5" stroke-linecap="round" stroke-linejoin="round"/>
<path d="M137.206 602.134L113.675 588.587L90.1445 602.136L90.1467 629.237L113.677 642.784L137.208 629.232L137.206 602.134Z" stroke="#080821" stroke-width="1.5" stroke-linecap="round" stroke-linejoin="round"/>
<path d="M215.269 593.05L175.97 570.423L136.671 593.054L136.673 638.313L175.974 660.942L215.274 638.308L215.269 593.05Z" stroke="#080821" stroke-width="1.5" stroke-linecap="round" stroke-linejoin="round"/>
<path d="M311.352 270.285L222.53 219.143L133.71 270.293L133.716 372.584L222.54 423.723L311.358 372.575L311.352 270.285Z" stroke="#080821" stroke-width="1.5" stroke-linecap="round" stroke-linejoin="round"/>
<path d="M294.072 291.483L294.07 244.817L253.548 221.486L213.027 244.821L213.029 291.488" stroke="#080821" stroke-width="1.5" stroke-linecap="round" stroke-linejoin="round"/>
<path d="M229.835 459.619L191.296 437.43L152.76 459.624L152.762 504.005L191.301 526.194L229.839 504.001L229.835 459.619Z" stroke="#080821" stroke-width="1.5" stroke-linecap="round" stroke-linejoin="round"/>
<path d="M325.643 363.742L246.904 409.087L246.906 499.769" stroke="#080821" stroke-width="1.5" stroke-linecap="round" stroke-linejoin="round"/>
<path d="M238.027 239.618L271.192 220.519V182.324" stroke="#080821" stroke-width="1.5" stroke-linecap="round" stroke-linejoin="round"/>
<path d="M388.473 297.307L300.009 246.373L211.548 297.316L211.554 399.192L300.018 450.126L388.477 399.183L388.473 297.307Z" stroke="#080821" stroke-width="1.5" stroke-linecap="round" stroke-linejoin="round"/>
<path d="M348.568 255.459L407.559 289.424" stroke="#080821" stroke-width="1.5" stroke-linecap="round" stroke-linejoin="round"/>
<path d="M191.284 89.5286L132.297 123.498L132.301 191.434L191.292 225.397L250.28 191.426" stroke="#080821" stroke-width="1.5" stroke-linecap="round" stroke-linejoin="round"/>
<path d="M362.403 242.795L317.26 268.794L317.262 320.786L362.409 346.779L407.553 320.78" stroke="#080821" stroke-width="1.5" stroke-linecap="round" stroke-linejoin="round"/>
<path d="M226.984 568.315L191.303 547.774L155.626 568.319L155.628 609.409L191.307 629.951L226.986 609.404L226.984 568.315Z" stroke="#080821" stroke-width="1.5" stroke-linecap="round" stroke-linejoin="round"/>
<path d="M232.092 601.18L206.914 586.683L181.739 601.182L181.741 630.179L206.919 644.673L232.094 630.174L232.092 601.18Z" stroke="#080821" stroke-width="1.5" stroke-linecap="round" stroke-linejoin="round"/>
<path d="M216.198 367.244V410.253L253.545 431.755L290.89 410.25L290.888 367.241" stroke="#080821" stroke-width="1.5" stroke-linecap="round" stroke-linejoin="round"/>
<path d="M346.242 517.847L315.763 500.3L285.288 517.851L285.29 552.95L315.767 570.497L346.244 552.945L346.242 517.847Z" stroke="#080821" stroke-width="1.5" stroke-linecap="round" stroke-linejoin="round"/>
<path d="M360.423 563.082L315.67 537.318L270.921 563.089L270.923 614.626L315.676 640.392L360.427 614.622L360.423 563.082Z" stroke="#080821" stroke-width="1.5" stroke-linecap="round" stroke-linejoin="round"/>
<path d="M387.188 360.071L280.868 298.855" stroke="#080821" stroke-width="1.5" stroke-linecap="round" stroke-linejoin="round" stroke-dasharray="12.19 12.19"/>
<path d="M279.749 298.212L278.649 297.576L277.547 298.212" stroke="#080821" stroke-width="1.5" stroke-linecap="round" stroke-linejoin="round"/>
<path d="M275.309 299.5L168.993 360.724" stroke="#080821" stroke-width="1.5" stroke-linecap="round" stroke-linejoin="round" stroke-dasharray="12.19 12.19"/>
<path d="M167.874 361.369L166.773 362.003V363.271" stroke="#080821" stroke-width="1.5" stroke-linecap="round" stroke-linejoin="round"/>
<path d="M166.773 365.848L166.778 488.288" stroke="#080821" stroke-width="1.5" stroke-linecap="round" stroke-linejoin="round" stroke-dasharray="12.19 12.19"/>
<path d="M166.778 489.578V490.846L167.88 491.48" stroke="#080821" stroke-width="1.5" stroke-linecap="round" stroke-linejoin="round"/>
<path d="M170.119 492.77L276.439 553.985" stroke="#080821" stroke-width="1.5" stroke-linecap="round" stroke-linejoin="round" stroke-dasharray="12.19 12.19"/>
<path d="M277.558 554.63L278.66 555.266L279.76 554.63" stroke="#080821" stroke-width="1.5" stroke-linecap="round" stroke-linejoin="round"/>
<path d="M281.999 553.341L388.314 492.117" stroke="#080821" stroke-width="1.5" stroke-linecap="round" stroke-linejoin="round" stroke-dasharray="12.19 12.19"/>
<path d="M426.471 412.861L356.37 372.499L286.274 412.868L286.278 493.596L356.379 533.959L426.475 493.59L426.471 412.861Z" stroke="#080821" stroke-width="1.5" stroke-linecap="round" stroke-linejoin="round"/>
<path d="M285.27 677.247L253.574 658.999L221.88 677.252L221.882 713.751L253.578 732L285.272 713.749L285.27 677.247Z" stroke="#080821" stroke-width="1.5" stroke-linecap="round" stroke-linejoin="round"/>
<path d="M302.587 177.049C302.587 177.387 302.521 177.722 302.392 178.034C302.262 178.346 302.072 178.629 301.833 178.868C301.593 179.107 301.309 179.296 300.996 179.425C300.683 179.554 300.348 179.62 300.009 179.62C299.326 179.62 298.67 179.349 298.187 178.867C297.703 178.385 297.432 177.731 297.432 177.049C297.432 176.368 297.704 175.714 298.187 175.232C298.671 174.75 299.326 174.479 300.009 174.479C300.693 174.479 301.349 174.75 301.832 175.232C302.316 175.714 302.587 176.368 302.587 177.049Z" fill="#080821"/>
<path d="M221.577 0.643646C221.782 0.847458 221.944 1.08952 222.055 1.35596C222.165 1.62241 222.222 1.90802 222.222 2.19646C222.222 2.4849 222.165 2.77049 222.055 3.03694C221.944 3.30338 221.782 3.54544 221.577 3.74926C221.164 4.1603 220.604 4.39117 220.021 4.39117C219.437 4.39117 218.878 4.1603 218.465 3.74926C218.26 3.54544 218.098 3.30338 217.987 3.03694C217.876 2.77049 217.819 2.4849 217.819 2.19646C217.819 1.90802 217.876 1.62241 217.987 1.35596C218.098 1.08952 218.26 0.847458 218.465 0.643646C218.669 0.439608 218.912 0.277752 219.179 0.167305C219.446 0.0568579 219.732 0 220.021 0C220.31 0 220.596 0.0568579 220.863 0.167305C221.13 0.277752 221.373 0.439608 221.577 0.643646Z" fill="#080821"/>
<path d="M362.208 245.578C363.564 245.257 364.403 243.901 364.081 242.549C363.76 241.196 362.4 240.36 361.044 240.681C359.688 241.002 358.849 242.358 359.171 243.71C359.492 245.062 360.852 245.899 362.208 245.578Z" fill="#080821"/>
<path d="M247.72 501.389C248.824 500.937 249.352 499.677 248.897 498.575C248.443 497.474 247.18 496.948 246.075 497.401C244.971 497.854 244.444 499.114 244.898 500.215C245.352 501.317 246.615 501.842 247.72 501.389Z" fill="#080821"/>
<path d="M132.564 378.795C133.781 378.67 134.666 377.585 134.541 376.371C134.416 375.157 133.328 374.275 132.111 374.4C130.894 374.524 130.009 375.609 130.134 376.823C130.259 378.037 131.347 378.92 132.564 378.795Z" fill="#080821"/>
<path d="M243.75 276.265C245.486 276.238 246.871 274.812 246.843 273.081C246.816 271.349 245.386 269.968 243.65 269.996C241.914 270.023 240.529 271.449 240.557 273.18C240.584 274.912 242.014 276.293 243.75 276.265Z" fill="#080821"/>
<path d="M253.042 191.426C253.042 192.154 252.752 192.854 252.235 193.369C251.718 193.884 251.017 194.174 250.286 194.174C249.555 194.174 248.854 193.884 248.337 193.369C247.821 192.854 247.53 192.154 247.53 191.426C247.53 190.697 247.821 189.998 248.337 189.482C248.854 188.967 249.555 188.677 250.286 188.677C251.017 188.677 251.718 188.967 252.235 189.482C252.752 189.998 253.042 190.697 253.042 191.426Z" fill="#080821"/>
<path d="M193.659 90.9375C194.435 89.6277 193.999 87.9384 192.686 87.1644C191.373 86.3904 189.679 86.8247 188.903 88.1345C188.127 89.4443 188.562 91.1336 189.876 91.9076C191.189 92.6816 192.883 92.2473 193.659 90.9375Z" fill="#080821"/>
<path d="M214.557 291.489C214.556 291.893 214.395 292.279 214.109 292.565C213.823 292.85 213.435 293.011 213.03 293.011C212.625 293.011 212.237 292.851 211.951 292.565C211.665 292.28 211.504 291.893 211.504 291.489C211.504 291.289 211.543 291.091 211.619 290.906C211.696 290.721 211.808 290.553 211.95 290.411C212.092 290.27 212.26 290.158 212.446 290.081C212.631 290.004 212.83 289.965 213.03 289.965C213.435 289.965 213.823 290.126 214.11 290.412C214.396 290.698 214.557 291.085 214.557 291.489Z" fill="#080821"/>
<path d="M217.725 367.241C217.725 367.543 217.636 367.838 217.468 368.089C217.3 368.34 217.062 368.536 216.782 368.651C216.503 368.767 216.195 368.797 215.899 368.739C215.602 368.68 215.33 368.535 215.116 368.321C214.902 368.108 214.756 367.836 214.697 367.54C214.638 367.244 214.669 366.938 214.785 366.659C214.901 366.381 215.097 366.143 215.349 365.975C215.6 365.808 215.896 365.719 216.199 365.719C216.603 365.72 216.991 365.88 217.277 366.166C217.563 366.451 217.724 366.838 217.725 367.241Z" fill="#080821"/>
<path d="M295.605 291.483C295.605 291.889 295.443 292.278 295.156 292.564C294.869 292.851 294.479 293.012 294.072 293.012C293.666 293.012 293.276 292.851 292.988 292.564C292.701 292.278 292.54 291.889 292.54 291.483C292.54 291.078 292.702 290.69 292.989 290.404C293.277 290.118 293.666 289.957 294.072 289.957C294.478 289.957 294.868 290.118 295.155 290.404C295.443 290.69 295.604 291.078 295.605 291.483Z" fill="#080821"/>
<path d="M332.204 236.703C332.204 236.956 332.103 237.199 331.923 237.378C331.743 237.558 331.5 237.658 331.245 237.658C331.119 237.659 330.995 237.634 330.878 237.586C330.762 237.538 330.656 237.468 330.567 237.379C330.477 237.29 330.407 237.185 330.358 237.069C330.31 236.953 330.285 236.828 330.285 236.703C330.285 236.449 330.386 236.205 330.566 236.026C330.747 235.846 330.991 235.745 331.245 235.745C331.371 235.745 331.496 235.77 331.613 235.818C331.729 235.866 331.835 235.937 331.924 236.026C332.013 236.115 332.083 236.22 332.131 236.336C332.179 236.453 332.204 236.577 332.204 236.703Z" fill="#080821"/>
<path d="M240.345 239.627C240.343 240.238 240.098 240.823 239.665 241.255C239.232 241.686 238.645 241.929 238.032 241.931C237.727 241.933 237.425 241.875 237.143 241.76C236.86 241.645 236.604 241.475 236.387 241.261C236.17 241.047 235.998 240.793 235.88 240.512C235.763 240.232 235.701 239.931 235.7 239.627C235.699 239.321 235.758 239.018 235.874 238.735C235.991 238.452 236.163 238.195 236.379 237.979C236.596 237.762 236.854 237.591 237.138 237.475C237.421 237.359 237.725 237.3 238.032 237.301C238.337 237.302 238.639 237.363 238.921 237.48C239.202 237.598 239.458 237.769 239.672 237.985C239.887 238.201 240.057 238.458 240.173 238.739C240.288 239.021 240.347 239.323 240.345 239.627Z" fill="#080821"/>
<path d="M169.99 192.271C169.99 192.776 169.789 193.26 169.431 193.616C169.073 193.973 168.588 194.174 168.082 194.174C167.576 194.174 167.09 193.973 166.733 193.616C166.375 193.26 166.174 192.776 166.174 192.271C166.174 191.766 166.375 191.283 166.733 190.926C167.09 190.569 167.576 190.368 168.082 190.368C168.588 190.368 169.073 190.569 169.431 190.926C169.789 191.283 169.99 191.766 169.99 192.271Z" fill="#080821"/>
<path d="M290.261 120.603C290.262 120.779 290.227 120.953 290.16 121.115C290.093 121.277 289.994 121.425 289.87 121.549C289.745 121.674 289.597 121.772 289.435 121.84C289.272 121.907 289.098 121.941 288.921 121.941C288.745 121.942 288.571 121.907 288.408 121.84C288.245 121.773 288.097 121.674 287.972 121.55C287.847 121.426 287.749 121.278 287.681 121.116C287.614 120.953 287.579 120.779 287.58 120.603C287.58 120.428 287.614 120.254 287.682 120.091C287.749 119.929 287.848 119.782 287.973 119.658C288.097 119.534 288.245 119.435 288.408 119.368C288.571 119.301 288.745 119.267 288.921 119.267C289.277 119.267 289.618 119.408 289.869 119.658C290.12 119.909 290.261 120.249 290.261 120.603Z" fill="#080821"/>
<path d="M292.523 367.243C292.523 367.566 292.427 367.881 292.247 368.149C292.068 368.417 291.812 368.626 291.514 368.749C291.215 368.873 290.887 368.905 290.569 368.842C290.252 368.779 289.961 368.624 289.733 368.396C289.504 368.168 289.348 367.878 289.285 367.561C289.222 367.245 289.255 366.918 289.378 366.62C289.502 366.322 289.712 366.067 289.98 365.888C290.249 365.709 290.565 365.614 290.888 365.614C291.322 365.614 291.738 365.785 292.044 366.091C292.351 366.397 292.523 366.811 292.523 367.243Z" fill="#080821"/>
<path d="M171.457 348.556C173.096 348.446 174.335 347.032 174.224 345.398C174.114 343.764 172.696 342.528 171.057 342.638C169.418 342.748 168.179 344.162 168.29 345.796C168.4 347.431 169.818 348.666 171.457 348.556Z" fill="#080821"/>
<path d="M85.2731 240.895C85.2726 241.448 85.0522 241.978 84.6603 242.369C84.2685 242.759 83.7371 242.979 83.183 242.98C82.9085 242.98 82.6367 242.926 82.3831 242.821C82.1295 242.716 81.8991 242.563 81.705 242.369C81.5109 242.176 81.3569 241.946 81.2519 241.693C81.1468 241.44 81.0928 241.169 81.0928 240.895C81.0925 240.621 81.1464 240.35 81.2513 240.097C81.3563 239.844 81.5102 239.614 81.7044 239.421C81.8985 239.227 82.129 239.074 82.3828 238.969C82.6365 238.864 82.9084 238.811 83.183 238.811C83.7373 238.811 84.269 239.03 84.6609 239.421C85.0529 239.812 85.2731 240.342 85.2731 240.895Z" fill="#080821"/>
<path d="M131.62 275.019C132.667 273.739 132.475 271.854 131.192 270.81C129.908 269.766 128.018 269.957 126.971 271.238C125.924 272.518 126.116 274.402 127.4 275.447C128.684 276.491 130.573 276.3 131.62 275.019Z" fill="#080821"/>
<path d="M328.332 363.742C328.332 364.272 328.175 364.79 327.88 365.231C327.585 365.672 327.166 366.015 326.676 366.218C326.185 366.421 325.645 366.475 325.124 366.372C324.603 366.269 324.124 366.014 323.748 365.64C323.372 365.266 323.116 364.789 323.012 364.269C322.908 363.75 322.961 363.211 323.164 362.721C323.366 362.232 323.71 361.813 324.152 361.519C324.593 361.224 325.113 361.066 325.644 361.066C325.996 361.066 326.346 361.135 326.672 361.269C326.998 361.403 327.294 361.6 327.544 361.849C327.793 362.097 327.991 362.393 328.126 362.717C328.262 363.042 328.331 363.391 328.332 363.742Z" fill="#080821"/>
<path d="M272.408 184.032C273.354 183.354 273.57 182.039 272.89 181.096C272.21 180.152 270.892 179.937 269.946 180.615C269 181.293 268.784 182.608 269.464 183.551C270.144 184.495 271.462 184.71 272.408 184.032Z" fill="#080821"/>
<path d="M131.364 115.067C131.364 115.625 131.142 116.161 130.747 116.557C130.353 116.953 129.817 117.177 129.257 117.181C128.696 117.178 128.16 116.954 127.765 116.558C127.369 116.162 127.147 115.626 127.147 115.067C127.147 114.506 127.371 113.968 127.768 113.572C128.166 113.175 128.705 112.953 129.267 112.953C129.825 112.959 130.359 113.184 130.751 113.58C131.144 113.976 131.364 114.51 131.364 115.067Z" fill="#080821"/>
<path d="M41.1115 164.45C41.1115 165.009 40.8896 165.545 40.4943 165.941C40.0991 166.337 39.5626 166.561 39.0022 166.564C38.7244 166.564 38.4494 166.509 38.1929 166.403C37.9364 166.296 37.7035 166.14 37.5077 165.944C37.3119 165.747 37.1569 165.514 37.0518 165.258C36.9466 165.001 36.8934 164.727 36.8951 164.45C36.8948 164.174 36.9491 163.9 37.0549 163.645C37.1606 163.39 37.3158 163.158 37.5115 162.962C37.7072 162.767 37.9396 162.612 38.1953 162.506C38.4511 162.401 38.7253 162.346 39.0022 162.346C39.2793 162.346 39.5537 162.4 39.8097 162.506C40.0658 162.611 40.2984 162.766 40.4943 162.962C40.6902 163.157 40.8456 163.389 40.9515 163.644C41.0574 163.9 41.1118 164.173 41.1115 164.45Z" fill="#080821"/>
<path d="M364.612 438.238C364.611 438.694 364.476 439.139 364.222 439.517C363.968 439.895 363.607 440.19 363.185 440.364C362.763 440.538 362.299 440.583 361.851 440.494C361.404 440.405 360.993 440.186 360.67 439.864C360.347 439.541 360.128 439.131 360.039 438.685C359.95 438.238 359.996 437.775 360.171 437.355C360.345 436.934 360.641 436.575 361.021 436.322C361.4 436.069 361.847 435.934 362.303 435.934C362.916 435.935 363.503 436.178 363.936 436.61C364.369 437.042 364.612 437.628 364.612 438.238Z" fill="#080821"/>
<path d="M350.353 255.461C350.353 255.933 350.165 256.386 349.83 256.72C349.496 257.054 349.042 257.241 348.568 257.241C348.095 257.241 347.641 257.054 347.306 256.72C346.971 256.386 346.783 255.933 346.783 255.461C346.783 254.989 346.971 254.536 347.306 254.203C347.641 253.869 348.095 253.681 348.568 253.681C349.042 253.681 349.496 253.869 349.83 254.203C350.165 254.536 350.353 254.989 350.353 255.461Z" fill="#080821"/>
<path d="M177.815 453.799C178.838 452.779 178.838 451.124 177.815 450.104C176.792 449.083 175.133 449.083 174.11 450.104C173.087 451.124 173.087 452.779 174.11 453.799C175.133 454.82 176.792 454.82 177.815 453.799Z" fill="#080821"/>
<path d="M294.663 294.739C296.464 294.415 297.661 292.697 297.336 290.901C297.011 289.105 295.288 287.911 293.487 288.235C291.686 288.559 290.49 290.277 290.814 292.073C291.139 293.869 292.862 295.063 294.663 294.739Z" stroke="#080821" stroke-width="1.5" stroke-linecap="round" stroke-linejoin="round"/>
<path d="M293.141 369.489C294.384 368.249 294.384 366.238 293.141 364.998C291.897 363.758 289.881 363.758 288.638 364.998C287.395 366.238 287.395 368.249 288.638 369.489C289.881 370.729 291.897 370.729 293.141 369.489Z" stroke="#080821" stroke-width="1.5" stroke-linecap="round" stroke-linejoin="round"/>
<path d="M289.987 123.086C291.362 122.496 291.997 120.907 291.405 119.536C290.814 118.166 289.22 117.533 287.846 118.122C286.472 118.712 285.837 120.301 286.428 121.672C287.019 123.043 288.613 123.676 289.987 123.086Z" stroke="#080821" stroke-width="1.5" stroke-linecap="round" stroke-linejoin="round"/>
<path d="M175.901 346.326C176.303 343.766 174.549 341.366 171.982 340.965C169.416 340.564 167.009 342.313 166.606 344.873C166.204 347.432 167.959 349.833 170.525 350.234C173.092 350.635 175.499 348.886 175.901 346.326Z" stroke="#080821" stroke-width="1.5" stroke-linecap="round" stroke-linejoin="round"/>
<path d="M172.782 192.973C173.171 190.39 171.387 187.982 168.797 187.594C166.207 187.206 163.792 188.985 163.403 191.568C163.014 194.151 164.798 196.56 167.388 196.947C169.978 197.335 172.393 195.556 172.782 192.973Z" stroke="#080821" stroke-width="1.5" stroke-linecap="round" stroke-linejoin="round"/>
<path d="M215.445 291.49C215.445 292.128 215.19 292.741 214.738 293.192C214.285 293.644 213.671 293.898 213.03 293.898C212.39 293.898 211.776 293.644 211.323 293.192C210.87 292.741 210.616 292.128 210.616 291.49C210.615 291.173 210.678 290.86 210.799 290.568C210.92 290.275 211.098 290.009 211.322 289.786C211.546 289.562 211.813 289.384 212.106 289.263C212.399 289.142 212.713 289.08 213.03 289.08C213.348 289.08 213.662 289.142 213.955 289.263C214.248 289.384 214.514 289.562 214.738 289.786C214.963 290.009 215.14 290.275 215.262 290.568C215.383 290.86 215.445 291.173 215.445 291.49V291.49Z" stroke="#080821" stroke-width="1.5" stroke-linecap="round" stroke-linejoin="round"/>
<path d="M86.0833 240.895C86.0836 241.275 86.0088 241.651 85.8631 242.002C85.7175 242.353 85.5039 242.672 85.2346 242.941C84.9652 243.209 84.6454 243.422 84.2934 243.567C83.9415 243.713 83.5643 243.787 83.1833 243.787C82.8023 243.787 82.425 243.713 82.0729 243.567C81.7208 243.422 81.4009 243.209 81.1314 242.941C80.8619 242.672 80.6481 242.353 80.5022 242.002C80.3563 241.651 80.2812 241.275 80.2813 240.895C80.2813 240.127 80.587 239.391 81.1313 238.848C81.6755 238.306 82.4137 238.001 83.1833 238.001C83.5644 238.001 83.9416 238.076 84.2936 238.221C84.6456 238.367 84.9654 238.58 85.2347 238.849C85.504 239.117 85.7176 239.436 85.8632 239.788C86.0088 240.139 86.0836 240.515 86.0833 240.895V240.895Z" stroke="#080821" stroke-width="1.5" stroke-linecap="round" stroke-linejoin="round"/>
<path d="M333.514 236.703C333.513 237.302 333.274 237.877 332.849 238.301C332.424 238.725 331.847 238.963 331.246 238.963C330.645 238.963 330.068 238.725 329.643 238.301C329.217 237.877 328.978 237.302 328.978 236.703C328.978 236.406 329.036 236.112 329.15 235.837C329.264 235.563 329.431 235.313 329.642 235.103C329.853 234.893 330.103 234.727 330.378 234.613C330.653 234.499 330.948 234.441 331.246 234.441C331.544 234.441 331.839 234.499 332.114 234.613C332.389 234.727 332.639 234.893 332.85 235.103C333.06 235.313 333.227 235.563 333.341 235.837C333.455 236.112 333.514 236.406 333.514 236.703Z" stroke="#080821" stroke-width="1.5" stroke-linecap="round" stroke-linejoin="round"/>
<path d="M241.422 241.941C242.707 240.067 242.226 237.508 240.346 236.226C238.467 234.944 235.901 235.424 234.616 237.298C233.33 239.173 233.812 241.732 235.691 243.014C237.571 244.296 240.137 243.816 241.422 241.941Z" stroke="#080821" stroke-width="1.5" stroke-linecap="round" stroke-linejoin="round"/>
<path d="M365.576 441.5C367.382 439.699 367.382 436.778 365.576 434.976C363.77 433.175 360.841 433.175 359.035 434.976C357.228 436.778 357.228 439.699 359.035 441.5C360.841 443.302 363.77 443.302 365.576 441.5Z" stroke="#080821" stroke-width="1.5" stroke-linecap="round" stroke-linejoin="round"/>
<path d="M177.584 455.237C179.405 454.345 180.157 452.15 179.262 450.334C178.368 448.517 176.166 447.768 174.345 448.661C172.524 449.553 171.773 451.748 172.667 453.564C173.562 455.381 175.763 456.13 177.584 455.237Z" stroke="#080821" stroke-width="1.5" stroke-linecap="round" stroke-linejoin="round"/>
</g>
</svg>
