<svg width="72" height="72" viewBox="0 0 72 72" fill="none" xmlns="http://www.w3.org/2000/svg">
<path d="M39.151 48.0159C39.154 48.0058 39.1571 47.9956 39.1601 47.9855L39.1605 47.9841C41.7222 39.4594 38.59 30.0847 31.3016 24.5868L31.3014 24.5866C30.6846 24.1209 30.0484 23.7157 29.3935 23.2986C29.0514 23.0807 28.7042 22.8595 28.352 22.6248L28.351 22.6241C28.1227 22.4712 27.892 22.3054 27.6693 22.1453C27.5505 22.0599 27.4341 21.9762 27.3215 21.8971L27.044 21.7018L27.123 21.3717C27.1338 21.3268 27.1441 21.2818 27.155 21.2339L27.1553 21.2327C27.166 21.1859 27.1773 21.1363 27.1894 21.086L27.2746 20.7302L27.6396 20.7038C27.6757 20.7011 27.7199 20.6945 27.7823 20.6833C27.7956 20.6809 27.8106 20.6781 27.8268 20.6751C27.8766 20.6659 27.9377 20.6546 27.994 20.6462C28.1388 20.6245 28.3799 20.5982 28.6217 20.6974C29.3862 21.0062 30.182 21.3416 30.9332 21.7744L30.9338 21.7747C38.3893 26.0809 42.8986 34.8918 42.1573 43.7769C42.0577 44.976 41.8049 46.1706 41.56 47.3278C41.4637 47.7827 41.3687 48.2317 41.2847 48.673C41.4365 48.5471 41.5893 48.4204 41.7438 48.2924C42.109 47.9896 42.4833 47.6793 42.8752 47.355L43.4168 46.9071L43.6624 47.5655C43.9931 48.4519 43.7576 49.2032 43.27 49.703L43.2696 49.7035C42.2143 50.7828 41.1229 51.8706 39.9317 52.8301M39.151 48.0159L39.6181 52.4407M39.151 48.0159C39.1401 47.9731 39.1291 47.93 39.1181 47.8866C39.0124 47.4701 38.9001 47.0277 38.7549 46.6083L38.7548 46.6081C38.6697 46.3624 38.4694 46.217 38.3803 46.1538C38.3402 46.1254 38.2948 46.0956 38.2596 46.0724C38.249 46.0655 38.2393 46.0591 38.231 46.0536C38.1874 46.0246 38.1616 46.0062 38.1444 45.9918L37.7222 45.6413L37.4123 46.0941C37.3841 46.1354 37.3498 46.1831 37.3124 46.2354C37.2156 46.3703 37.0975 46.5351 37.0062 46.6947L37.0051 46.6967C36.9495 46.7949 36.9328 46.8899 36.9272 46.9525C36.9215 47.0169 36.9252 47.0743 36.9293 47.1146C36.9335 47.156 36.9399 47.1942 36.9445 47.2208C36.9468 47.2342 36.9486 47.244 36.95 47.2519C36.9519 47.2629 36.9533 47.2704 36.9547 47.2792M39.151 48.0159L37.4491 47.2044M39.9317 52.8301L39.6181 52.4407M39.9317 52.8301C39.9319 52.83 39.932 52.8298 39.9322 52.8297L39.6181 52.4407M39.9317 52.8301C39.4853 53.1903 38.9405 53.3087 38.4514 53.0603C37.9921 52.827 37.7229 52.3391 37.6276 51.7965L37.6276 51.7963C37.4375 50.7107 37.2844 49.6174 37.1326 48.5335C37.0738 48.1137 37.0152 47.6953 36.9547 47.2792M39.6181 52.4407C38.9501 52.98 38.2779 52.6084 38.1201 51.71C37.9316 50.6335 37.7803 49.5533 37.6289 48.4725C37.5697 48.0498 37.5105 47.6271 37.4491 47.2044M36.9547 47.2792C36.9548 47.28 36.9549 47.2807 36.955 47.2815L37.4491 47.2044M36.9547 47.2792C36.9545 47.2783 36.9544 47.2773 36.9543 47.2763L37.4491 47.2044M41.2222 48.7248L41.273 48.7343C41.2731 48.7339 41.2732 48.7336 41.2733 48.7332C41.2733 48.7328 41.2734 48.7324 41.2735 48.732L41.2243 48.723M41.2222 48.7248C41.2229 48.7242 41.2236 48.7236 41.2243 48.723M41.2222 48.7248C41.0276 48.886 40.8345 49.0459 40.6415 49.2055L41.2243 48.723M41.2222 48.7248L40.7817 48.6418L41.2243 48.723" fill="#21D496" stroke="#21D496"/>
<path d="M35.1294 70.9903L35.1272 71.0907L35.2276 71.0925C35.4908 71.0972 35.7527 71.1003 36.0177 71.1003C36.1705 71.1003 36.3232 71.0988 36.4769 71.0972L36.4813 71.0972L36.5817 71.0962L36.5803 70.9958L36.5757 70.6541L36.5743 70.5534L36.4737 70.5554C36.3212 70.5585 36.1701 70.5585 36.0177 70.5585C35.7568 70.5585 35.498 70.557 35.2395 70.5508L35.1394 70.5484L35.1371 70.6485L35.1294 70.9903ZM37.6298 70.9617L37.7299 70.9593L37.7346 71.0551C38.1494 71.0349 38.5702 71.0052 38.9861 70.9694L39.0857 70.9608L39.0772 70.8612L39.048 70.521L39.0394 70.4213L38.9397 70.43C38.5304 70.4656 38.1152 70.495 37.7079 70.5152L37.608 70.5201L37.6129 70.62L37.6298 70.9617ZM34.0494 71.0117L34.2054 70.8546L34.0827 70.8473L34.0967 70.6069L34.1026 70.5072L34.0029 70.5012C33.5923 70.4764 33.1785 70.4439 32.7724 70.4052L32.6728 70.3957L32.6633 70.4953L32.6311 70.8355L32.6216 70.9351L32.7212 70.9445C33.1009 70.9803 33.487 71.0108 33.8714 71.0349L33.8617 71.2009L34.0479 71.0133L34.0494 71.0117ZM40.1215 70.7499L40.2217 70.7438L40.2331 70.8354C40.6461 70.784 41.0638 70.7248 41.4755 70.6578L41.5739 70.6418L41.5582 70.5433L41.5044 70.2063L41.4886 70.1074L41.3897 70.1233C40.9852 70.1883 40.5729 70.2472 40.1668 70.2983L40.068 70.3108L40.08 70.4097L40.1215 70.7499ZM42.5922 70.3563L42.6926 70.3465L42.7099 70.4335C43.1171 70.3524 43.5301 70.2605 43.9353 70.1639L44.0323 70.1408L44.0094 70.0437L43.931 69.7113L43.908 69.6135L43.8103 69.637C43.4119 69.733 43.0059 69.8229 42.6046 69.9034L42.5069 69.923L42.5262 70.0207L42.5922 70.3563ZM45.0282 69.7794L45.0548 69.8761L45.1514 69.8492C45.5538 69.737 45.9591 69.6155 46.3537 69.4893L46.4482 69.459L46.4187 69.3643L46.3173 69.0381L46.2874 68.942L46.1915 68.9725C45.8023 69.0964 45.4038 69.2157 45.0069 69.3273L44.9111 69.3542L44.9375 69.4501L45.0282 69.7794ZM47.4154 69.0235L47.4685 69.1739L47.5664 69.0749C47.9509 68.9354 48.3397 68.7869 48.7181 68.6339L48.8103 68.5966L48.7736 68.5042L48.6476 68.1873L48.6103 68.0936L48.5169 68.1317C48.1371 68.2865 47.7481 68.4351 47.362 68.5745L47.2685 68.6082L47.3016 68.7019L47.4154 69.0235ZM49.6033 67.7782L49.7317 68.0712V68.2062L49.8726 68.1431C50.2518 67.9733 50.6356 67.7925 51.0102 67.6071L51.099 67.5631L51.0558 67.4738L50.9067 67.1663L50.8629 67.0758L50.7727 67.1201C50.4031 67.3015 50.0277 67.4796 49.6541 67.6468L49.5635 67.6873L49.6033 67.7782ZM52.0784 67.0411H52.2446L52.2128 66.9811C52.549 66.7978 52.8872 66.6069 53.2203 66.4106L53.3057 66.3602L53.2561 66.2744L53.0855 65.9792L53.0351 65.892L52.9482 65.9431C52.5926 66.1522 52.2295 66.3582 51.8711 66.5518L51.7838 66.5989L51.8303 66.6866L51.9901 66.988L52.0547 66.9537L52.0769 67.0411H52.0784ZM53.9731 65.4315L54.1391 65.6961V65.8518L54.2931 65.753C54.643 65.5286 54.9944 65.2934 55.3394 65.0552L55.4208 64.999L55.3655 64.917L55.1749 64.6343L55.1185 64.5506L55.0353 64.6078C54.6948 64.8419 54.3485 65.0743 54.004 65.2941L53.9203 65.3474L53.9731 65.4315ZM56.2207 64.2956L56.4014 64.5424V64.285C56.7225 64.0435 57.0432 63.7936 57.3553 63.5424L57.4324 63.4804L57.3712 63.4026L57.1607 63.1354L57.098 63.0559L57.0193 63.1195C56.6991 63.3781 56.3696 63.6337 56.04 63.8817L55.9611 63.941L56.0194 64.0207L56.2207 64.2956ZM58.1786 62.7232L58.244 62.7999L58.3202 62.7338C58.6348 62.461 58.9492 62.1759 59.2558 61.8894L59.3281 61.8218L59.2612 61.7487L59.0307 61.4971L58.9623 61.4224L58.8885 61.4917C58.5868 61.7751 58.2773 62.0539 57.9677 62.3234L57.893 62.3884L57.9573 62.4637L58.1786 62.7232Z" fill="#EB044F" stroke="#EB044F" stroke-width="0.2"/>
<path d="M53.164 7.17393L53.1877 7.18821H53.2155H53.217H53.2743L53.3033 7.13879L53.4754 6.84519L53.5255 6.75979L53.4406 6.70887C53.103 6.50628 52.7562 6.30685 52.4125 6.11679L52.3243 6.06804L52.2762 6.15656L52.1133 6.45638L52.066 6.54356L52.1528 6.59161C52.4915 6.77909 52.8316 6.97423 53.164 7.17393ZM51.0572 6.0123L51.0911 5.9455L51.192 5.9692L51.3441 5.66317L51.3883 5.57422L51.2997 5.5294C50.9267 5.34089 50.546 5.15706 50.1669 4.98255L50.0753 4.94039L50.0339 5.03235L49.894 5.34304L49.8532 5.43366L49.9436 5.47501C50.3158 5.64532 50.6911 5.82649 51.0572 6.0123ZM48.848 4.98542L48.8663 4.89352L48.9391 4.92315L49.0682 4.60625L49.1056 4.51435L49.014 4.47621C48.6288 4.31576 48.2357 4.15994 47.8455 4.01496L47.7511 3.97987L47.7167 4.07456L47.5999 4.39613L47.5661 4.48919L47.6588 4.52391C48.0122 4.65626 48.3667 4.79511 48.7166 4.93925L48.6978 4.98542H48.8465H48.848ZM46.4931 4.11355L46.6244 4.15695V4.03296L46.7255 3.72342L46.7564 3.6288L46.6619 3.59746C46.2672 3.46653 45.8634 3.3419 45.4629 3.2251L45.3662 3.19693L45.3387 3.29373L45.2449 3.62306L45.2177 3.71867L45.3132 3.74645C45.7069 3.86104 46.1038 3.98496 46.4931 4.11355ZM44.1198 3.42436L44.1407 3.34054L44.2411 3.35267L44.3226 3.02023L44.3462 2.92354L44.2497 2.89941C43.8443 2.79815 43.4328 2.70311 43.0259 2.6174L42.9277 2.59673L42.9073 2.69498L42.8382 3.02897L42.8179 3.12678L42.9157 3.14715C43.3168 3.23071 43.7212 3.32516 44.1198 3.42436ZM41.702 2.91478L41.8009 2.93182L41.8176 2.83286L41.8744 2.49577L41.891 2.39732L41.7926 2.38055C41.3815 2.3105 40.9637 2.24505 40.5519 2.19048L40.4527 2.17733L40.4396 2.27656L40.395 2.61522L40.382 2.71418L40.4809 2.72738C40.8868 2.78157 41.2974 2.84507 41.702 2.91478ZM39.2538 2.58645L39.3533 2.59591L39.3628 2.49634L39.3951 2.15614L39.4045 2.0569L39.3053 2.04717C38.8921 2.00665 38.4697 1.97393 38.0536 1.94901L37.9537 1.94302L37.9478 2.04299L37.9278 2.38475L37.922 2.48439L38.0217 2.49041C38.4323 2.51519 38.8461 2.54772 39.2538 2.58645Z" fill="#EB044F" stroke="#EB044F" stroke-width="0.2"/>
<path d="M5.81192 21.1146L5.87236 21.0323L5.94541 21.0694C6.13245 20.7005 6.3271 20.3302 6.52629 19.9678L6.57395 19.8811L6.48773 19.8325L6.19267 19.6663L6.10444 19.6166L6.05585 19.7055C5.85412 20.0744 5.65529 20.4499 5.46713 20.8256L5.42289 20.9139L5.51071 20.9592L5.81192 21.1146ZM7.00878 18.9221L7.09482 18.9749L7.14677 18.8884C7.35992 18.5334 7.58054 18.1772 7.80561 17.8321L7.85975 17.749L7.7772 17.6942L7.49444 17.5062L7.41017 17.4502L7.35515 17.5351C7.12706 17.8872 6.90208 18.2486 6.68636 18.6084L6.63544 18.6933L6.71987 18.7451L7.00878 18.9221ZM8.08617 16.6284L8.35437 16.8207L8.43424 16.9015L8.50299 16.8033C8.74042 16.4642 8.98711 16.1265 9.23541 15.7981L9.29503 15.7192L9.21685 15.6587L8.94792 15.4505L8.86804 15.3887L8.80702 15.4692C8.55425 15.8026 8.30303 16.1469 8.06259 16.4897L8.00576 16.5707L8.08617 16.6284ZM9.92556 14.8575H10.202L10.0646 14.7431L10.0808 14.7236L10.0811 14.7233C10.3187 14.4351 10.5608 14.1501 10.8044 13.8728L10.8696 13.7986L10.7962 13.7325L10.5441 13.5057L10.469 13.438L10.4022 13.514C10.1554 13.7945 9.90888 14.0859 9.66863 14.377L9.6684 14.3773L9.58695 14.4767L9.52408 14.5534L9.60033 14.6169L9.78292 14.7689L9.70916 14.8575H9.92248H9.92556ZM11.5019 12.9575L11.531 12.9856H11.5714H11.573H11.6161L11.6457 12.9542C11.9276 12.6553 12.2202 12.3565 12.5143 12.0685L12.5852 11.9991L12.5163 11.9276L12.2796 11.6822L12.2095 11.6095L12.1375 11.6804C11.84 11.9733 11.5426 12.277 11.2545 12.5807L11.1863 12.6526L11.2576 12.7214L11.5019 12.9575ZM13.272 11.2064L13.3394 11.2814L13.4138 11.2134C13.7171 10.9362 14.0312 10.6605 14.3454 10.394L14.4209 10.33L14.3576 10.2539L14.1394 9.99132L14.0749 9.91377L13.9979 9.97889C13.6772 10.2501 13.3597 10.5306 13.0514 10.8126L12.9783 10.8794L13.0445 10.9532L13.272 11.2064ZM15.1634 9.59107L15.3427 9.82471V9.57723C15.6555 9.33187 15.9749 9.08967 16.2929 8.85752L16.373 8.79907L16.3152 8.71849L16.117 8.44198L16.0581 8.35987L15.9766 8.41958C15.6408 8.66564 15.3033 8.92112 14.9733 9.18137L14.8959 9.24249L14.956 9.32077L15.1634 9.59107Z" fill="#EB044F" stroke="#EB044F" stroke-width="0.2"/>
<path d="M53.9989 5.7352C53.5662 5.47449 53.0095 5.62043 52.754 6.05382C52.4986 6.48689 52.6394 7.04626 53.0693 7.30525L53.0694 7.30534C56.6984 9.48879 59.8529 12.3089 62.4433 15.6878C66.9038 21.506 69.3202 28.4817 69.4301 35.8647V35.8647C69.5109 41.2415 68.376 46.3992 66.0572 51.195C64.2357 54.9624 61.7645 58.3224 58.7104 61.1814C58.344 61.5241 58.3237 62.1018 58.6614 62.471L58.6623 62.4719C58.8413 62.6657 59.0836 62.7651 59.3284 62.7651H59.4327L59.4411 62.7565C59.6235 62.7336 59.802 62.6542 59.9465 62.5189C63.1638 59.506 65.7701 55.9655 67.6891 51.9952C70.1343 46.939 71.3306 41.5022 71.2455 35.8371C71.1294 28.0584 68.5821 20.7036 63.8789 14.5695C61.1491 11.0076 57.8246 8.03653 53.9989 5.7352ZM53.9989 5.7352L53.8699 5.94934L53.9987 5.73511C53.9988 5.73514 53.9988 5.73517 53.9989 5.7352Z" fill="#EB044F" stroke="#EB044F" stroke-width="0.5"/>
<path d="M35.4664 0.750147L35.4672 0.750136C35.9698 0.743678 36.3789 1.14793 36.3873 1.64993C36.3957 2.15315 35.9967 2.56968 35.4946 2.57828L35.4941 2.57829C34.2739 2.59679 33.0459 2.68314 31.8425 2.83424L31.8424 2.83425C26.3505 3.52184 21.0669 5.60943 16.5611 8.87046L16.4146 8.66794M35.4664 0.750147L15.5027 7.38421C15.0956 7.67807 15.0043 8.24753 15.2926 8.65644C15.4459 8.87462 15.6777 9.0036 15.9208 9.03378L15.9291 9.04222H16.0334C16.2167 9.04222 16.4023 8.98609 16.5617 8.87007L16.4146 8.66794M35.4664 0.750147C34.1806 0.770481 32.8868 0.859633 31.6174 1.01925M35.4664 0.750147L31.6174 1.01925M16.4146 8.66794C20.9541 5.3824 26.2775 3.27903 31.8113 2.58619L16.4146 8.66794ZM31.6174 1.01925C25.8265 1.7453 20.253 3.94671 15.5028 7.38409L31.6174 1.01925Z" fill="#EB044F" stroke="#EB044F" stroke-width="0.5"/>
<path d="M3.89673 45.8521L3.65651 45.9213L2.39483 46.2926C4.38801 53.207 8.38051 59.2763 13.942 63.845L13.7822 64.0372C13.7824 64.0374 13.7826 64.0375 13.7828 64.0377C13.9511 64.1774 14.1541 64.2441 14.3554 64.2441C14.6183 64.2441 14.8818 64.1285 15.0603 63.9055C15.3752 63.5145 15.3163 62.9406 14.9292 62.622L14.9291 62.6219C9.61558 58.2562 5.80059 52.4584 3.89673 45.8521Z" fill="#EB044F" stroke="#EB044F" stroke-width="0.5"/>
</svg>
