<svg width="342" height="342" viewBox="0 0 342 342" fill="none" xmlns="http://www.w3.org/2000/svg">
<g opacity="0.5">
<path d="M249.861 258.701L245.612 258.785L245.696 263.034L249.945 262.95L249.861 258.701Z" fill="#21D496"/>
<path d="M249.416 241.963L245.387 242.043L245.467 246.072L249.496 245.992L249.416 241.963Z" fill="#21D496"/>
<path d="M248.984 225.221L245.165 225.297L245.241 229.116L249.06 229.04L248.984 225.221Z" fill="#21D496"/>
<path d="M248.54 208.484L244.941 208.555L245.012 212.154L248.612 212.083L248.54 208.484Z" fill="#21D496"/>
<path d="M248.09 191.737L244.711 191.804L244.778 195.183L248.157 195.116L248.09 191.737Z" fill="#21D496"/>
<path d="M247.656 174.99L244.486 175.053L244.549 178.223L247.719 178.16L247.656 174.99Z" fill="#21D496"/>
<path d="M247.215 158.244L244.266 158.303L244.324 161.252L247.274 161.194L247.215 158.244Z" fill="#21D496"/>
<path d="M246.772 141.507L244.042 141.561L244.097 144.29L246.826 144.236L246.772 141.507Z" fill="#21D496"/>
<path d="M246.341 124.761L243.821 124.811L243.871 127.33L246.391 127.28L246.341 124.761Z" fill="#21D496"/>
<path d="M245.898 108.022L243.599 108.068L243.644 110.367L245.944 110.322L245.898 108.022Z" fill="#21D496"/>
<path d="M245.457 91.2769L243.367 91.3184L243.409 93.4079L245.498 93.3665L245.457 91.2769Z" fill="#21D496"/>
<path d="M245.014 74.5293L243.144 74.5664L243.182 76.436L245.051 76.3989L245.014 74.5293Z" fill="#21D496"/>
<path d="M236.203 258.974L231.954 259.058L232.039 263.307L236.288 263.223L236.203 258.974Z" fill="#21D496"/>
<path d="M235.759 242.236L231.73 242.316L231.81 246.345L235.839 246.265L235.759 242.236Z" fill="#21D496"/>
<path d="M235.329 225.491L231.509 225.566L231.585 229.386L235.404 229.31L235.329 225.491Z" fill="#21D496"/>
<path d="M234.885 208.752L231.285 208.824L231.357 212.423L234.956 212.352L234.885 208.752Z" fill="#21D496"/>
<path d="M234.442 192.001L231.063 192.068L231.13 195.447L234.509 195.38L234.442 192.001Z" fill="#21D496"/>
<path d="M234 175.259L230.831 175.322L230.894 178.491L234.063 178.428L234 175.259Z" fill="#21D496"/>
<path d="M233.558 158.518L230.608 158.576L230.667 161.526L233.616 161.467L233.558 158.518Z" fill="#21D496"/>
<path d="M233.116 141.775L230.387 141.829L230.441 144.559L233.17 144.504L233.116 141.775Z" fill="#21D496"/>
<path d="M232.684 125.034L230.164 125.083L230.214 127.603L232.734 127.553L232.684 125.034Z" fill="#21D496"/>
<path d="M232.241 108.292L229.942 108.337L229.988 110.637L232.287 110.591L232.241 108.292Z" fill="#21D496"/>
<path d="M231.809 91.5401L229.719 91.5815L229.761 93.6711L231.85 93.6297L231.809 91.5401Z" fill="#21D496"/>
<path d="M231.357 74.794L229.488 74.8311L229.525 76.7007L231.395 76.6636L231.357 74.794Z" fill="#21D496"/>
<path d="M222.546 259.247L218.297 259.332L218.381 263.581L222.63 263.496L222.546 259.247Z" fill="#21D496"/>
<path d="M222.104 242.506L218.075 242.585L218.155 246.615L222.184 246.535L222.104 242.506Z" fill="#21D496"/>
<path d="M221.671 225.754L217.852 225.83L217.928 229.649L221.747 229.573L221.671 225.754Z" fill="#21D496"/>
<path d="M221.229 209.012L217.63 209.083L217.701 212.683L221.301 212.611L221.229 209.012Z" fill="#21D496"/>
<path d="M220.787 192.27L217.408 192.337L217.475 195.717L220.854 195.65L220.787 192.27Z" fill="#21D496"/>
<path d="M220.355 175.528L217.185 175.591L217.248 178.761L220.418 178.698L220.355 175.528Z" fill="#21D496"/>
<path d="M219.902 158.787L216.953 158.845L217.012 161.795L219.961 161.736L219.902 158.787Z" fill="#21D496"/>
<path d="M219.46 142.045L216.731 142.099L216.785 144.829L219.514 144.774L219.46 142.045Z" fill="#21D496"/>
<path d="M219.026 125.297L216.506 125.347L216.556 127.866L219.076 127.816L219.026 125.297Z" fill="#21D496"/>
<path d="M218.585 108.552L216.286 108.597L216.331 110.897L218.631 110.851L218.585 108.552Z" fill="#21D496"/>
<path d="M218.152 91.8126L216.062 91.854L216.104 93.9436L218.193 93.9021L218.152 91.8126Z" fill="#21D496"/>
<path d="M217.71 75.0674L215.841 75.1045L215.878 76.9741L217.747 76.937L217.71 75.0674Z" fill="#21D496"/>
<path d="M208.893 259.528L204.644 259.612L204.729 263.861L208.978 263.777L208.893 259.528Z" fill="#21D496"/>
<path d="M208.451 242.776L204.422 242.856L204.502 246.885L208.531 246.805L208.451 242.776Z" fill="#21D496"/>
<path d="M208.012 226.031L204.192 226.106L204.268 229.926L208.087 229.85L208.012 226.031Z" fill="#21D496"/>
<path d="M207.567 209.292L203.968 209.363L204.039 212.963L207.639 212.891L207.567 209.292Z" fill="#21D496"/>
<path d="M207.127 192.547L203.748 192.614L203.815 195.994L207.194 195.927L207.127 192.547Z" fill="#21D496"/>
<path d="M206.693 175.809L203.523 175.872L203.586 179.041L206.756 178.978L206.693 175.809Z" fill="#21D496"/>
<path d="M206.253 159.063L203.304 159.122L203.362 162.071L206.311 162.012L206.253 159.063Z" fill="#21D496"/>
<path d="M205.808 142.315L203.079 142.369L203.133 145.099L205.863 145.044L205.808 142.315Z" fill="#21D496"/>
<path d="M205.369 125.569L202.849 125.619L202.899 128.139L205.419 128.089L205.369 125.569Z" fill="#21D496"/>
<path d="M204.926 108.828L202.627 108.874L202.672 111.173L204.972 111.127L204.926 108.828Z" fill="#21D496"/>
<path d="M204.494 92.086L202.405 92.1274L202.446 94.217L204.536 94.1756L204.494 92.086Z" fill="#21D496"/>
<path d="M204.053 75.3413L202.183 75.3784L202.221 77.248L204.09 77.2109L204.053 75.3413Z" fill="#21D496"/>
<path d="M195.236 259.791L190.986 259.875L191.071 264.124L195.32 264.04L195.236 259.791Z" fill="#21D496"/>
<path d="M194.793 243.049L190.764 243.129L190.844 247.158L194.873 247.078L194.793 243.049Z" fill="#21D496"/>
<path d="M194.364 226.304L190.545 226.379L190.621 230.199L194.44 230.123L194.364 226.304Z" fill="#21D496"/>
<path d="M193.909 209.565L190.31 209.637L190.381 213.236L193.981 213.165L193.909 209.565Z" fill="#21D496"/>
<path d="M193.47 192.82L190.091 192.887L190.158 196.267L193.537 196.199L193.47 192.82Z" fill="#21D496"/>
<path d="M193.034 176.072L189.865 176.135L189.928 179.304L193.097 179.241L193.034 176.072Z" fill="#21D496"/>
<path d="M192.596 159.326L189.646 159.385L189.705 162.334L192.654 162.276L192.596 159.326Z" fill="#21D496"/>
<path d="M192.151 142.588L189.421 142.642L189.475 145.372L192.205 145.317L192.151 142.588Z" fill="#21D496"/>
<path d="M191.721 125.843L189.201 125.893L189.251 128.412L191.771 128.362L191.721 125.843Z" fill="#21D496"/>
<path d="M191.266 109.105L188.967 109.15L189.012 111.45L191.312 111.404L191.266 109.105Z" fill="#21D496"/>
<path d="M190.837 92.3594L188.747 92.4009L188.788 94.4904L190.878 94.449L190.837 92.3594Z" fill="#21D496"/>
<path d="M190.393 75.6099L188.523 75.647L188.56 77.5166L190.43 77.4795L190.393 75.6099Z" fill="#21D496"/>
<path d="M181.581 260.061L177.332 260.145L177.416 264.394L181.665 264.31L181.581 260.061Z" fill="#21D496"/>
<path d="M181.139 243.319L177.11 243.399L177.19 247.428L181.219 247.348L181.139 243.319Z" fill="#21D496"/>
<path d="M180.704 226.58L176.885 226.656L176.96 230.475L180.779 230.4L180.704 226.58Z" fill="#21D496"/>
<path d="M180.262 209.839L176.662 209.91L176.734 213.509L180.333 213.438L180.262 209.839Z" fill="#21D496"/>
<path d="M179.82 193.086L176.44 193.153L176.507 196.533L179.887 196.466L179.82 193.086Z" fill="#21D496"/>
<path d="M179.377 176.345L176.208 176.408L176.271 179.577L179.44 179.514L179.377 176.345Z" fill="#21D496"/>
<path d="M178.938 159.6L175.988 159.659L176.047 162.608L178.996 162.55L178.938 159.6Z" fill="#21D496"/>
<path d="M178.493 142.861L175.763 142.916L175.818 145.645L178.547 145.591L178.493 142.861Z" fill="#21D496"/>
<path d="M178.063 126.117L175.544 126.167L175.594 128.686L178.113 128.636L178.063 126.117Z" fill="#21D496"/>
<path d="M177.619 109.377L175.32 109.422L175.365 111.722L177.665 111.676L177.619 109.377Z" fill="#21D496"/>
<path d="M177.189 92.6226L175.099 92.6641L175.141 94.7536L177.23 94.7122L177.189 92.6226Z" fill="#21D496"/>
<path d="M176.735 75.8833L174.865 75.9204L174.902 77.79L176.772 77.7529L176.735 75.8833Z" fill="#21D496"/>
<path d="M167.927 260.331L163.678 260.415L163.762 264.664L168.011 264.58L167.927 260.331Z" fill="#21D496"/>
<path d="M167.481 243.592L163.452 243.672L163.532 247.701L167.561 247.621L167.481 243.592Z" fill="#21D496"/>
<path d="M167.052 226.837L163.232 226.913L163.308 230.732L167.127 230.657L167.052 226.837Z" fill="#21D496"/>
<path d="M166.607 210.099L163.007 210.17L163.079 213.769L166.678 213.698L166.607 210.099Z" fill="#21D496"/>
<path d="M166.168 193.354L162.788 193.421L162.855 196.8L166.235 196.733L166.168 193.354Z" fill="#21D496"/>
<path d="M165.729 176.617L162.56 176.68L162.623 179.85L165.792 179.787L165.729 176.617Z" fill="#21D496"/>
<path d="M165.28 159.873L162.331 159.932L162.389 162.881L165.338 162.823L165.28 159.873Z" fill="#21D496"/>
<path d="M164.836 143.134L162.106 143.188L162.16 145.917L164.89 145.863L164.836 143.134Z" fill="#21D496"/>
<path d="M164.406 126.389L161.886 126.439L161.936 128.959L164.456 128.909L164.406 126.389Z" fill="#21D496"/>
<path d="M163.961 109.64L161.661 109.686L161.707 111.985L164.006 111.939L163.961 109.64Z" fill="#21D496"/>
<path d="M163.531 92.8961L161.442 92.9375L161.483 95.0271L163.573 94.9856L163.531 92.8961Z" fill="#21D496"/>
<path d="M163.087 76.1558L161.217 76.1929L161.254 78.0625L163.124 78.0254L163.087 76.1558Z" fill="#21D496"/>
<path d="M154.28 260.604L150.03 260.688L150.115 264.938L154.364 264.853L154.28 260.604Z" fill="#21D496"/>
<path d="M153.834 243.855L149.804 243.935L149.884 247.964L153.913 247.884L153.834 243.855Z" fill="#21D496"/>
<path d="M153.395 227.111L149.576 227.187L149.651 231.006L153.471 230.93L153.395 227.111Z" fill="#21D496"/>
<path d="M152.949 210.372L149.35 210.443L149.421 214.043L153.021 213.971L152.949 210.372Z" fill="#21D496"/>
<path d="M152.51 193.627L149.131 193.694L149.198 197.074L152.577 197.007L152.51 193.627Z" fill="#21D496"/>
<path d="M152.075 176.888L148.906 176.951L148.968 180.12L152.138 180.057L152.075 176.888Z" fill="#21D496"/>
<path d="M151.636 160.144L148.687 160.202L148.745 163.152L151.694 163.093L151.636 160.144Z" fill="#21D496"/>
<path d="M151.19 143.395L148.461 143.449L148.515 146.178L151.245 146.124L151.19 143.395Z" fill="#21D496"/>
<path d="M150.748 126.653L148.229 126.703L148.279 129.222L150.798 129.172L150.748 126.653Z" fill="#21D496"/>
<path d="M150.306 109.911L148.007 109.957L148.052 112.256L150.352 112.21L150.306 109.911Z" fill="#21D496"/>
<path d="M149.874 93.169L147.785 93.2104L147.826 95.3L149.916 95.2586L149.874 93.169Z" fill="#21D496"/>
<path d="M149.435 76.4253L147.565 76.4624L147.602 78.332L149.472 78.2949L149.435 76.4253Z" fill="#21D496"/>
<path d="M140.622 260.867L136.373 260.951L136.457 265.2L140.706 265.116L140.622 260.867Z" fill="#21D496"/>
<path d="M140.18 244.126L136.151 244.206L136.23 248.235L140.26 248.155L140.18 244.126Z" fill="#21D496"/>
<path d="M139.748 227.384L135.928 227.459L136.004 231.279L139.823 231.203L139.748 227.384Z" fill="#21D496"/>
<path d="M139.295 210.642L135.696 210.713L135.767 214.313L139.367 214.241L139.295 210.642Z" fill="#21D496"/>
<path d="M138.853 193.9L135.474 193.967L135.541 197.347L138.92 197.28L138.853 193.9Z" fill="#21D496"/>
<path d="M138.421 177.159L135.252 177.222L135.315 180.391L138.484 180.328L138.421 177.159Z" fill="#21D496"/>
<path d="M137.978 160.407L135.029 160.465L135.088 163.415L138.037 163.356L137.978 160.407Z" fill="#21D496"/>
<path d="M137.536 143.665L134.807 143.719L134.861 146.449L137.59 146.395L137.536 143.665Z" fill="#21D496"/>
<path d="M137.104 126.923L134.585 126.973L134.635 129.493L137.154 129.443L137.104 126.923Z" fill="#21D496"/>
<path d="M136.652 110.182L134.352 110.228L134.398 112.527L136.697 112.481L136.652 110.182Z" fill="#21D496"/>
<path d="M136.22 93.4405L134.13 93.4819L134.171 95.5715L136.261 95.5301L136.22 93.4405Z" fill="#21D496"/>
<path d="M135.777 76.6988L133.908 76.7358L133.945 78.6054L135.814 78.5684L135.777 76.6988Z" fill="#21D496"/>
<path d="M126.953 261.149L122.704 261.233L122.789 265.482L127.038 265.398L126.953 261.149Z" fill="#21D496"/>
<path d="M126.515 244.404L122.486 244.484L122.566 248.513L126.595 248.433L126.515 244.404Z" fill="#21D496"/>
<path d="M126.083 227.662L122.264 227.738L122.339 231.557L126.159 231.481L126.083 227.662Z" fill="#21D496"/>
<path d="M125.641 210.92L122.041 210.992L122.113 214.591L125.712 214.52L125.641 210.92Z" fill="#21D496"/>
<path d="M125.202 194.166L121.823 194.233L121.89 197.613L125.269 197.546L125.202 194.166Z" fill="#21D496"/>
<path d="M124.756 177.427L121.586 177.49L121.649 180.659L124.818 180.596L124.756 177.427Z" fill="#21D496"/>
<path d="M124.318 160.682L121.369 160.741L121.427 163.69L124.377 163.632L124.318 160.682Z" fill="#21D496"/>
<path d="M123.872 143.943L121.142 143.997L121.196 146.727L123.926 146.672L123.872 143.943Z" fill="#21D496"/>
<path d="M123.443 127.199L120.924 127.249L120.974 129.768L123.493 129.719L123.443 127.199Z" fill="#21D496"/>
<path d="M123.001 110.457L120.701 110.503L120.747 112.802L123.046 112.757L123.001 110.457Z" fill="#21D496"/>
<path d="M122.569 93.7051L120.479 93.7466L120.521 95.8361L122.61 95.7947L122.569 93.7051Z" fill="#21D496"/>
<path d="M122.117 76.9634L120.247 77.0005L120.284 78.8701L122.154 78.833L122.117 76.9634Z" fill="#21D496"/>
<path d="M113.303 261.416L109.054 261.5L109.139 265.75L113.388 265.665L113.303 261.416Z" fill="#21D496"/>
<path d="M112.861 244.674L108.832 244.754L108.912 248.784L112.941 248.704L112.861 244.674Z" fill="#21D496"/>
<path d="M112.429 227.933L108.61 228.008L108.686 231.828L112.505 231.752L112.429 227.933Z" fill="#21D496"/>
<path d="M111.983 211.183L108.384 211.254L108.455 214.854L112.054 214.782L111.983 211.183Z" fill="#21D496"/>
<path d="M111.541 194.441L108.162 194.508L108.229 197.887L111.608 197.82L111.541 194.441Z" fill="#21D496"/>
<path d="M111.108 177.699L107.939 177.762L108.002 180.932L111.171 180.869L111.108 177.699Z" fill="#21D496"/>
<path d="M110.66 160.956L107.711 161.014L107.769 163.964L110.719 163.905L110.66 160.956Z" fill="#21D496"/>
<path d="M110.214 144.215L107.484 144.27L107.539 146.999L110.268 146.945L110.214 144.215Z" fill="#21D496"/>
<path d="M109.786 127.472L107.266 127.522L107.316 130.041L109.836 129.991L109.786 127.472Z" fill="#21D496"/>
<path d="M109.34 110.721L107.04 110.767L107.086 113.067L109.386 113.021L109.34 110.721Z" fill="#21D496"/>
<path d="M108.911 93.9781L106.822 94.0195L106.863 96.1091L108.953 96.0677L108.911 93.9781Z" fill="#21D496"/>
<path d="M108.465 77.2368L106.596 77.2739L106.633 79.1435L108.502 79.1065L108.465 77.2368Z" fill="#21D496"/>
<path d="M99.6559 261.689L95.4067 261.773L95.491 266.023L99.7401 265.938L99.6559 261.689Z" fill="#21D496"/>
<path d="M99.2035 244.938L95.1744 245.018L95.2543 249.047L99.2835 248.967L99.2035 244.938Z" fill="#21D496"/>
<path d="M98.7713 228.196L94.9521 228.271L95.0279 232.091L98.8471 232.015L98.7713 228.196Z" fill="#21D496"/>
<path d="M98.3291 211.454L94.7299 211.525L94.8012 215.125L98.4005 215.053L98.3291 211.454Z" fill="#21D496"/>
<path d="M97.887 194.712L94.5077 194.779L94.5747 198.159L97.954 198.092L97.887 194.712Z" fill="#21D496"/>
<path d="M97.4548 177.97L94.2855 178.033L94.3483 181.203L97.5177 181.14L97.4548 177.97Z" fill="#21D496"/>
<path d="M97.0084 161.231L94.0591 161.289L94.1176 164.238L97.0669 164.18L97.0084 161.231Z" fill="#21D496"/>
<path d="M96.5566 144.479L93.8271 144.533L93.8813 147.262L96.6107 147.208L96.5566 144.479Z" fill="#21D496"/>
<path d="M96.1239 127.737L93.6044 127.787L93.6544 130.306L96.1739 130.256L96.1239 127.737Z" fill="#21D496"/>
<path d="M95.6817 110.994L93.3822 111.04L93.4278 113.34L95.7273 113.294L95.6817 110.994Z" fill="#21D496"/>
<path d="M95.2533 94.2515L93.1637 94.293L93.2052 96.3825L95.2947 96.3411L95.2533 94.2515Z" fill="#21D496"/>
<path d="M94.8073 77.5098L92.9377 77.5469L92.9748 79.4165L94.8444 79.3794L94.8073 77.5098Z" fill="#21D496"/>
</g>
</svg>
