<svg width="242" height="242" viewBox="0 0 242 242" fill="none" xmlns="http://www.w3.org/2000/svg">
<g opacity="0.2">
<path d="M238.67 129.427L235.664 132.432L238.67 135.438L241.675 132.432L238.67 129.427Z" fill="#EB044F"/>
<path d="M226.751 117.667L223.901 120.517L226.751 123.367L229.6 120.517L226.751 117.667Z" fill="#EB044F"/>
<path d="M214.838 105.896L212.137 108.597L214.838 111.298L217.539 108.597L214.838 105.896Z" fill="#EB044F"/>
<path d="M202.92 94.1362L200.374 96.6818L202.92 99.2273L205.465 96.6818L202.92 94.1362Z" fill="#EB044F"/>
<path d="M190.991 82.374L188.601 84.764L190.991 87.154L193.381 84.764L190.991 82.374Z" fill="#EB044F"/>
<path d="M179.073 70.6005L176.831 72.842L179.073 75.0835L181.314 72.842L179.073 70.6005Z" fill="#EB044F"/>
<path d="M167.151 58.8321L165.065 60.9181L167.151 63.004L169.237 60.9181L167.151 58.8321Z" fill="#EB044F"/>
<path d="M155.233 47.0718L153.303 49.0022L155.233 50.9326L157.164 49.0022L155.233 47.0718Z" fill="#EB044F"/>
<path d="M143.318 35.2966L141.536 37.0785L143.318 38.8604L145.1 37.0785L143.318 35.2966Z" fill="#EB044F"/>
<path d="M131.401 23.5354L129.774 25.1617L131.401 26.7881L133.027 25.1617L131.401 23.5354Z" fill="#EB044F"/>
<path d="M119.479 11.7681L118.001 13.246L119.479 14.7238L120.956 13.246L119.479 11.7681Z" fill="#EB044F"/>
<path d="M107.554 -1.32688e-05L106.232 1.32227L107.554 2.64454L108.877 1.32226L107.554 -1.32688e-05Z" fill="#EB044F"/>
<path d="M229.012 139.088L226.007 142.093L229.012 145.098L232.017 142.093L229.012 139.088Z" fill="#EB044F"/>
<path d="M217.093 127.328L214.244 130.178L217.093 133.028L219.943 130.178L217.093 127.328Z" fill="#EB044F"/>
<path d="M205.179 115.553L202.478 118.254L205.179 120.956L207.881 118.254L205.179 115.553Z" fill="#EB044F"/>
<path d="M193.26 103.793L190.715 106.338L193.26 108.884L195.806 106.338L193.26 103.793Z" fill="#EB044F"/>
<path d="M181.334 92.0215L178.944 94.4115L181.334 96.8015L183.724 94.4115L181.334 92.0215Z" fill="#EB044F"/>
<path d="M169.414 80.2572L167.172 82.4987L169.414 84.7402L171.655 82.4987L169.414 80.2572Z" fill="#EB044F"/>
<path d="M157.494 68.4935L155.408 70.5794L157.494 72.6653L159.58 70.5794L157.494 68.4935Z" fill="#EB044F"/>
<path d="M145.574 56.7282L143.643 58.6586L145.574 60.5889L147.504 58.6586L145.574 56.7282Z" fill="#EB044F"/>
<path d="M133.661 44.9574L131.879 46.7393L133.661 48.5212L135.443 46.7393L133.661 44.9574Z" fill="#EB044F"/>
<path d="M121.741 33.1931L120.115 34.8195L121.741 36.4458L123.367 34.8195L121.741 33.1931Z" fill="#EB044F"/>
<path d="M109.821 21.4152L108.344 22.8931L109.821 24.3709L111.299 22.8931L109.821 21.4152Z" fill="#EB044F"/>
<path d="M97.8918 9.65434L96.5695 10.9766L97.8918 12.2989L99.2141 10.9766L97.8918 9.65434Z" fill="#EB044F"/>
<path d="M219.355 148.749L216.35 151.754L219.355 154.759L222.36 151.754L219.355 148.749Z" fill="#EB044F"/>
<path d="M207.435 136.985L204.585 139.834L207.435 142.684L210.285 139.834L207.435 136.985Z" fill="#EB044F"/>
<path d="M195.515 125.206L192.814 127.908L195.515 130.609L198.216 127.908L195.515 125.206Z" fill="#EB044F"/>
<path d="M183.595 113.442L181.049 115.988L183.595 118.533L186.14 115.988L183.595 113.442Z" fill="#EB044F"/>
<path d="M171.675 101.678L169.285 104.068L171.675 106.458L174.065 104.068L171.675 101.678Z" fill="#EB044F"/>
<path d="M159.762 89.9068L157.521 92.1483L159.762 94.3898L162.004 92.1483L159.762 89.9068Z" fill="#EB044F"/>
<path d="M147.835 78.1498L145.749 80.2357L147.835 82.3217L149.921 80.2357L147.835 78.1498Z" fill="#EB044F"/>
<path d="M135.915 66.3857L133.985 68.316L135.915 70.2464L137.845 68.316L135.915 66.3857Z" fill="#EB044F"/>
<path d="M123.996 54.6112L122.214 56.3931L123.996 58.175L125.778 56.3931L123.996 54.6112Z" fill="#EB044F"/>
<path d="M112.075 42.8433L110.449 44.4697L112.075 46.096L113.701 44.4697L112.075 42.8433Z" fill="#EB044F"/>
<path d="M100.163 31.0752L98.6854 32.553L100.163 34.0309L101.641 32.553L100.163 31.0752Z" fill="#EB044F"/>
<path d="M88.2418 19.3082L86.9195 20.6304L88.2418 21.9527L89.5641 20.6304L88.2418 19.3082Z" fill="#EB044F"/>
<path d="M209.706 158.412L206.7 161.417L209.706 164.422L212.711 161.417L209.706 158.412Z" fill="#EB044F"/>
<path d="M197.779 146.64L194.929 149.49L197.779 152.34L200.628 149.49L197.779 146.64Z" fill="#EB044F"/>
<path d="M185.858 134.872L183.157 137.573L185.858 140.274L188.559 137.573L185.858 134.872Z" fill="#EB044F"/>
<path d="M173.939 123.111L171.393 125.657L173.939 128.202L176.484 125.657L173.939 123.111Z" fill="#EB044F"/>
<path d="M162.018 111.343L159.628 113.733L162.018 116.123L164.408 113.733L162.018 111.343Z" fill="#EB044F"/>
<path d="M150.106 99.576L147.865 101.818L150.106 104.059L152.348 101.818L150.106 99.576Z" fill="#EB044F"/>
<path d="M138.186 87.8075L136.1 89.8935L138.185 91.9794L140.271 89.8935L138.186 87.8075Z" fill="#EB044F"/>
<path d="M126.259 76.0403L124.329 77.9706L126.259 79.901L128.19 77.9706L126.259 76.0403Z" fill="#EB044F"/>
<path d="M114.338 64.2715L112.557 66.0534L114.338 67.8353L116.12 66.0534L114.338 64.2715Z" fill="#EB044F"/>
<path d="M102.419 52.5079L100.792 54.1342L102.419 55.7605L104.045 54.1342L102.419 52.5079Z" fill="#EB044F"/>
<path d="M90.5059 40.7365L89.028 42.2143L90.5059 43.6921L91.9837 42.2143L90.5059 40.7365Z" fill="#EB044F"/>
<path d="M78.5849 28.9694L77.2626 30.2917L78.5849 31.614L79.9072 30.2917L78.5849 28.9694Z" fill="#EB044F"/>
<path d="M200.041 168.066L197.036 171.071L200.041 174.076L203.046 171.071L200.041 168.066Z" fill="#EB044F"/>
<path d="M188.121 156.301L185.271 159.151L188.121 162L190.97 159.151L188.121 156.301Z" fill="#EB044F"/>
<path d="M176.208 144.525L173.507 147.227L176.208 149.928L178.909 147.227L176.208 144.525Z" fill="#EB044F"/>
<path d="M164.281 132.773L161.735 135.318L164.281 137.864L166.827 135.318L164.281 132.773Z" fill="#EB044F"/>
<path d="M152.361 121.004L149.971 123.394L152.361 125.784L154.751 123.394L152.361 121.004Z" fill="#EB044F"/>
<path d="M140.441 109.23L138.2 111.472L140.441 113.713L142.683 111.472L140.441 109.23Z" fill="#EB044F"/>
<path d="M128.521 97.4609L126.435 99.5469L128.521 101.633L130.607 99.5469L128.521 97.4609Z" fill="#EB044F"/>
<path d="M116.601 85.7011L114.671 87.6315L116.601 89.5619L118.532 87.6315L116.601 85.7011Z" fill="#EB044F"/>
<path d="M104.688 73.9259L102.906 75.7078L104.688 77.4897L106.47 75.7078L104.688 73.9259Z" fill="#EB044F"/>
<path d="M92.7617 62.1729L91.1354 63.7992L92.7617 65.4255L94.3881 63.7992L92.7617 62.1729Z" fill="#EB044F"/>
<path d="M80.8482 50.3974L79.3704 51.8752L80.8482 53.3531L82.3261 51.8752L80.8482 50.3974Z" fill="#EB044F"/>
<path d="M68.9219 38.629L67.5996 39.9512L68.9219 41.2735L70.2442 39.9512L68.9219 38.629Z" fill="#EB044F"/>
<path d="M190.383 177.722L187.378 180.727L190.383 183.732L193.388 180.727L190.383 177.722Z" fill="#EB044F"/>
<path d="M178.463 165.958L175.613 168.807L178.463 171.657L181.313 168.807L178.463 165.958Z" fill="#EB044F"/>
<path d="M166.55 154.191L163.849 156.892L166.55 159.593L169.251 156.892L166.55 154.191Z" fill="#EB044F"/>
<path d="M154.63 142.426L152.085 144.972L154.63 147.518L157.176 144.972L154.63 142.426Z" fill="#EB044F"/>
<path d="M142.703 130.654L140.313 133.044L142.703 135.434L145.093 133.044L142.703 130.654Z" fill="#EB044F"/>
<path d="M130.783 118.891L128.542 121.132L130.783 123.374L133.025 121.132L130.783 118.891Z" fill="#EB044F"/>
<path d="M118.863 107.122L116.777 109.208L118.863 111.294L120.949 109.208L118.863 107.122Z" fill="#EB044F"/>
<path d="M106.943 95.362L105.013 97.2924L106.943 99.2228L108.874 97.2924L106.943 95.362Z" fill="#EB044F"/>
<path d="M95.0305 83.5867L93.2486 85.3686L95.0305 87.1505L96.8124 85.3686L95.0305 83.5867Z" fill="#EB044F"/>
<path d="M83.1107 71.8256L81.4844 73.452L83.1107 75.0783L84.737 73.452L83.1107 71.8256Z" fill="#EB044F"/>
<path d="M71.1906 60.0441L69.7128 61.5219L71.1906 62.9998L72.6685 61.5219L71.1906 60.0441Z" fill="#EB044F"/>
<path d="M59.2638 48.2902L57.9415 49.6125L59.2638 50.9348L60.5861 49.6125L59.2638 48.2902Z" fill="#EB044F"/>
<path d="M180.725 187.378L177.72 190.383L180.725 193.389L183.73 190.383L180.725 187.378Z" fill="#EB044F"/>
<path d="M168.805 175.619L165.956 178.468L168.805 181.318L171.655 178.468L168.805 175.619Z" fill="#EB044F"/>
<path d="M156.885 163.836L154.184 166.538L156.885 169.239L159.587 166.538L156.885 163.836Z" fill="#EB044F"/>
<path d="M144.965 152.076L142.42 154.622L144.965 157.167L147.511 154.622L144.965 152.076Z" fill="#EB044F"/>
<path d="M133.046 140.307L130.656 142.697L133.046 145.087L135.436 142.697L133.046 140.307Z" fill="#EB044F"/>
<path d="M121.132 128.544L118.891 130.786L121.132 133.028L123.374 130.786L121.132 128.544Z" fill="#EB044F"/>
<path d="M109.206 116.784L107.12 118.87L109.206 120.956L111.292 118.87L109.206 116.784Z" fill="#EB044F"/>
<path d="M97.2856 105.022L95.3552 106.953L97.2856 108.883L99.2159 106.953L97.2856 105.022Z" fill="#EB044F"/>
<path d="M85.3729 93.2476L83.591 95.0295L85.3729 96.8114L87.1548 95.0295L85.3729 93.2476Z" fill="#EB044F"/>
<path d="M73.4456 81.48L71.8193 83.1063L73.4456 84.7327L75.072 83.1063L73.4456 81.48Z" fill="#EB044F"/>
<path d="M61.533 69.7054L60.0552 71.1832L61.533 72.6611L63.0109 71.1832L61.533 69.7054Z" fill="#EB044F"/>
<path d="M49.6128 57.944L48.2905 59.2663L49.6128 60.5886L50.935 59.2663L49.6128 57.944Z" fill="#EB044F"/>
<path d="M171.075 197.032L168.07 200.037L171.075 203.042L174.08 200.037L171.075 197.032Z" fill="#EB044F"/>
<path d="M159.148 185.265L156.298 188.115L159.148 190.964L161.997 188.115L159.148 185.265Z" fill="#EB044F"/>
<path d="M147.228 173.497L144.527 176.198L147.228 178.899L149.929 176.198L147.228 173.497Z" fill="#EB044F"/>
<path d="M135.308 161.737L132.762 164.282L135.308 166.828L137.853 164.282L135.308 161.737Z" fill="#EB044F"/>
<path d="M123.388 149.968L120.998 152.358L123.388 154.748L125.778 152.358L123.388 149.968Z" fill="#EB044F"/>
<path d="M111.475 138.201L109.234 140.443L111.475 142.684L113.717 140.443L111.475 138.201Z" fill="#EB044F"/>
<path d="M99.5557 126.433L97.4698 128.519L99.5557 130.605L101.642 128.519L99.5557 126.433Z" fill="#EB044F"/>
<path d="M87.6282 114.666L85.6978 116.596L87.6282 118.526L89.5585 116.596L87.6282 114.666Z" fill="#EB044F"/>
<path d="M75.7082 102.901L73.9263 104.683L75.7082 106.465L77.4901 104.683L75.7082 102.901Z" fill="#EB044F"/>
<path d="M63.7883 91.1372L62.162 92.7635L63.7883 94.3898L65.4147 92.7635L63.7883 91.1372Z" fill="#EB044F"/>
<path d="M51.8755 79.3654L50.3977 80.8433L51.8755 82.3211L53.3534 80.8433L51.8755 79.3654Z" fill="#EB044F"/>
<path d="M39.9564 67.5984L38.6341 68.9207L39.9564 70.2429L41.2787 68.9207L39.9564 67.5984Z" fill="#EB044F"/>
<path d="M161.411 206.686L158.405 209.691L161.411 212.696L164.416 209.691L161.411 206.686Z" fill="#EB044F"/>
<path d="M149.491 194.922L146.641 197.771L149.491 200.621L152.34 197.771L149.491 194.922Z" fill="#EB044F"/>
<path d="M137.578 183.15L134.877 185.852L137.578 188.553L140.279 185.852L137.578 183.15Z" fill="#EB044F"/>
<path d="M125.651 171.393L123.105 173.939L125.651 176.484L128.197 173.939L125.651 171.393Z" fill="#EB044F"/>
<path d="M113.731 159.629L111.341 162.019L113.731 164.409L116.121 162.019L113.731 159.629Z" fill="#EB044F"/>
<path d="M101.819 147.858L99.577 150.099L101.819 152.341L104.06 150.099L101.819 147.858Z" fill="#EB044F"/>
<path d="M89.8913 136.087L87.8054 138.173L89.8913 140.259L91.9773 138.173L89.8913 136.087Z" fill="#EB044F"/>
<path d="M77.9715 124.323L76.0411 126.253L77.9715 128.183L79.9018 126.253L77.9715 124.323Z" fill="#EB044F"/>
<path d="M66.0587 112.551L64.2768 114.333L66.0587 116.115L67.8406 114.333L66.0587 112.551Z" fill="#EB044F"/>
<path d="M54.1318 100.794L52.5055 102.421L54.1318 104.047L55.7582 102.421L54.1318 100.794Z" fill="#EB044F"/>
<path d="M42.219 89.0233L40.7412 90.5012L42.219 91.979L43.6969 90.5012L42.219 89.0233Z" fill="#EB044F"/>
<path d="M30.2992 77.2596L28.9769 78.5818L30.2992 79.9041L31.6215 78.5818L30.2992 77.2596Z" fill="#EB044F"/>
<path d="M151.751 216.36L148.746 219.365L151.751 222.371L154.756 219.365L151.751 216.36Z" fill="#EB044F"/>
<path d="M139.832 204.591L136.982 207.441L139.832 210.291L142.681 207.441L139.832 204.591Z" fill="#EB044F"/>
<path d="M127.919 192.82L125.218 195.521L127.919 198.222L130.62 195.521L127.919 192.82Z" fill="#EB044F"/>
<path d="M115.999 181.056L113.453 183.601L115.999 186.147L118.544 183.601L115.999 181.056Z" fill="#EB044F"/>
<path d="M104.073 169.28L101.683 171.67L104.073 174.06L106.463 171.67L104.073 169.28Z" fill="#EB044F"/>
<path d="M92.1515 157.521L89.91 159.762L92.1515 162.004L94.393 159.762L92.1515 157.521Z" fill="#EB044F"/>
<path d="M80.233 145.751L78.1471 147.837L80.233 149.923L82.319 147.837L80.233 145.751Z" fill="#EB044F"/>
<path d="M68.3117 133.991L66.3813 135.922L68.3117 137.852L70.2421 135.922L68.3117 133.991Z" fill="#EB044F"/>
<path d="M56.4001 122.216L54.6182 123.998L56.4001 125.78L58.182 123.998L56.4001 122.216Z" fill="#EB044F"/>
<path d="M44.48 110.452L42.8537 112.079L44.48 113.705L46.1063 112.079L44.48 110.452Z" fill="#EB044F"/>
<path d="M32.5603 98.6734L31.0824 100.151L32.5602 101.629L34.0381 100.151L32.5603 98.6734Z" fill="#EB044F"/>
<path d="M20.6335 86.9159L19.3112 88.2382L20.6335 89.5605L21.9558 88.2382L20.6335 86.9159Z" fill="#EB044F"/>
<path d="M142.095 226.012L139.09 229.017L142.095 232.022L145.1 229.017L142.095 226.012Z" fill="#EB044F"/>
<path d="M130.175 214.248L127.325 217.097L130.175 219.947L133.024 217.097L130.175 214.248Z" fill="#EB044F"/>
<path d="M118.262 202.476L115.561 205.178L118.262 207.879L120.963 205.178L118.262 202.476Z" fill="#EB044F"/>
<path d="M106.334 190.709L103.788 193.255L106.334 195.801L108.879 193.255L106.334 190.709Z" fill="#EB044F"/>
<path d="M94.414 178.945L92.024 181.335L94.414 183.725L96.804 181.335L94.414 178.945Z" fill="#EB044F"/>
<path d="M82.5009 167.174L80.2594 169.415L82.5009 171.657L84.7424 169.415L82.5009 167.174Z" fill="#EB044F"/>
<path d="M70.5752 155.412L68.4893 157.498L70.5752 159.584L72.6612 157.498L70.5752 155.412Z" fill="#EB044F"/>
<path d="M58.6536 143.652L56.7233 145.583L58.6537 147.513L60.584 145.583L58.6536 143.652Z" fill="#EB044F"/>
<path d="M46.7425 131.877L44.9606 133.659L46.7425 135.441L48.5244 133.659L46.7425 131.877Z" fill="#EB044F"/>
<path d="M34.8138 120.109L33.1875 121.735L34.8138 123.362L36.4402 121.735L34.8138 120.109Z" fill="#EB044F"/>
<path d="M22.9026 108.334L21.4248 109.812L22.9026 111.29L24.3805 109.812L22.9026 108.334Z" fill="#EB044F"/>
<path d="M10.9804 96.5732L9.6581 97.8955L10.9804 99.2178L12.3027 97.8955L10.9804 96.5732Z" fill="#EB044F"/>
<path d="M132.444 235.666L129.439 238.671L132.444 241.676L135.449 238.671L132.444 235.666Z" fill="#EB044F"/>
<path d="M120.51 223.902L117.661 226.751L120.51 229.601L123.36 226.751L120.51 223.902Z" fill="#EB044F"/>
<path d="M108.597 212.13L105.896 214.831L108.597 217.533L111.299 214.831L108.597 212.13Z" fill="#EB044F"/>
<path d="M96.6774 200.366L94.1319 202.912L96.6774 205.457L99.223 202.912L96.6774 200.366Z" fill="#EB044F"/>
<path d="M84.7575 188.602L82.3676 190.992L84.7575 193.382L87.1475 190.992L84.7575 188.602Z" fill="#EB044F"/>
<path d="M72.8447 176.831L70.6031 179.072L72.8447 181.314L75.0862 179.072L72.8447 176.831Z" fill="#EB044F"/>
<path d="M60.9229 165.07L58.8369 167.156L60.9229 169.242L63.0088 167.156L60.9229 165.07Z" fill="#EB044F"/>
<path d="M48.9889 153.306L47.0585 155.236L48.9889 157.166L50.9193 155.236L48.9889 153.306Z" fill="#EB044F"/>
<path d="M37.0757 141.535L35.2938 143.316L37.0757 145.098L38.8576 143.316L37.0757 141.535Z" fill="#EB044F"/>
<path d="M25.1555 129.77L23.5292 131.396L25.1555 133.023L26.7819 131.396L25.1555 129.77Z" fill="#EB044F"/>
<path d="M13.2447 117.995L11.7669 119.473L13.2447 120.951L14.7226 119.473L13.2447 117.995Z" fill="#EB044F"/>
<path d="M1.32228 106.234L0 107.556L1.32228 108.879L2.64456 107.556L1.32228 106.234Z" fill="#EB044F"/>
</g>
</svg>
