<svg width="1905" height="1288" viewBox="0 0 1905 1288" fill="none" xmlns="http://www.w3.org/2000/svg">
<path opacity="0.04" d="M581 302.5C581 455.72 456.574 580 303 580C149.426 580 25 455.72 25 302.5C25 149.28 149.426 25 303 25C456.574 25 581 149.28 581 302.5Z" stroke="#EB044F" stroke-width="50"/>
<g opacity="0.5">
<path d="M452.861 938.701L448.612 938.785L448.696 943.034L452.945 942.95L452.861 938.701Z" fill="#21D496"/>
<path d="M452.416 921.963L448.387 922.043L448.467 926.072L452.496 925.992L452.416 921.963Z" fill="#21D496"/>
<path d="M451.984 905.221L448.165 905.297L448.241 909.116L452.06 909.04L451.984 905.221Z" fill="#21D496"/>
<path d="M451.54 888.484L447.941 888.555L448.012 892.154L451.612 892.083L451.54 888.484Z" fill="#21D496"/>
<path d="M451.09 871.737L447.711 871.804L447.778 875.183L451.157 875.116L451.09 871.737Z" fill="#21D496"/>
<path d="M450.656 854.99L447.486 855.053L447.549 858.223L450.719 858.16L450.656 854.99Z" fill="#21D496"/>
<path d="M450.215 838.244L447.266 838.303L447.324 841.252L450.274 841.194L450.215 838.244Z" fill="#21D496"/>
<path d="M449.772 821.507L447.042 821.561L447.097 824.29L449.826 824.236L449.772 821.507Z" fill="#21D496"/>
<path d="M449.341 804.761L446.821 804.811L446.871 807.33L449.391 807.28L449.341 804.761Z" fill="#21D496"/>
<path d="M448.898 788.022L446.599 788.068L446.644 790.367L448.944 790.322L448.898 788.022Z" fill="#21D496"/>
<path d="M448.457 771.277L446.367 771.318L446.409 773.408L448.498 773.366L448.457 771.277Z" fill="#21D496"/>
<path d="M448.014 754.529L446.144 754.566L446.182 756.436L448.051 756.399L448.014 754.529Z" fill="#21D496"/>
<path d="M439.203 938.974L434.954 939.058L435.039 943.307L439.288 943.223L439.203 938.974Z" fill="#21D496"/>
<path d="M438.759 922.236L434.73 922.316L434.81 926.345L438.839 926.265L438.759 922.236Z" fill="#21D496"/>
<path d="M438.329 905.491L434.509 905.566L434.585 909.386L438.404 909.31L438.329 905.491Z" fill="#21D496"/>
<path d="M437.885 888.752L434.285 888.824L434.357 892.423L437.956 892.352L437.885 888.752Z" fill="#21D496"/>
<path d="M437.442 872.001L434.063 872.068L434.13 875.447L437.509 875.38L437.442 872.001Z" fill="#21D496"/>
<path d="M437 855.259L433.831 855.322L433.894 858.491L437.063 858.428L437 855.259Z" fill="#21D496"/>
<path d="M436.558 838.518L433.608 838.576L433.667 841.526L436.616 841.467L436.558 838.518Z" fill="#21D496"/>
<path d="M436.116 821.775L433.387 821.829L433.441 824.559L436.17 824.504L436.116 821.775Z" fill="#21D496"/>
<path d="M435.684 805.034L433.164 805.083L433.214 807.603L435.734 807.553L435.684 805.034Z" fill="#21D496"/>
<path d="M435.241 788.292L432.942 788.337L432.988 790.637L435.287 790.591L435.241 788.292Z" fill="#21D496"/>
<path d="M434.809 771.54L432.719 771.582L432.761 773.671L434.85 773.63L434.809 771.54Z" fill="#21D496"/>
<path d="M434.357 754.794L432.488 754.831L432.525 756.701L434.395 756.664L434.357 754.794Z" fill="#21D496"/>
<path d="M425.546 939.247L421.297 939.332L421.381 943.581L425.63 943.496L425.546 939.247Z" fill="#21D496"/>
<path d="M425.104 922.506L421.075 922.585L421.155 926.615L425.184 926.535L425.104 922.506Z" fill="#21D496"/>
<path d="M424.671 905.754L420.852 905.83L420.928 909.649L424.747 909.573L424.671 905.754Z" fill="#21D496"/>
<path d="M424.229 889.012L420.63 889.083L420.701 892.683L424.301 892.611L424.229 889.012Z" fill="#21D496"/>
<path d="M423.787 872.27L420.408 872.337L420.475 875.717L423.854 875.65L423.787 872.27Z" fill="#21D496"/>
<path d="M423.355 855.528L420.185 855.591L420.248 858.761L423.418 858.698L423.355 855.528Z" fill="#21D496"/>
<path d="M422.902 838.787L419.953 838.845L420.012 841.795L422.961 841.736L422.902 838.787Z" fill="#21D496"/>
<path d="M422.46 822.045L419.731 822.099L419.785 824.829L422.514 824.774L422.46 822.045Z" fill="#21D496"/>
<path d="M422.026 805.297L419.506 805.347L419.556 807.866L422.076 807.816L422.026 805.297Z" fill="#21D496"/>
<path d="M421.585 788.552L419.286 788.597L419.331 790.897L421.631 790.851L421.585 788.552Z" fill="#21D496"/>
<path d="M421.152 771.813L419.062 771.854L419.104 773.944L421.193 773.902L421.152 771.813Z" fill="#21D496"/>
<path d="M420.71 755.067L418.841 755.104L418.878 756.974L420.747 756.937L420.71 755.067Z" fill="#21D496"/>
<path d="M411.893 939.528L407.644 939.612L407.729 943.861L411.978 943.777L411.893 939.528Z" fill="#21D496"/>
<path d="M411.451 922.776L407.422 922.856L407.502 926.885L411.531 926.805L411.451 922.776Z" fill="#21D496"/>
<path d="M411.012 906.031L407.192 906.106L407.268 909.926L411.087 909.85L411.012 906.031Z" fill="#21D496"/>
<path d="M410.567 889.292L406.968 889.363L407.039 892.963L410.639 892.891L410.567 889.292Z" fill="#21D496"/>
<path d="M410.127 872.547L406.748 872.614L406.815 875.994L410.194 875.927L410.127 872.547Z" fill="#21D496"/>
<path d="M409.693 855.809L406.523 855.872L406.586 859.041L409.756 858.978L409.693 855.809Z" fill="#21D496"/>
<path d="M409.253 839.063L406.304 839.122L406.362 842.071L409.311 842.012L409.253 839.063Z" fill="#21D496"/>
<path d="M408.808 822.315L406.079 822.369L406.133 825.099L408.863 825.044L408.808 822.315Z" fill="#21D496"/>
<path d="M408.369 805.569L405.849 805.619L405.899 808.139L408.419 808.089L408.369 805.569Z" fill="#21D496"/>
<path d="M407.926 788.828L405.627 788.874L405.672 791.173L407.972 791.127L407.926 788.828Z" fill="#21D496"/>
<path d="M407.494 772.086L405.405 772.127L405.446 774.217L407.536 774.176L407.494 772.086Z" fill="#21D496"/>
<path d="M407.053 755.341L405.183 755.378L405.221 757.248L407.09 757.211L407.053 755.341Z" fill="#21D496"/>
<path d="M398.236 939.791L393.986 939.875L394.071 944.124L398.32 944.04L398.236 939.791Z" fill="#21D496"/>
<path d="M397.793 923.049L393.764 923.129L393.844 927.158L397.873 927.078L397.793 923.049Z" fill="#21D496"/>
<path d="M397.364 906.304L393.545 906.379L393.621 910.199L397.44 910.123L397.364 906.304Z" fill="#21D496"/>
<path d="M396.909 889.565L393.31 889.637L393.381 893.236L396.981 893.165L396.909 889.565Z" fill="#21D496"/>
<path d="M396.47 872.82L393.091 872.887L393.158 876.267L396.537 876.199L396.47 872.82Z" fill="#21D496"/>
<path d="M396.034 856.072L392.865 856.135L392.928 859.304L396.097 859.241L396.034 856.072Z" fill="#21D496"/>
<path d="M395.596 839.326L392.646 839.385L392.705 842.334L395.654 842.276L395.596 839.326Z" fill="#21D496"/>
<path d="M395.151 822.588L392.421 822.642L392.475 825.372L395.205 825.317L395.151 822.588Z" fill="#21D496"/>
<path d="M394.721 805.843L392.201 805.893L392.251 808.412L394.771 808.362L394.721 805.843Z" fill="#21D496"/>
<path d="M394.266 789.105L391.967 789.15L392.012 791.45L394.312 791.404L394.266 789.105Z" fill="#21D496"/>
<path d="M393.837 772.359L391.747 772.401L391.788 774.49L393.878 774.449L393.837 772.359Z" fill="#21D496"/>
<path d="M393.393 755.61L391.523 755.647L391.56 757.517L393.43 757.48L393.393 755.61Z" fill="#21D496"/>
<path d="M384.581 940.061L380.332 940.145L380.416 944.394L384.665 944.31L384.581 940.061Z" fill="#21D496"/>
<path d="M384.139 923.319L380.11 923.399L380.19 927.428L384.219 927.348L384.139 923.319Z" fill="#21D496"/>
<path d="M383.704 906.58L379.885 906.656L379.96 910.475L383.779 910.4L383.704 906.58Z" fill="#21D496"/>
<path d="M383.262 889.839L379.662 889.91L379.734 893.509L383.333 893.438L383.262 889.839Z" fill="#21D496"/>
<path d="M382.82 873.086L379.44 873.153L379.507 876.533L382.887 876.466L382.82 873.086Z" fill="#21D496"/>
<path d="M382.377 856.345L379.208 856.408L379.271 859.577L382.44 859.514L382.377 856.345Z" fill="#21D496"/>
<path d="M381.938 839.6L378.988 839.659L379.047 842.608L381.996 842.55L381.938 839.6Z" fill="#21D496"/>
<path d="M381.493 822.861L378.763 822.916L378.818 825.645L381.547 825.591L381.493 822.861Z" fill="#21D496"/>
<path d="M381.063 806.117L378.544 806.167L378.594 808.686L381.113 808.636L381.063 806.117Z" fill="#21D496"/>
<path d="M380.619 789.377L378.32 789.422L378.365 791.722L380.665 791.676L380.619 789.377Z" fill="#21D496"/>
<path d="M380.189 772.623L378.099 772.664L378.141 774.754L380.23 774.712L380.189 772.623Z" fill="#21D496"/>
<path d="M379.735 755.883L377.865 755.92L377.902 757.79L379.772 757.753L379.735 755.883Z" fill="#21D496"/>
<path d="M370.927 940.331L366.678 940.415L366.762 944.664L371.011 944.58L370.927 940.331Z" fill="#21D496"/>
<path d="M370.481 923.592L366.452 923.672L366.532 927.701L370.561 927.621L370.481 923.592Z" fill="#21D496"/>
<path d="M370.052 906.837L366.232 906.913L366.308 910.732L370.127 910.657L370.052 906.837Z" fill="#21D496"/>
<path d="M369.607 890.099L366.007 890.17L366.079 893.769L369.678 893.698L369.607 890.099Z" fill="#21D496"/>
<path d="M369.168 873.354L365.788 873.421L365.855 876.8L369.235 876.733L369.168 873.354Z" fill="#21D496"/>
<path d="M368.729 856.617L365.56 856.68L365.623 859.85L368.792 859.787L368.729 856.617Z" fill="#21D496"/>
<path d="M368.28 839.873L365.331 839.932L365.389 842.881L368.338 842.823L368.28 839.873Z" fill="#21D496"/>
<path d="M367.836 823.134L365.106 823.188L365.16 825.917L367.89 825.863L367.836 823.134Z" fill="#21D496"/>
<path d="M367.406 806.389L364.886 806.439L364.936 808.959L367.456 808.909L367.406 806.389Z" fill="#21D496"/>
<path d="M366.961 789.64L364.661 789.686L364.707 791.985L367.006 791.939L366.961 789.64Z" fill="#21D496"/>
<path d="M366.531 772.896L364.442 772.938L364.483 775.027L366.573 774.986L366.531 772.896Z" fill="#21D496"/>
<path d="M366.087 756.156L364.217 756.193L364.254 758.062L366.124 758.025L366.087 756.156Z" fill="#21D496"/>
<path d="M357.28 940.604L353.03 940.688L353.115 944.938L357.364 944.853L357.28 940.604Z" fill="#21D496"/>
<path d="M356.834 923.855L352.804 923.935L352.884 927.964L356.913 927.884L356.834 923.855Z" fill="#21D496"/>
<path d="M356.395 907.111L352.576 907.187L352.651 911.006L356.471 910.93L356.395 907.111Z" fill="#21D496"/>
<path d="M355.949 890.372L352.35 890.443L352.421 894.043L356.021 893.971L355.949 890.372Z" fill="#21D496"/>
<path d="M355.51 873.627L352.131 873.694L352.198 877.074L355.577 877.007L355.51 873.627Z" fill="#21D496"/>
<path d="M355.075 856.888L351.906 856.951L351.968 860.12L355.138 860.057L355.075 856.888Z" fill="#21D496"/>
<path d="M354.636 840.144L351.687 840.202L351.745 843.152L354.694 843.093L354.636 840.144Z" fill="#21D496"/>
<path d="M354.19 823.395L351.461 823.449L351.515 826.178L354.245 826.124L354.19 823.395Z" fill="#21D496"/>
<path d="M353.748 806.653L351.229 806.703L351.279 809.222L353.798 809.172L353.748 806.653Z" fill="#21D496"/>
<path d="M353.306 789.911L351.007 789.957L351.052 792.256L353.352 792.21L353.306 789.911Z" fill="#21D496"/>
<path d="M352.874 773.169L350.785 773.21L350.826 775.3L352.916 775.259L352.874 773.169Z" fill="#21D496"/>
<path d="M352.435 756.425L350.565 756.462L350.602 758.332L352.472 758.295L352.435 756.425Z" fill="#21D496"/>
<path d="M343.622 940.867L339.373 940.951L339.457 945.2L343.706 945.116L343.622 940.867Z" fill="#21D496"/>
<path d="M343.18 924.126L339.151 924.206L339.23 928.235L343.26 928.155L343.18 924.126Z" fill="#21D496"/>
<path d="M342.748 907.384L338.928 907.459L339.004 911.279L342.823 911.203L342.748 907.384Z" fill="#21D496"/>
<path d="M342.295 890.642L338.696 890.713L338.767 894.313L342.367 894.241L342.295 890.642Z" fill="#21D496"/>
<path d="M341.853 873.9L338.474 873.967L338.541 877.347L341.92 877.28L341.853 873.9Z" fill="#21D496"/>
<path d="M341.421 857.159L338.252 857.222L338.315 860.391L341.484 860.328L341.421 857.159Z" fill="#21D496"/>
<path d="M340.978 840.407L338.029 840.465L338.088 843.415L341.037 843.356L340.978 840.407Z" fill="#21D496"/>
<path d="M340.536 823.665L337.807 823.719L337.861 826.449L340.59 826.395L340.536 823.665Z" fill="#21D496"/>
<path d="M340.104 806.923L337.585 806.973L337.635 809.493L340.154 809.443L340.104 806.923Z" fill="#21D496"/>
<path d="M339.652 790.182L337.352 790.228L337.398 792.527L339.697 792.481L339.652 790.182Z" fill="#21D496"/>
<path d="M339.22 773.44L337.13 773.482L337.171 775.571L339.261 775.53L339.22 773.44Z" fill="#21D496"/>
<path d="M338.777 756.699L336.908 756.736L336.945 758.605L338.814 758.568L338.777 756.699Z" fill="#21D496"/>
<path d="M329.953 941.149L325.704 941.233L325.789 945.482L330.038 945.398L329.953 941.149Z" fill="#21D496"/>
<path d="M329.515 924.404L325.486 924.484L325.566 928.513L329.595 928.433L329.515 924.404Z" fill="#21D496"/>
<path d="M329.083 907.662L325.264 907.738L325.339 911.557L329.159 911.481L329.083 907.662Z" fill="#21D496"/>
<path d="M328.641 890.92L325.041 890.992L325.113 894.591L328.712 894.52L328.641 890.92Z" fill="#21D496"/>
<path d="M328.202 874.166L324.823 874.233L324.89 877.613L328.269 877.546L328.202 874.166Z" fill="#21D496"/>
<path d="M327.756 857.427L324.586 857.49L324.649 860.659L327.818 860.596L327.756 857.427Z" fill="#21D496"/>
<path d="M327.318 840.682L324.369 840.741L324.427 843.69L327.377 843.632L327.318 840.682Z" fill="#21D496"/>
<path d="M326.872 823.943L324.142 823.997L324.196 826.727L326.926 826.672L326.872 823.943Z" fill="#21D496"/>
<path d="M326.443 807.199L323.924 807.249L323.974 809.768L326.493 809.719L326.443 807.199Z" fill="#21D496"/>
<path d="M326.001 790.457L323.701 790.503L323.747 792.802L326.046 792.757L326.001 790.457Z" fill="#21D496"/>
<path d="M325.569 773.705L323.479 773.747L323.521 775.836L325.61 775.795L325.569 773.705Z" fill="#21D496"/>
<path d="M325.117 756.963L323.247 757L323.284 758.87L325.154 758.833L325.117 756.963Z" fill="#21D496"/>
<path d="M316.303 941.416L312.054 941.5L312.139 945.75L316.388 945.665L316.303 941.416Z" fill="#21D496"/>
<path d="M315.861 924.674L311.832 924.754L311.912 928.784L315.941 928.704L315.861 924.674Z" fill="#21D496"/>
<path d="M315.429 907.933L311.61 908.008L311.686 911.828L315.505 911.752L315.429 907.933Z" fill="#21D496"/>
<path d="M314.983 891.183L311.384 891.254L311.455 894.854L315.054 894.782L314.983 891.183Z" fill="#21D496"/>
<path d="M314.541 874.441L311.162 874.508L311.229 877.887L314.608 877.82L314.541 874.441Z" fill="#21D496"/>
<path d="M314.108 857.699L310.939 857.762L311.002 860.932L314.171 860.869L314.108 857.699Z" fill="#21D496"/>
<path d="M313.66 840.956L310.711 841.014L310.769 843.964L313.719 843.905L313.66 840.956Z" fill="#21D496"/>
<path d="M313.214 824.215L310.484 824.27L310.539 826.999L313.268 826.945L313.214 824.215Z" fill="#21D496"/>
<path d="M312.786 807.472L310.266 807.522L310.316 810.041L312.836 809.991L312.786 807.472Z" fill="#21D496"/>
<path d="M312.34 790.721L310.04 790.767L310.086 793.067L312.386 793.021L312.34 790.721Z" fill="#21D496"/>
<path d="M311.911 773.978L309.822 774.02L309.863 776.109L311.953 776.068L311.911 773.978Z" fill="#21D496"/>
<path d="M311.465 757.237L309.596 757.274L309.633 759.144L311.502 759.106L311.465 757.237Z" fill="#21D496"/>
<path d="M302.656 941.689L298.407 941.773L298.491 946.023L302.74 945.938L302.656 941.689Z" fill="#21D496"/>
<path d="M302.204 924.938L298.174 925.018L298.254 929.047L302.283 928.967L302.204 924.938Z" fill="#21D496"/>
<path d="M301.771 908.196L297.952 908.271L298.028 912.091L301.847 912.015L301.771 908.196Z" fill="#21D496"/>
<path d="M301.329 891.454L297.73 891.525L297.801 895.125L301.401 895.053L301.329 891.454Z" fill="#21D496"/>
<path d="M300.887 874.712L297.508 874.779L297.575 878.159L300.954 878.092L300.887 874.712Z" fill="#21D496"/>
<path d="M300.455 857.97L297.285 858.033L297.348 861.203L300.518 861.14L300.455 857.97Z" fill="#21D496"/>
<path d="M300.008 841.231L297.059 841.289L297.118 844.238L300.067 844.18L300.008 841.231Z" fill="#21D496"/>
<path d="M299.557 824.479L296.827 824.533L296.881 827.262L299.611 827.208L299.557 824.479Z" fill="#21D496"/>
<path d="M299.124 807.737L296.604 807.787L296.654 810.306L299.174 810.256L299.124 807.737Z" fill="#21D496"/>
<path d="M298.682 790.994L296.382 791.04L296.428 793.34L298.727 793.294L298.682 790.994Z" fill="#21D496"/>
<path d="M298.253 774.252L296.164 774.293L296.205 776.383L298.295 776.341L298.253 774.252Z" fill="#21D496"/>
<path d="M297.807 757.51L295.938 757.547L295.975 759.416L297.844 759.379L297.807 757.51Z" fill="#21D496"/>
</g>
<g opacity="0.2">
<path d="M1779.04 1213.01L1793.93 1227.9" stroke="#0B0F28" stroke-width="1.15" stroke-linecap="round" stroke-linejoin="round"/>
<path d="M1728.02 1161.96L1755.35 1189.3" stroke="#0B0F28" stroke-width="1.15" stroke-linecap="round" stroke-linejoin="round"/>
<path d="M1774.33 1165.27L1877.24 1268.23" stroke="#0B0F28" stroke-width="1.15" stroke-linecap="round" stroke-linejoin="round"/>
<path d="M1721.87 1112.74L1742.72 1133.64" stroke="#0B0F28" stroke-width="1.15" stroke-linecap="round" stroke-linejoin="round"/>
<path d="M1848.29 1196.24L1938.83 1286.83" stroke="#E42032" stroke-width="1.15" stroke-linecap="round" stroke-linejoin="round"/>
<path d="M1711.66 1059.54L1808.2 1156.13" stroke="#E42032" stroke-width="1.15" stroke-linecap="round" stroke-linejoin="round"/>
<path d="M1787.35 1092.24L1947.18 1252.15" stroke="#0B0F28" stroke-width="1.15" stroke-linecap="round" stroke-linejoin="round"/>
<path d="M1721.26 1026.11L1755.09 1059.97" stroke="#0B0F28" stroke-width="1.15" stroke-linecap="round" stroke-linejoin="round"/>
<path d="M1683 944.774L1878.93 1140.8" stroke="#0B0F28" stroke-width="1.15" stroke-linecap="round" stroke-linejoin="round"/>
<path d="M1840.13 1059L2031.53 1250.49" stroke="#E42032" stroke-width="1.15" stroke-linecap="round" stroke-linejoin="round"/>
<path d="M1755.6 974.417L1800.08 1018.88" stroke="#E42032" stroke-width="1.15" stroke-linecap="round" stroke-linejoin="round"/>
<path d="M1877.28 1053.13L2000.93 1176.81" stroke="#0B0F28" stroke-width="1.15" stroke-linecap="round" stroke-linejoin="round"/>
<path d="M1751.07 926.822L1842.43 1018.24" stroke="#0B0F28" stroke-width="1.15" stroke-linecap="round" stroke-linejoin="round"/>
<path d="M1806.91 939.666L1932.36 1065.18" stroke="#E42032" stroke-width="1.15" stroke-linecap="round" stroke-linejoin="round"/>
<path d="M1817.26 907L1882.49 972.259" stroke="#0B0F28" stroke-width="1.15" stroke-linecap="round" stroke-linejoin="round"/>
<path d="M1869.44 916.174L1955.48 1002.26" stroke="#E42032" stroke-width="1.15" stroke-linecap="round" stroke-linejoin="round"/>
</g>
</svg>
