<svg width="223" height="382" viewBox="0 0 223 382" fill="none" xmlns="http://www.w3.org/2000/svg">
<g opacity="0.2">
<path d="M97.0413 307.006L111.927 321.9" stroke="#0B0F28" stroke-width="1.15" stroke-linecap="round" stroke-linejoin="round"/>
<path d="M46.0183 255.957L73.3457 283.298" stroke="#0B0F28" stroke-width="1.15" stroke-linecap="round" stroke-linejoin="round"/>
<path d="M92.3311 259.267L195.24 362.228" stroke="#0B0F28" stroke-width="1.15" stroke-linecap="round" stroke-linejoin="round"/>
<path d="M39.8696 206.743L60.7247 227.644" stroke="#0B0F28" stroke-width="1.15" stroke-linecap="round" stroke-linejoin="round"/>
<path d="M166.295 290.241L256.835 380.827" stroke="#E42032" stroke-width="1.15" stroke-linecap="round" stroke-linejoin="round"/>
<path d="M29.6577 153.535L126.202 250.129" stroke="#E42032" stroke-width="1.15" stroke-linecap="round" stroke-linejoin="round"/>
<path d="M105.347 186.237L265.177 346.147" stroke="#0B0F28" stroke-width="1.15" stroke-linecap="round" stroke-linejoin="round"/>
<path d="M39.2583 120.114L73.0939 153.967" stroke="#0B0F28" stroke-width="1.15" stroke-linecap="round" stroke-linejoin="round"/>
<path d="M1 38.7739L196.93 234.803" stroke="#0B0F28" stroke-width="1.15" stroke-linecap="round" stroke-linejoin="round"/>
<path d="M158.132 152.996L349.532 344.492" stroke="#E42032" stroke-width="1.15" stroke-linecap="round" stroke-linejoin="round"/>
<path d="M73.5974 68.4175L118.076 112.883" stroke="#E42032" stroke-width="1.15" stroke-linecap="round" stroke-linejoin="round"/>
<path d="M195.276 147.131L318.932 270.814" stroke="#0B0F28" stroke-width="1.15" stroke-linecap="round" stroke-linejoin="round"/>
<path d="M69.0667 20.8223L160.434 112.235" stroke="#0B0F28" stroke-width="1.15" stroke-linecap="round" stroke-linejoin="round"/>
<path d="M124.908 33.6655L250.362 159.183" stroke="#E42032" stroke-width="1.15" stroke-linecap="round" stroke-linejoin="round"/>
<path d="M135.264 1L200.49 66.2591" stroke="#0B0F28" stroke-width="1.15" stroke-linecap="round" stroke-linejoin="round"/>
<path d="M187.437 10.1738L273.482 96.2626" stroke="#E42032" stroke-width="1.15" stroke-linecap="round" stroke-linejoin="round"/>
</g>
</svg>
