<svg width="92" height="30" viewBox="0 0 92 30" fill="none" xmlns="http://www.w3.org/2000/svg">
<path d="M0.0860901 29V24.36H3.76609V5.64H0.0860901V0.999998H11.6061C15.3661 0.999998 18.2194 1.96 20.1661 3.88C22.1394 5.77333 23.1261 8.6 23.1261 12.36V17.64C23.1261 21.4 22.1394 24.24 20.1661 26.16C18.2194 28.0533 15.3661 29 11.6061 29H0.0860901ZM9.04609 24.2H11.6861C13.8194 24.2 15.3794 23.64 16.3661 22.52C17.3528 21.4 17.8461 19.8267 17.8461 17.8V12.2C17.8461 10.1467 17.3528 8.57333 16.3661 7.48C15.3794 6.36 13.8194 5.8 11.6861 5.8H9.04609V24.2Z" fill="#03041D"/>
<path d="M33.8467 29.56C32.4334 29.56 31.1667 29.32 30.0467 28.84C28.9267 28.3333 28.0334 27.6133 27.3667 26.68C26.7267 25.72 26.4067 24.56 26.4067 23.2C26.4067 21.84 26.7267 20.7067 27.3667 19.8C28.0334 18.8667 28.94 18.1733 30.0867 17.72C31.26 17.24 32.5934 17 34.0867 17H39.5267V15.88C39.5267 14.9467 39.2334 14.1867 38.6467 13.6C38.0601 12.9867 37.1267 12.68 35.8467 12.68C34.5934 12.68 33.66 12.9733 33.0467 13.56C32.4334 14.12 32.0334 14.8533 31.8467 15.76L27.2067 14.2C27.5267 13.1867 28.0334 12.2667 28.7267 11.44C29.4467 10.5867 30.3934 9.90667 31.5667 9.4C32.7667 8.86667 34.22 8.6 35.9267 8.6C38.54 8.6 40.6067 9.25333 42.1267 10.56C43.6467 11.8667 44.4067 13.76 44.4067 16.24V23.64C44.4067 24.44 44.78 24.84 45.5267 24.84H47.1267V29H43.7667C42.78 29 41.9667 28.76 41.3267 28.28C40.6867 27.8 40.3667 27.16 40.3667 26.36V26.32H39.6067C39.5 26.64 39.26 27.0667 38.8867 27.6C38.5134 28.1067 37.9267 28.56 37.1267 28.96C36.3267 29.36 35.2334 29.56 33.8467 29.56ZM34.7267 25.48C36.14 25.48 37.2867 25.0933 38.1667 24.32C39.0734 23.52 39.5267 22.4667 39.5267 21.16V20.76H34.4467C33.5134 20.76 32.78 20.96 32.2467 21.36C31.7134 21.76 31.4467 22.32 31.4467 23.04C31.4467 23.76 31.7267 24.3467 32.2867 24.8C32.8467 25.2533 33.66 25.48 34.7267 25.48Z" fill="#21D496"/>
<path d="M50.8117 29V0.999998H55.8517V29H50.8117Z" fill="#03041D"/>
<path d="M61.4367 29V9.16H66.4767V29H61.4367ZM63.9567 6.84C63.05 6.84 62.2767 6.54667 61.6367 5.96C61.0234 5.37333 60.7167 4.6 60.7167 3.64C60.7167 2.68 61.0234 1.90667 61.6367 1.32C62.2767 0.733332 63.05 0.439999 63.9567 0.439999C64.89 0.439999 65.6634 0.733332 66.2767 1.32C66.8901 1.90667 67.1967 2.68 67.1967 3.64C67.1967 4.6 66.8901 5.37333 66.2767 5.96C65.6634 6.54667 64.89 6.84 63.9567 6.84Z" fill="#03041D"/>
<path d="M81.5017 29.56C79.5284 29.56 77.7551 29.16 76.1817 28.36C74.6084 27.56 73.3684 26.4 72.4617 24.88C71.555 23.36 71.1017 21.5333 71.1017 19.4V18.76C71.1017 16.6267 71.555 14.8 72.4617 13.28C73.3684 11.76 74.6084 10.6 76.1817 9.8C77.7551 9 79.5284 8.6 81.5017 8.6C83.475 8.6 85.2484 9 86.8217 9.8C88.3951 10.6 89.6351 11.76 90.5417 13.28C91.4484 14.8 91.9017 16.6267 91.9017 18.76V19.4C91.9017 21.5333 91.4484 23.36 90.5417 24.88C89.6351 26.4 88.3951 27.56 86.8217 28.36C85.2484 29.16 83.475 29.56 81.5017 29.56ZM81.5017 25.08C83.0484 25.08 84.3284 24.5867 85.3417 23.6C86.3551 22.5867 86.8617 21.1467 86.8617 19.28V18.88C86.8617 17.0133 86.3551 15.5867 85.3417 14.6C84.3551 13.5867 83.075 13.08 81.5017 13.08C79.955 13.08 78.675 13.5867 77.6617 14.6C76.6484 15.5867 76.1417 17.0133 76.1417 18.88V19.28C76.1417 21.1467 76.6484 22.5867 77.6617 23.6C78.675 24.5867 79.955 25.08 81.5017 25.08Z" fill="#03041D"/>
</svg>
