<svg width="1920" height="1289" viewBox="0 0 1920 1289" fill="none" xmlns="http://www.w3.org/2000/svg">
<path opacity="0.1" d="M134.072 99.586L134.071 99.5854C85.3341 64.5714 30.9491 34.3102 -25.4174 10.7528L-22.2206 4.1995C71.1036 43.3479 159.459 100.953 224.802 165.428C272.065 212.061 305.625 260.731 339.266 309.517C350.965 326.482 362.673 343.461 374.971 360.374C399.28 393.84 426.163 427.264 459.774 459.136C493.764 491.395 533.736 521.183 576.826 547.8C760.912 661.501 972.042 706.96 1163.92 744.026C1171.29 745.449 1178.66 746.869 1186.03 748.289C1279.25 766.253 1372.66 784.252 1467.34 810.464L1468.14 807.573L1467.34 810.464C1573.37 839.817 1684.23 880.166 1780.11 941.346L1781.73 938.817L1780.12 941.346C1858.79 991.525 1924.26 1055.93 1948.25 1118.23C1969.26 1172.86 1958.56 1220.32 1943.48 1264.34L1943.48 1264.35L1943.47 1264.36C1941.27 1270.89 1938.86 1277.38 1936.41 1283.9L1920.93 1276.35C1930.6 1250.5 1939.6 1224.07 1942.9 1195.25L1939.92 1194.9L1942.9 1195.24C1948.92 1142.46 1930.16 1084.14 1872.68 1025.17C1803.45 954.16 1702.67 899.74 1602.39 861.855C1500.16 823.235 1398.99 798.794 1298.36 778.173C1261.74 770.671 1225.24 763.679 1188.78 756.697C1124.93 744.47 1061.23 732.271 997.383 717.407C817.987 675.62 614.114 603.132 470.774 479.994C406.602 424.87 365.02 364.676 323.795 305.001C320.407 300.096 317.022 295.196 313.626 290.301L311.161 292.011L313.626 290.301C267.135 223.293 215.105 157.841 134.072 99.586Z" fill="#EB044F" stroke="white" stroke-width="6"/>
</svg>
